<svg id="Group_3668" data-name="Group 3668" xmlns="http://www.w3.org/2000/svg" width="36.001" height="36.001" viewBox="0 0 36.001 36.001">
  <path id="Path_6099" data-name="Path 6099" d="M5053.912-2920.127c-.4-.035-.8-.079-1.2-.141C5053.108-2920.207,5053.509-2920.162,5053.912-2920.127Z" transform="translate(-5037.487 2956.055)" fill="#b6bdda"/>
  <path id="Path_6100" data-name="Path 6100" d="M5057.057-2919.884c-.422,0-.839-.02-1.254-.049C5056.218-2919.9,5056.635-2919.884,5057.057-2919.884Z" transform="translate(-5039.055 2955.885)" fill="#b6bdda"/>
  <path id="Path_6101" data-name="Path 6101" d="M5060.318-2919.91c-.092.005-.184.012-.276.016C5060.135-2919.9,5060.227-2919.9,5060.318-2919.91Z" transform="translate(-5041.208 2955.874)" fill="#b6bdda"/>
  <path id="Path_6102" data-name="Path 6102" d="M5062.037-2920.055l-.292.028Z" transform="translate(-5042.074 2955.947)" fill="#b6bdda"/>
  <path id="Path_6103" data-name="Path 6103" d="M5063.856-2920.262l-.092.013Z" transform="translate(-5043.099 2956.052)" fill="#b6bdda"/>
  <path id="Path_6104" data-name="Path 6104" d="M5039.77-2993a18,18,0,0,0-18,18,18,18,0,0,0,15.188,17.78v-12.575h-4.571v-5.2h4.571v-3.967c0-4.513,2.688-7,6.8-7a27.655,27.655,0,0,1,4.029.352v4.43h-2.271a2.6,2.6,0,0,0-2.934,2.812v3.377h4.991l-.8,5.2h-4.194v12.575a18,18,0,0,0,15.188-17.78A18,18,0,0,0,5039.77-2993Z" transform="translate(-5021.769 2992.995)" fill="#b6bdda"/>
</svg>
