<svg xmlns="http://www.w3.org/2000/svg" xmlns:xlink="http://www.w3.org/1999/xlink" width="234" height="226" viewBox="0 0 234 226">
  <defs>
    <linearGradient id="linear-gradient" x1="1.137" y1="1.112" x2="0.365" y2="0.402" gradientUnits="objectBoundingBox">
      <stop offset="0" stop-color="#dae3fe"/>
      <stop offset="1" stop-color="#e9effd"/>
    </linearGradient>
    <linearGradient id="linear-gradient-2" x1="-0.597" y1="0.932" x2="-0.374" y2="-0.163" gradientUnits="objectBoundingBox">
      <stop offset="0" stop-color="#09005d"/>
      <stop offset="1" stop-color="#1a0f91"/>
    </linearGradient>
    <linearGradient id="linear-gradient-3" x1="-0.013" y1="-1.659" x2="-0.905" y2="3.409" xlink:href="#linear-gradient-2"/>
    <linearGradient id="linear-gradient-4" x1="1.45" y1="-0.48" x2="3.545" y2="-2.705" gradientUnits="objectBoundingBox">
      <stop offset="0" stop-color="#4f52ff"/>
      <stop offset="1" stop-color="#4042e2"/>
    </linearGradient>
    <linearGradient id="linear-gradient-5" x1="-30.049" y1="0.5" x2="-29.049" y2="0.5" xlink:href="#linear-gradient-4"/>
    <linearGradient id="linear-gradient-6" x1="-30.949" y1="0.5" x2="-29.949" y2="0.5" xlink:href="#linear-gradient-2"/>
    <linearGradient id="linear-gradient-7" x1="1.469" y1="-0.169" x2="7.998" y2="-4.236" gradientUnits="objectBoundingBox">
      <stop offset="0" stop-color="#febbba"/>
      <stop offset="1" stop-color="#ff928e"/>
    </linearGradient>
    <linearGradient id="linear-gradient-8" x1="-90.426" y1="0.5" x2="-89.426" y2="0.5" xlink:href="#linear-gradient-4"/>
    <linearGradient id="linear-gradient-9" x1="-61.278" y1="0.5" x2="-60.278" y2="0.5" xlink:href="#linear-gradient-2"/>
    <linearGradient id="linear-gradient-10" x1="0.936" y1="0.228" x2="5.843" y2="-2.821" xlink:href="#linear-gradient-7"/>
    <linearGradient id="linear-gradient-11" x1="-68.899" y1="5.021" x2="-68.541" y2="4.213" gradientUnits="objectBoundingBox">
      <stop offset="0" stop-color="#53d8ff"/>
      <stop offset="1" stop-color="#3840f7"/>
    </linearGradient>
    <linearGradient id="linear-gradient-12" x1="-40.53" y1="-0.004" x2="-40.544" y2="1.888" xlink:href="#linear-gradient-7"/>
    <linearGradient id="linear-gradient-13" x1="-50.86" y1="8.188" x2="-52.38" y2="9.525" xlink:href="#linear-gradient-7"/>
    <linearGradient id="linear-gradient-14" x1="-29.119" y1="5.575" x2="-28.097" y2="5.575" xlink:href="#linear-gradient-2"/>
    <linearGradient id="linear-gradient-15" x1="-146.238" y1="25.266" x2="-142.947" y2="22.91" xlink:href="#linear-gradient-7"/>
    <linearGradient id="linear-gradient-16" x1="-73.508" y1="0.5" x2="-72.508" y2="0.5" xlink:href="#linear-gradient-7"/>
    <linearGradient id="linear-gradient-17" x1="-1.636" y1="-0.218" x2="-2.98" y2="1.835" xlink:href="#linear-gradient-2"/>
    <linearGradient id="linear-gradient-18" x1="-9.944" y1="1.815" x2="-8.634" y2="-0.054" xlink:href="#linear-gradient-2"/>
    <linearGradient id="linear-gradient-19" x1="-7.043" y1="-0.592" x2="-10.595" y2="3.735" gradientUnits="objectBoundingBox">
      <stop offset="0" stop-color="#ff928e"/>
      <stop offset="1" stop-color="#fe7062"/>
    </linearGradient>
    <linearGradient id="linear-gradient-20" x1="-43.085" y1="-1.222" x2="-44.778" y2="3.818" xlink:href="#linear-gradient-7"/>
  </defs>
  <g id="Group_7990" data-name="Group 7990" transform="translate(-839.727 -2373)">
    <path id="Path_5085" data-name="Path 5085" d="M635.541,671.53c-6.067,6.216-7.34,7.111-11.5,9.869-40.536,26.9-99.191,20.4-113.517,17.749-23.114-4.276-34.465-5.785-51.229-20.838-38.092-34.2-36.24-105.558-7.133-149.758,3.451-5.241,32.006-45.905,78.444-51.939,1.136-.148,54.934-7.208,91.233,23.017a107.856,107.856,0,0,1,21.312,24.033C671.509,567.185,671.6,634.59,635.541,671.53Z" transform="translate(409.682 1897.204)" fill="url(#linear-gradient)"/>
    <path id="Path_5090" data-name="Path 5090" d="M591.216,1548.489a3.691,3.691,0,0,0,3.667,3.693H793.2a3.691,3.691,0,0,0,3.667-3.693l1.65-114.889a6.406,6.406,0,0,0-6.725-5.7l-193.817-5.056a9.212,9.212,0,0,0-6.77,2.717,9.347,9.347,0,0,0-2.713,6.812Z" transform="translate(264.707 1025.162)" fill="url(#linear-gradient-2)"/>
    <path id="Path_5091" data-name="Path 5091" d="M635.071,1593.723a3.493,3.493,0,0,0,3.469,3.5H828.584a3.493,3.493,0,0,0,3.469-3.5l1.557-104.3a8.561,8.561,0,0,0-8.948-8.4L638.97,1476a6.458,6.458,0,0,0-4.755,1.909,6.57,6.57,0,0,0-1.907,4.791Z" transform="translate(224.5 976.385)" fill="#344cb6"/>
    <g id="Group_3059" data-name="Group 3059" transform="translate(986.986 2457.795)" opacity="0.6">
      <path id="Path_5092" data-name="Path 5092" d="M3045.588,2197.618h-.008a.513.513,0,0,1-.505-.521l.125-8.458a.512.512,0,0,1,.512-.505h.008a.513.513,0,0,1,.505.52l-.124,8.458A.513.513,0,0,1,3045.588,2197.618Z" transform="translate(-2978.104 -2134.854)" fill="#fff"/>
      <path id="Path_5093" data-name="Path 5093" d="M2300.247,1583.68h-.008a.512.512,0,0,1-.5-.52l.475-32.4a6.085,6.085,0,0,0-1.736-4.556c-2.134-2.044-5.522-1.94-5.665-1.933l-59.852-1.6a.512.512,0,0,1-.5-.526.491.491,0,0,1,.526-.5l59.816,1.6a9.411,9.411,0,0,1,6.382,2.217,7.075,7.075,0,0,1,2.052,5.3l-.476,32.406A.512.512,0,0,1,2300.247,1583.68Z" transform="translate(-2232.458 -1541.644)" fill="#fff"/>
    </g>
    <rect id="Rectangle_734" data-name="Rectangle 734" width="234" height="10.095" rx="5.047" transform="translate(1073.727 2586.881) rotate(180)" fill="url(#linear-gradient-3)"/>
    <path id="Path_5094" data-name="Path 5094" d="M818.317,810.963l-118.627-.714a6.726,6.726,0,0,0-6.823,7l8.161,165.618h132.01l7.33-147.971Z" transform="translate(168.941 1590.314)" fill="#91b3fa"/>
    <path id="Path_5095" data-name="Path 5095" d="M2202.057,845.173a6.79,6.79,0,0,1-6.531-7.321l1.272-16.094,22.4,24.038Z" transform="translate(-1209.867 1579.754)" fill="url(#linear-gradient-4)"/>
    <g id="Group_3069" data-name="Group 3069" transform="translate(882.236 2430.234)">
      <g id="Group_3061" data-name="Group 3061" transform="translate(39.837)">
        <path id="Path_5096" data-name="Path 5096" d="M1426.539,1207.416c10.649-.017,51.53-.147,61.854-.18a2.488,2.488,0,0,1,2.284,2.743h0a2.52,2.52,0,0,1-2.309,2.584l-61.825.527a2.431,2.431,0,0,1-2.289-2.4l-.027-.347A2.569,2.569,0,0,1,1426.539,1207.416Z" transform="translate(-1424.217 -1207.236)" fill="#fff" opacity="0.78"/>
      </g>
      <g id="Group_3062" data-name="Group 3062" transform="translate(39.351 11.822)">
        <path id="Path_5097" data-name="Path 5097" d="M1420.648,1350.861c10.649-.017,51.53-.147,61.854-.18a2.488,2.488,0,0,1,2.284,2.743h0a2.521,2.521,0,0,1-2.309,2.584l-61.826.527a2.432,2.432,0,0,1-2.289-2.4l-.027-.347A2.569,2.569,0,0,1,1420.648,1350.861Z" transform="translate(-1418.325 -1350.681)" fill="#fff" opacity="0.78"/>
      </g>
      <g id="Group_3063" data-name="Group 3063" transform="translate(1.235 28.833)">
        <path id="Path_5098" data-name="Path 5098" d="M959.34,1557.107c16.447.012,79.582-.011,95.525-.017,2.011,0,3.643,1.245,3.607,2.75h0c-.034,1.433-1.577,2.572-3.491,2.579l-95.472.363c-1.839.007-3.4-1.036-3.606-2.407l-.052-.347C955.619,1558.462,957.237,1557.105,959.34,1557.107Z" transform="translate(-955.83 -1557.09)" fill="#fff" opacity="0.78"/>
      </g>
      <g id="Group_3064" data-name="Group 3064" transform="translate(1.235 40.85)">
        <path id="Path_5099" data-name="Path 5099" d="M958.577,1703.312c12.8-.055,61.947-.336,74.357-.407a2.721,2.721,0,0,1,2.789,2.735h0a2.714,2.714,0,0,1-2.735,2.593l-74.318.753a2.741,2.741,0,0,1-2.79-2.392l-.038-.346A2.7,2.7,0,0,1,958.577,1703.312Z" transform="translate(-955.827 -1702.906)" fill="#fff" opacity="0.78"/>
      </g>
      <g id="Group_3065" data-name="Group 3065" transform="translate(1.073 57.485)">
        <path id="Path_5100" data-name="Path 5100" d="M957.377,1904.768c16.447.012,79.582-.011,95.525-.017,2.011,0,3.643,1.245,3.607,2.75h0c-.034,1.432-1.577,2.572-3.491,2.579l-95.472.363c-1.839.007-3.4-1.036-3.606-2.407l-.052-.347C953.657,1906.123,955.274,1904.766,957.377,1904.768Z" transform="translate(-953.868 -1904.751)" fill="#fff" opacity="0.78"/>
      </g>
      <g id="Group_3066" data-name="Group 3066" transform="translate(0.373 70.116)">
        <path id="Path_5101" data-name="Path 5101" d="M948.154,2058.008c12.862.023,62.24.047,74.708.052a2.728,2.728,0,0,1,2.786,2.752h0a2.72,2.72,0,0,1-2.763,2.576l-74.671.295a2.751,2.751,0,0,1-2.789-2.409l-.036-.346A2.7,2.7,0,0,1,948.154,2058.008Z" transform="translate(-945.375 -2058.008)" fill="#fff" opacity="0.78"/>
      </g>
      <g id="Group_3067" data-name="Group 3067" transform="translate(0.262 86.722)">
        <path id="Path_5102" data-name="Path 5102" d="M947.538,2259.523c16.447.011,79.582-.011,95.525-.017,2.011,0,3.643,1.245,3.607,2.75h0c-.034,1.433-1.577,2.572-3.49,2.579l-95.472.364c-1.839.007-3.4-1.037-3.606-2.407l-.052-.347C943.818,2260.878,945.435,2259.521,947.538,2259.523Z" transform="translate(-944.029 -2259.506)" fill="#fff" opacity="0.78"/>
      </g>
      <g id="Group_3068" data-name="Group 3068" transform="translate(0 99.204)">
        <path id="Path_5103" data-name="Path 5103" d="M943.626,2410.953c12.862.023,62.24.047,74.708.052a2.728,2.728,0,0,1,2.786,2.752h0a2.72,2.72,0,0,1-2.763,2.576l-74.671.295a2.75,2.75,0,0,1-2.789-2.409l-.036-.347A2.7,2.7,0,0,1,943.626,2410.953Z" transform="translate(-940.847 -2410.953)" fill="#fff" opacity="0.78"/>
      </g>
      <path id="Path_5104" data-name="Path 5104" d="M959.34,2610.157c16.447.011,79.582-.011,95.525-.017,2.011,0,3.643,1.246,3.607,2.75h0c-.034,1.433-1.577,2.572-3.491,2.579l-95.472.364c-1.839.007-3.4-1.036-3.606-2.407l-.052-.346C955.619,2611.512,957.237,2610.156,959.34,2610.157Z" transform="translate(-954.595 -2494.521)" fill="#fff" opacity="0.78"/>
      <path id="Path_5105" data-name="Path 5105" d="M956.609,2777.078c12.7,0,61.454-.063,73.765-.08a2.708,2.708,0,0,1,2.754,2.747h0a2.7,2.7,0,0,1-2.726,2.581l-73.728.427a2.724,2.724,0,0,1-2.756-2.4l-.036-.346A2.69,2.69,0,0,1,956.609,2777.078Z" transform="translate(-952.795 -2647.627)" fill="#fff" opacity="0.78"/>
    </g>
    <g id="Group_3077" data-name="Group 3077" transform="translate(977.914 2462.988)">
      <g id="Group_3072" data-name="Group 3072" transform="translate(27.928 101.442)">
        <path id="Path_5107" data-name="Path 5107" d="M2461.646,2934.232c2.352.2,6.434.533,9.653.675a9.3,9.3,0,0,0,3.689-.361c0,.072,0,.141-.006.2a.666.666,0,0,1-.633.629,113,113,0,0,1-12.639.012.474.474,0,0,1-.386-.712A3.858,3.858,0,0,1,2461.646,2934.232Z" transform="translate(-2461.259 -2926.098)" fill="url(#linear-gradient-5)"/>
        <path id="Path_5108" data-name="Path 5108" d="M2475.616,2882.027c-3.218-.142-7.3-.472-9.653-.675,2.313-2.837,9.653-4.75,9.653-4.75h2.073a8.7,8.7,0,0,1,1.616,5.064A9.306,9.306,0,0,1,2475.616,2882.027Z" transform="translate(-2465.575 -2873.218)" fill="url(#linear-gradient-6)"/>
        <path id="Path_5109" data-name="Path 5109" d="M2569.417,2835.536l-.194,3.839a.877.877,0,0,1-.749.824,3.412,3.412,0,0,1-1.557-.129,1.038,1.038,0,0,1-.7-.8l-.671-3.737Z" transform="translate(-2556.954 -2835.536)" fill="url(#linear-gradient-7)"/>
      </g>
      <g id="Group_3074" data-name="Group 3074" transform="translate(60.356 97.854)">
        <g id="Group_3073" data-name="Group 3073" transform="translate(0.913 3.563)">
          <path id="Path_5110" data-name="Path 5110" d="M2899.692,2928.285a1.861,1.861,0,0,0,1.675-1.239l0,.015a1.326,1.326,0,0,1-.894,1.511,5.838,5.838,0,0,1-2.473.388,2.459,2.459,0,0,1-1.855-.856l-.006-.008A6.228,6.228,0,0,0,2899.692,2928.285Z" transform="translate(-2893.644 -2919.479)" fill="url(#linear-gradient-8)"/>
          <path id="Path_5111" data-name="Path 5111" d="M2867.051,2835.232h1.71c2.6-.053,4.24,5.439,4.775,7.566a1.862,1.862,0,0,1-1.676,1.239,6.228,6.228,0,0,1-3.548-.188,16.329,16.329,0,0,1-2.44-6.145A2.158,2.158,0,0,1,2867.051,2835.232Z" transform="translate(-2865.813 -2835.232)" fill="url(#linear-gradient-9)"/>
        </g>
        <path id="Path_5112" data-name="Path 5112" d="M2858.372,2792l.95,3.776a1.026,1.026,0,0,1-.533,1.161,3.638,3.638,0,0,1-1.966.476.857.857,0,0,1-.7-.571l-1.394-3.973Z" transform="translate(-2854.73 -2792.002)" fill="url(#linear-gradient-10)"/>
      </g>
      <path id="Path_5113" data-name="Path 5113" d="M2506.336,2207.527c-1.181,1.048-5.023,1.186-5.023,1.186-13.839-33.214-19.5-37.933-19.5-37.933,2,12.537.322,40.291.322,40.291-2.284,1.007-5.228,0-5.228,0a213.941,213.941,0,0,0-7.067-52.534c9.354-.21,14.327-3.411,15.951-4.7C2493.589,2166.412,2506.336,2207.527,2506.336,2207.527Z" transform="translate(-2441.205 -2108.582)" fill="#172c89"/>
      <path id="Path_5114" data-name="Path 5114" d="M2343.686,1687.843c1.77,8.831,1.136,24.636.719,31.845-.117,2.026,1.3,4.835,2.441,6.751a.6.6,0,0,1-.243.846,41.694,41.694,0,0,1-15.915,4.412,1.072,1.072,0,0,1-1.079-.8c-5.575-20.816-12.05-34.118-12.05-34.118C2324.709,1685.362,2343.686,1687.843,2343.686,1687.843Z" transform="translate(-2301.475 -1680.778)" fill="#ff771b"/>
      <path id="Path_5115" data-name="Path 5115" d="M2539.694,2288.807a.443.443,0,0,0,.378-.673,13.894,13.894,0,0,0-5.487-4.764.443.443,0,1,0-.385.8,13.257,13.257,0,0,1,5.115,4.426A.443.443,0,0,0,2539.694,2288.807Z" transform="translate(-2500.03 -2227.394)" fill="url(#linear-gradient-11)"/>
      <g id="Group_3075" data-name="Group 3075" transform="translate(40.234 7.064)">
        <path id="Path_5116" data-name="Path 5116" d="M2692.625,1991.056a30.376,30.376,0,0,1-5.61,13.367l-1.278-1.042a39.451,39.451,0,0,0,.637-12.775A15.291,15.291,0,0,1,2692.625,1991.056Z" transform="translate(-2679.543 -1965.712)" fill="#ff771b"/>
        <path id="Path_5117" data-name="Path 5117" d="M2610.575,1701.273l1.978-10.9s13.212,10.1,11.1,25.344a15.291,15.291,0,0,0-6.25-.45C2616.8,1710.379,2615,1705.068,2610.575,1701.273Z" transform="translate(-2610.575 -1690.377)" fill="#ff771b"/>
      </g>
      <g id="Group_3076" data-name="Group 3076" transform="translate(0 16)">
        <path id="Path_5118" data-name="Path 5118" d="M2263.67,1798.8l5.1,10.983c-.825,6.631-4.387,9.5-8.227,10.6a23.305,23.305,0,0,0-1.713-7.152C2263.738,1808.163,2263.67,1798.8,2263.67,1798.8Z" transform="translate(-2247.585 -1798.801)" fill="#ff771b"/>
        <path id="Path_5119" data-name="Path 5119" d="M2133.626,1973.87a23.3,23.3,0,0,1,1.713,7.152c-10.247,3.976-12.958-3.734-12.958-3.734l1.894-.334A10.734,10.734,0,0,0,2133.626,1973.87Z" transform="translate(-2122.381 -1959.442)" fill="#ff771b"/>
      </g>
      <path id="Path_5120" data-name="Path 5120" d="M2374.572,1607.1l2.462,9.051a1.761,1.761,0,0,0,2.355,1.172,35.829,35.829,0,0,0,3.548-1.621,2.373,2.373,0,0,0,.837-3.41l-5.119-7.632Z" transform="translate(-2353.788 -1604.661)" fill="url(#linear-gradient-12)"/>
    </g>
    <g id="Group_3078" data-name="Group 3078" transform="translate(990.752 2453.691)">
      <path id="Path_5121" data-name="Path 5121" d="M2309.213,1534.667c-.023.156,2.053,10.328,2.053,10.328l5.783-1.309-.535-9.934S2309.589,1532.065,2309.213,1534.667Z" transform="translate(-2306.655 -1529.806)" fill="url(#linear-gradient-13)"/>
      <path id="Path_5122" data-name="Path 5122" d="M2286.734,1498.013l.691,5.207a.709.709,0,0,1,0,.2c-.058.408-.362,1.8-1.765,1.4a6.6,6.6,0,0,0-3.246-.424.734.734,0,0,0-.505.849,31.75,31.75,0,0,0,1.331,4.74.732.732,0,0,0,.889.433,23.646,23.646,0,0,0,5.1-2.086.733.733,0,0,0,.357-.66c-.055-1.315-.209-5.311-.08-6.431.121-1.052,1.412-1.681,1.972-1.907a.72.72,0,0,0,.4-.4,1.9,1.9,0,0,0-1.28-2.773.735.735,0,0,1-.465-.95,1.906,1.906,0,0,0-1.068-2.634,2.688,2.688,0,0,0-3.208.773.734.734,0,0,1-.935.11.581.581,0,0,0-.661.022.723.723,0,0,1-1.023-.31,2.192,2.192,0,0,0-2.546-1.269c-2.592.444-2.885,3.316-2.2,5s3.466,1.042,4.862.193c1.061-.645,2.438.031,3.037.392A.73.73,0,0,1,2286.734,1498.013Z" transform="translate(-2278.175 -1491.852)" fill="url(#linear-gradient-14)"/>
      <path id="Path_5123" data-name="Path 5123" d="M2413.292,1583.659s-1.065-2.983.029-3.714,2.716-.351,2.359,1.81C2415.236,1584.443,2413.292,1583.659,2413.292,1583.659Z" transform="translate(-2401.73 -1572.373)" fill="url(#linear-gradient-15)"/>
    </g>
    <path id="Path_5124" data-name="Path 5124" d="M2086.8,1982.191c-.515.4-2.283-.438-3.364-1.02a1.244,1.244,0,0,1-.6-1.47c.26-.82.694-1.88,1.228-2.013C2084.952,1977.466,2088.929,1980.53,2086.8,1982.191Z" transform="translate(-1108.131 516.055)" fill="url(#linear-gradient-16)"/>
    <g id="Group_3080" data-name="Group 3080" transform="translate(887.943 2470.043)">
      <path id="Path_5125" data-name="Path 5125" d="M1605.478,1800.533l-134.937-47.991-7.139,19.831,134.89,49.331a6.291,6.291,0,0,0,7.6-2.75c1.577-2.708,3.084-6.939,3.175-13.276A5.388,5.388,0,0,0,1605.478,1800.533Z" transform="translate(-1427.742 -1747.409)" fill="url(#linear-gradient-17)"/>
      <g id="Group_3079" data-name="Group 3079">
        <path id="Path_5126" data-name="Path 5126" d="M1031.761,1690.263l18.639,2.288c-.02,2.566-.86,5.885-3.7,9.692l-15.566-10.268A.937.937,0,0,1,1031.761,1690.263Z" transform="translate(-1030.707 -1690.255)" fill="url(#linear-gradient-18)"/>
        <path id="Path_5127" data-name="Path 5127" d="M1251.536,1720.956a25.968,25.968,0,0,1-7.139,19.831l-19.67-12.976c2.843-3.808,3.683-7.127,3.7-9.692Z" transform="translate(-1208.737 -1715.823)" fill="url(#linear-gradient-19)"/>
      </g>
    </g>
    <path id="Path_5130" data-name="Path 5130" d="M2596.973,2139.835l-5.964-.486-2.583,2.381s.611.845,2.521.359a27.324,27.324,0,0,1,4.527-.6s2.638,1.189,2.67-1.036Z" transform="translate(-1572.105 367.705)" fill="url(#linear-gradient-20)"/>
  </g>
</svg>
