<svg xmlns="http://www.w3.org/2000/svg" xmlns:xlink="http://www.w3.org/1999/xlink" width="340.07" height="226.656" viewBox="0 0 340.07 226.656">
  <defs>
    <clipPath id="clip-path">
      <path id="Path_5027" data-name="Path 5027" d="M331.265,149.907s-.907,2.025-2.182,4.638l-.007.014c-2.21,4.527-6.84,10.614-15.68,10.169-14.372-1.137-18.575-17.3-18.575-17.3s.278-6.412-2.868-8.552-6.847-24.511-6.847-24.511L295.92,96.122l10.765,3.934,14.955,5.472,5.064,3.7.271,7.987-5.748,6.271s1.759,14.129,1.1,18.813C321.721,146.576,331.265,149.907,331.265,149.907Z" transform="translate(-285.107 -96.122)" fill="#263238" opacity="0.2"/>
    </clipPath>
  </defs>
  <g id="Group_3053" data-name="Group 3053" transform="translate(18968 -7586)">
    <g id="Plants" transform="translate(-18968 7722.667)">
      <g id="freepik--Plants--inject-32" transform="translate(0 0)">
        <path id="Path_4980" data-name="Path 4980" d="M439.363,400.624c-.034,0,.611-2.072.667-2.2.646-1.457,2.762-3.9,4.523-3.709a2.114,2.114,0,0,1,1.813,2.376,2.063,2.063,0,0,1-.042.221,4.412,4.412,0,0,1-2.562,2.689A15.225,15.225,0,0,1,439.363,400.624Z" transform="translate(-237.791 -344.433)" fill="#3c2ab6"/>
        <g id="Group_3008" data-name="Group 3008" transform="translate(294.721)">
          <path id="Path_4981" data-name="Path 4981" d="M697.778,355.909a15.152,15.152,0,0,1-3.366-2.9s1.96-.9,2.091-.942c1.523-.475,4.739-.493,5.77.959a2.11,2.11,0,0,1-.587,2.925,2.068,2.068,0,0,1-.2.117A4.408,4.408,0,0,1,697.778,355.909Z" transform="translate(-657.277 -323.43)" fill="#3c2ab6"/>
          <path id="Path_4982" data-name="Path 4982" d="M629.268,341.826c-.79.572-1.515,1.114-2.168,1.619l-1.213-.332c.823-.616,1.788-1.3,2.844-2.047.619-.429,1.289-.879,1.982-1.33a20.573,20.573,0,0,1-.826-2.212,13.7,13.7,0,0,1-3.649-.73c-.278.69-.541,1.363-.781,2-.545,1.444-.988,2.736-1.348,3.83l-1-.273c.389-1.111.875-2.427,1.462-3.9.281-.7.593-1.445.922-2.2a12.825,12.825,0,0,1-2.962-2.453,3.872,3.872,0,0,1-.684-3.194,1.857,1.857,0,0,1,2.338-1.2,1.819,1.819,0,0,1,.183.07c1.415.677,1.869,3.468,1.683,4.856-.021.077-.23.958-.376,1.5.138-.321.264-.612.4-.928.282-.639.579-1.252.884-1.924q.247-.473.5-.959c.158-.315.37-.647.557-.975.445-.752.933-1.488,1.442-2.223a12.314,12.314,0,0,1-3.2-1.931,3.869,3.869,0,0,1-1.159-3.052,1.858,1.858,0,0,1,2.117-1.556,1.8,1.8,0,0,1,.208.044c1.5.454,2.36,3.151,2.4,4.544,0,.086-.1,1.094-.157,1.647.31-.438.615-.877.942-1.31.944-1.253,1.938-2.491,2.924-3.728.3-.38.6-.76.9-1.141a13.1,13.1,0,0,1-3.317-1.981,3.9,3.9,0,0,1-1.159-3.052,1.857,1.857,0,0,1,2.117-1.556,1.917,1.917,0,0,1,.208.044c1.5.454,2.359,3.151,2.4,4.544,0,.1-.136,1.556-.189,1.921.658-.837,1.3-1.68,1.907-2.535a33.093,33.093,0,0,0,2.236-3.606,12.71,12.71,0,0,1-3.34-1.988,3.881,3.881,0,0,1-1.159-3.052,1.86,1.86,0,0,1,2.123-1.554,1.775,1.775,0,0,1,.2.042c1.5.454,2.36,3.151,2.4,4.547,0,.09-.1,1.2-.162,1.72l.086.024a23.833,23.833,0,0,0,1.555-3.967c.23-.75.406-1.482.564-2.194a12.556,12.556,0,0,1-3.45-1.588,3.8,3.8,0,0,1-1.488-2.913,1.858,1.858,0,0,1,1.947-1.764,1.74,1.74,0,0,1,.2.02c1.54.285,2.7,2.866,2.882,4.254.012.075.024.855.027,1.421.066-.322.14-.656.2-.966.215-1.166.343-2.248.447-3.2.056-.547.1-1.048.125-1.505a12.415,12.415,0,0,1-2.316-2.985,3.837,3.837,0,0,1,.019-3.263,1.858,1.858,0,0,1,2.54-.672,1.736,1.736,0,0,1,.167.109c1.236.964,1.079,3.789.6,5.1-.032.116-.9,1.816-.917,1.8l-.027-.008c-.021.445-.048.921-.09,1.443-.085.965-.2,2.046-.378,3.226a33.18,33.18,0,0,1-.8,3.762,24.455,24.455,0,0,1-1.465,4.045l-.014.05c.314-.337,1.225-1.244,1.3-1.3,1.095-.875,3.728-1.916,5.033-1.047a1.859,1.859,0,0,1,.446,2.589,1.791,1.791,0,0,1-.123.155,3.879,3.879,0,0,1-3.093,1.048,13.011,13.011,0,0,1-3.645-1.291,33.039,33.039,0,0,1-2.222,3.778c-.476.707-.978,1.4-1.49,2.1.281-.281.532-.531.572-.56,1.095-.875,3.725-1.917,5.033-1.047a1.854,1.854,0,0,1,.451,2.583,1.8,1.8,0,0,1-.127.161,3.873,3.873,0,0,1-3.09,1.049,12.488,12.488,0,0,1-3.544-1.242c-.2.264-.4.529-.6.789-.961,1.262-1.923,2.517-2.823,3.778-.319.446-.606.908-.918,1.341.251-.25.462-.457.492-.488,1.094-.871,3.723-1.913,5.032-1.043a1.854,1.854,0,0,1,.451,2.583,1.924,1.924,0,0,1-.127.161,3.883,3.883,0,0,1-3.09,1.049,11.6,11.6,0,0,1-3.453-1.2c-.292.467-.589.938-.853,1.4-.168.312-.359.618-.515.954l-.482.975c-.282.639-.574,1.275-.833,1.895-.186.433-.353.845-.52,1.261.312-.445.945-1.306,1.005-1.372a7.21,7.21,0,0,1,3.136-1.845,2.014,2.014,0,0,1,.3-.275,1.851,1.851,0,0,1,2.723.448c.81,1.345-.357,3.922-1.276,4.977-.054.064-.717.67-1.146,1.047.287-.183.558-.363.866-.547.581-.371,1.168-.722,1.8-1.1l.95-.528c.312-.183.664-.334,1-.507.787-.379,1.6-.725,2.437-1.055a11.924,11.924,0,0,1-1.585-3.369,3.927,3.927,0,0,1,.718-3.186,1.855,1.855,0,0,1,2.62-.105,1.962,1.962,0,0,1,.14.144c1,1.205.246,3.93-.507,5.113-.045.074-.68.863-1.036,1.288.5-.2,1-.394,1.507-.576,1.478-.523,2.988-1,4.5-1.494l1.378-.457a12.443,12.443,0,0,1-1.67-3.486,3.866,3.866,0,0,1,.717-3.183,1.858,1.858,0,0,1,2.626-.1c.047.044.092.09.134.138,1,1.208.245,3.933-.508,5.116-.057.088-.971,1.22-1.218,1.5,1.012-.335,2.016-.683,2.989-1.061a33.382,33.382,0,0,0,3.854-1.774,12.911,12.911,0,0,1-1.684-3.5,3.888,3.888,0,0,1,.714-3.187,1.858,1.858,0,0,1,2.626-.1c.047.044.092.09.135.139,1,1.209.245,3.933-.505,5.117-.049.076-.748.941-1.083,1.343l.056.069a23.631,23.631,0,0,0,3.488-2.454c.6-.5,1.157-1.008,1.679-1.517a12.446,12.446,0,0,1-2-3.228,3.821,3.821,0,0,1,.361-3.245,1.858,1.858,0,0,1,2.6-.4,1.733,1.733,0,0,1,.151.124c1.134,1.091.674,3.883.058,5.139-.02.073-.452.725-.762,1.2.232-.233.486-.468.7-.7.822-.849,1.535-1.685,2.142-2.428.345-.424.653-.816.931-1.177a12.408,12.408,0,0,1-.283-3.768,3.881,3.881,0,0,1,1.819-2.724,1.861,1.861,0,0,1,2.491.85,1.8,1.8,0,0,1,.075.174c.5,1.489-1.189,3.756-2.328,4.586-.094.071-1.747,1.022-1.754.992l-.009-.032c-.264.361-.561.742-.87,1.154-.6.759-1.289,1.61-2.11,2.48a32.688,32.688,0,0,1-2.743,2.7,24.2,24.2,0,0,1-3.465,2.553.312.312,0,0,0-.042.024c.444-.107,1.707-.363,1.806-.372,1.394-.124,4.17.46,4.774,1.9a1.855,1.855,0,0,1-1.053,2.4,1.879,1.879,0,0,1-.195.063,3.875,3.875,0,0,1-3.156-.828,13.074,13.074,0,0,1-2.327-3.088,33.032,33.032,0,0,1-3.937,1.923c-.8.321-1.605.635-2.4.926a5.628,5.628,0,0,1,.787-.143c1.394-.123,4.169.464,4.773,1.907a1.856,1.856,0,0,1-1.247,2.465,3.876,3.876,0,0,1-3.156-.831,12.359,12.359,0,0,1-2.27-2.994l-.933.336c-1.5.522-2.993,1.035-4.446,1.583-.512.2-1.006.405-1.506.612l.684-.132c1.394-.123,4.169.464,4.773,1.907a1.854,1.854,0,0,1-1.051,2.4,1.975,1.975,0,0,1-.193.064,3.9,3.9,0,0,1-3.159-.832,11.183,11.183,0,0,1-2.217-2.9c-.5.221-1.009.458-1.483.7-.323.173-.646.318-.96.511l-.937.546c-.581.371-1.183.75-1.739,1.124-.388.252-.759.509-1.129.765.514-.218,1.509-.568,1.594-.592,1.365-.343,4.183-.177,5.005,1.162a1.858,1.858,0,0,1-.676,2.539,1.959,1.959,0,0,1-.179.091,3.881,3.881,0,0,1-3.249-.345,12.842,12.842,0,0,1-2.753-2.682C630.411,341.011,629.818,341.425,629.268,341.826Z" transform="translate(-621.716 -296.287)" fill="#3c2ab6"/>
        </g>
        <g id="Group_3009" data-name="Group 3009" transform="translate(0 7.137)">
          <path id="Path_4983" data-name="Path 4983" d="M49.018,361.657a13.425,13.425,0,0,0,3.088-2.457s-1.708-.869-1.825-.913c-1.333-.474-4.189-.605-5.165.656a1.875,1.875,0,0,0,.424,2.617,1.909,1.909,0,0,0,.17.109A3.941,3.941,0,0,0,49.018,361.657Z" transform="translate(-44.762 -333.588)" fill="#3c2ab6"/>
          <path id="Path_4984" data-name="Path 4984" d="M84.923,328.639c.027-.006-.947-1.666-1.019-1.766-.851-1.128-3.159-2.812-4.659-2.3a1.875,1.875,0,0,0-1.012,2.6,3.921,3.921,0,0,0,2.759,1.809A13.37,13.37,0,0,0,84.923,328.639Z" transform="translate(-61.036 -317.215)" fill="#3c2ab6"/>
          <path id="Path_4985" data-name="Path 4985" d="M78.584,351.064c.68.533,1.3,1.041,1.868,1.513l1.09-.253c-.711-.576-1.535-1.224-2.453-1.912-.537-.4-1.116-.822-1.709-1.252a18.1,18.1,0,0,0,.823-1.938,11.581,11.581,0,0,0,3.265-.52c.222.622.431,1.229.621,1.805.433,1.3.784,2.463,1.066,3.447l.881-.2c-.3-.993-.692-2.186-1.169-3.511-.225-.632-.477-1.307-.739-1.991a11.17,11.17,0,0,0,2.709-2.075,3.466,3.466,0,0,0,.72-2.811,1.648,1.648,0,0,0-2.028-1.146,1.673,1.673,0,0,0-.171.058c-1.29.551-1.782,3.015-1.665,4.254.016.071.171.857.285,1.352-.111-.279-.213-.553-.329-.838-.227-.568-.471-1.128-.728-1.734-.137-.287-.273-.579-.411-.869s-.306-.588-.461-.886c-.368-.684-.775-1.355-1.2-2.025a10.578,10.578,0,0,0,2.9-1.6,3.558,3.558,0,0,0,1.152-2.674,1.651,1.651,0,0,0-1.838-1.439,1.627,1.627,0,0,0-.173.031c-1.337.349-2.208,2.706-2.274,3.948,0,.079.045.975.082,1.467-.26-.4-.515-.8-.792-1.2-.794-1.145-1.634-2.276-2.465-3.412-.257-.345-.515-.692-.76-1.043a11.24,11.24,0,0,0,3.014-1.646,3.528,3.528,0,0,0,1.152-2.674,1.655,1.655,0,0,0-2.008-1.413c-1.337.349-2.207,2.71-2.274,3.952-.007.094.066,1.385.1,1.71-.557-.768-1.1-1.535-1.6-2.319a28.9,28.9,0,0,1-1.856-3.277,11.3,11.3,0,0,0,3.03-1.653,3.526,3.526,0,0,0,1.152-2.674,1.65,1.65,0,0,0-1.835-1.443,1.531,1.531,0,0,0-.173.03c-1.337.349-2.207,2.709-2.273,3.951-.007.08.045,1.053.086,1.532l-.077.018a21.323,21.323,0,0,1-1.35-3.558c-.176-.668-.308-1.325-.424-1.965a10.579,10.579,0,0,0,3.118-1.29,3.394,3.394,0,0,0,1.424-2.528,1.654,1.654,0,0,0-1.672-1.636,1.547,1.547,0,0,0-.169.011c-1.372.2-2.5,2.451-2.693,3.673-.01.066-.051.76-.062,1.262-.046-.291-.1-.59-.141-.868-.15-1.028-.228-2.007-.285-2.862-.031-.485-.048-.925-.059-1.337a11.054,11.054,0,0,0,2.158-2.571,3.414,3.414,0,0,0,.1-2.9,1.65,1.65,0,0,0-2.232-.682,1.572,1.572,0,0,0-.149.089c-1.134.812-1.092,3.327-.725,4.514.025.1.736,1.644.733,1.631l.027-.007c0,.4.01.82.03,1.287.039.856.093,1.825.224,2.876a29.252,29.252,0,0,0,.579,3.368,21.628,21.628,0,0,0,1.171,3.627l.01.04c-.263-.294-1.042-1.144-1.109-1.2-.943-.812-3.259-1.824-4.43-1.1a1.647,1.647,0,0,0-.487,2.278,1.749,1.749,0,0,0,.106.147,3.432,3.432,0,0,0,2.722,1.034,11.507,11.507,0,0,0,3.279-1.02,28.982,28.982,0,0,0,1.858,3.426c.4.645.818,1.281,1.249,1.915-.241-.26-.467-.487-.476-.521-.943-.813-3.242-1.828-4.43-1.1a1.647,1.647,0,0,0-.487,2.278,1.758,1.758,0,0,0,.107.147,3.431,3.431,0,0,0,2.722,1.034,11.146,11.146,0,0,0,3.189-.981c.166.242.332.483.5.724.81,1.152,1.622,2.3,2.381,3.449.271.405.519.816.776,1.238-.213-.23-.4-.422-.427-.447-.943-.812-3.259-1.824-4.43-1.1a1.647,1.647,0,0,0-.487,2.278,1.691,1.691,0,0,0,.107.147,3.437,3.437,0,0,0,2.721,1.034,10.28,10.28,0,0,0,3.106-.944c.244.426.492.85.707,1.275.143.293.3.565.428.865s.261.592.392.88c.227.568.466,1.154.674,1.715.15.387.283.76.42,1.136-.265-.407-.794-1.191-.847-1.254a6.4,6.4,0,0,0-2.77-1.764,1.936,1.936,0,0,0-.257-.256,1.651,1.651,0,0,0-2.328.165c-.038.044-.074.09-.108.138-.764,1.167.178,3.5.959,4.467.049.056.615.62.983.97-.249-.173-.484-.345-.745-.536-.5-.347-1.012-.683-1.567-1.054l-.825-.5c-.271-.175-.577-.32-.871-.485-.683-.363-1.4-.7-2.119-1.022a10.525,10.525,0,0,0,1.537-2.94,3.436,3.436,0,0,0-.524-2.852,1.65,1.65,0,0,0-2.326-.19,1.681,1.681,0,0,0-.128.121c-.933,1.035-.355,3.482.268,4.546.04.065.576.788.88,1.178-.438-.193-.873-.386-1.322-.562-1.292-.515-2.617-1-3.939-1.486l-1.2-.409a11.483,11.483,0,0,0,1.6-3.037,3.446,3.446,0,0,0-.524-2.852,1.651,1.651,0,0,0-2.326-.19,1.594,1.594,0,0,0-.128.122c-.93,1.034-.355,3.481.271,4.545.047.081.819,1.118,1.027,1.371-.885-.333-1.762-.676-2.618-1.048a28.448,28.448,0,0,1-3.355-1.7,11.583,11.583,0,0,0,1.614-3.051,3.437,3.437,0,0,0-.524-2.852,1.65,1.65,0,0,0-2.326-.19,1.6,1.6,0,0,0-.128.122c-.93,1.034-.355,3.482.271,4.545.04.069.628.861.916,1.231l-.054.058a21.42,21.42,0,0,1-3.014-2.3c-.518-.461-.989-.933-1.438-1.4a11.42,11.42,0,0,0,1.889-2.8,3.39,3.39,0,0,0-.21-2.893,1.647,1.647,0,0,0-2.287-.444c-.049.033-.1.069-.141.107-1.04.929-.737,3.425-.232,4.563.015.064.376.657.636,1.09-.2-.213-.409-.433-.6-.642-.7-.787-1.3-1.55-1.815-2.23-.3-.389-.553-.747-.79-1.082a11.111,11.111,0,0,0,.385-3.336,3.455,3.455,0,0,0-1.522-2.482,1.65,1.65,0,0,0-2.238.664,1.624,1.624,0,0,0-.075.156c-.494,1.306.925,3.376,1.9,4.167.087.068,1.518.966,1.527.943a.1.1,0,0,0-.007-.027c.222.331.466.679.738,1.055.515.692,1.087,1.474,1.772,2.276a29.077,29.077,0,0,0,2.35,2.489,21.448,21.448,0,0,0,2.985,2.388l.041.022c-.381-.113-1.506-.381-1.591-.393-1.234-.157-3.71.265-4.3,1.526a1.647,1.647,0,0,0,.834,2.175,1.733,1.733,0,0,0,.186.069,3.486,3.486,0,0,0,2.833-.625,11.508,11.508,0,0,0,2.172-2.662,29.11,29.11,0,0,0,3.434,1.844c.687.319,1.387.617,2.1.907l-.694-.166c-1.235-.156-3.714.266-4.3,1.527a1.65,1.65,0,0,0,.841,2.177,1.577,1.577,0,0,0,.179.067,3.484,3.484,0,0,0,2.831-.629,10.847,10.847,0,0,0,2.12-2.58l.817.328c1.31.515,2.62,1.026,3.91,1.574.447.186.881.391,1.317.591-.3-.075-.562-.132-.6-.137-1.235-.16-3.711.262-4.3,1.523a1.651,1.651,0,0,0,.843,2.177,1.615,1.615,0,0,0,.18.067,3.484,3.484,0,0,0,2.832-.628,10.086,10.086,0,0,0,2.068-2.5c.441.22.878.438,1.293.671.282.165.563.305.822.49l.829.516c.5.348,1.024.7,1.509,1.068.34.244.657.479.974.717-.441-.191-1.319-.552-1.4-.576-1.2-.343-3.707-.3-4.484.856a1.651,1.651,0,0,0,.516,2.277,1.7,1.7,0,0,0,.152.085,3.455,3.455,0,0,0,2.894-.19,11.492,11.492,0,0,0,2.538-2.291C77.613,350.3,78.111,350.691,78.584,351.064Z" transform="translate(-45.529 -310.258)" fill="#3c2ab6"/>
        </g>
      </g>
    </g>
    <g id="Background_Simple" data-name="Background Simple" transform="translate(-18933.756 7586)">
      <g id="Group_3010" data-name="Group 3010" transform="translate(0 0)">
        <path id="Path_4986" data-name="Path 4986" d="M338.659,39.162c-30.172-17.861-70.321-11.574-98.6,9.867-20.227,15.337-39,33.207-62.079,43.767-17.736,8.113-38.006,12.009-51.238,27.408-20.717,24.111-17.955,58.1-3.567,84.647,16.695,30.8,46.99,44.647,80.768,49.052,33.647,4.387,69.089-.654,98.612-17.974,39.341-23.08,60.425-67.193,67.92-110.844C376.13,92.176,369.218,57.252,338.659,39.162Z" transform="translate(-111.796 -28.744)" fill="#211572"/>
        <path id="Path_4987" data-name="Path 4987" d="M338.659,39.162c-30.172-17.861-70.321-11.574-98.6,9.867-20.227,15.337-39,33.207-62.079,43.767-17.736,8.113-38.006,12.009-51.238,27.408-20.717,24.111-17.955,58.1-3.567,84.647,16.695,30.8,46.99,44.647,80.768,49.052,33.647,4.387,69.089-.654,98.612-17.974,39.341-23.08,60.425-67.193,67.92-110.844C376.13,92.176,369.218,57.252,338.659,39.162Z" transform="translate(-111.796 -28.744)" fill="#fff" opacity="0.7"/>
      </g>
    </g>
    <g id="Interface" transform="translate(-18932.969 7612.763)">
      <g id="Capa_6" data-name="Capa 6" transform="translate(0 0)">
        <g id="Group_3011" data-name="Group 3011">
          <path id="Path_4988" data-name="Path 4988" d="M378.36,88.962V256.34a7.828,7.828,0,0,1-7.828,7.827H121.169a7.827,7.827,0,0,1-7.827-7.827V88.962c0-.112,0-.223.009-.331a7.825,7.825,0,0,1,7.416-7.488c.134,0,.268-.009.4-.009H370.532c.134,0,.268,0,.4.009a7.825,7.825,0,0,1,7.416,7.488C378.355,88.739,378.36,88.85,378.36,88.962Z" transform="translate(-113.342 -81.135)" fill="#fff" stroke="#263238" stroke-linecap="round" stroke-linejoin="round" stroke-width="1"/>
          <path id="Path_4989" data-name="Path 4989" d="M378.359,88.632h-265a7.825,7.825,0,0,1,7.416-7.488c.134,0,.268-.009.4-.009H370.541c.134,0,.268,0,.4.009A7.825,7.825,0,0,1,378.359,88.632Z" transform="translate(-113.35 -81.135)" fill="#3c2ab6" stroke="#263238" stroke-width="1"/>
          <path id="Path_4990" data-name="Path 4990" d="M137.555,87.3a1.227,1.227,0,1,1-1.227-1.227A1.227,1.227,0,0,1,137.555,87.3Z" transform="translate(-123.986 -83.55)" fill="#263238"/>
          <path id="Path_4991" data-name="Path 4991" d="M147.015,87.3a1.227,1.227,0,1,1-1.227-1.227A1.227,1.227,0,0,1,147.015,87.3Z" transform="translate(-128.614 -83.55)" fill="#263238"/>
          <path id="Path_4992" data-name="Path 4992" d="M156.475,87.3a1.227,1.227,0,1,1-1.226-1.227A1.227,1.227,0,0,1,156.475,87.3Z" transform="translate(-133.242 -83.55)" fill="#263238"/>
        </g>
      </g>
      <g id="Group_3012" data-name="Group 3012" transform="translate(7.081 76.258)">
        <circle id="Ellipse_87" data-name="Ellipse 87" cx="6.288" cy="6.288" r="6.288" fill="#fff" stroke="#263238" stroke-linecap="round" stroke-linejoin="round" stroke-width="1"/>
        <path id="Path_4993" data-name="Path 4993" d="M138.847,235.464l-3.11,3.712,3.11,3.014" transform="translate(-131.379 -232.887)" fill="#fff" stroke="#263238" stroke-linecap="round" stroke-linejoin="round" stroke-width="1"/>
      </g>
    </g>
    <g id="Progress_bar" data-name="Progress bar" transform="translate(-18905.664 7762.801)">
      <g id="Group_3029" data-name="Group 3029" transform="translate(0 0)">
        <g id="Group_3018" data-name="Group 3018" transform="translate(109.539 13.905)">
          <g id="Group_3015" data-name="Group 3015">
            <g id="Group_3013" data-name="Group 3013">
              <path id="Path_4994" data-name="Path 4994" d="M385.481,402.133A3.671,3.671,0,0,0,387.832,406v5.361s-4.778.933-5.915.251c-.773-.464-.741-2.89-.64-4.4a1.412,1.412,0,0,1,1.294-1.314l1.545-.129S383.737,401.526,385.481,402.133Z" transform="translate(-381.224 -402.074)" fill="#263238"/>
              <rect id="Rectangle_714" data-name="Rectangle 714" width="1.744" height="5.688" transform="translate(7.316 3.7)" fill="#263238"/>
            </g>
            <g id="Group_3014" data-name="Group 3014" transform="translate(11.625 3.901)">
              <path id="Path_4995" data-name="Path 4995" d="M406.334,413.071v.452a1.176,1.176,0,1,1-2.352,0v-.146l.71-.069v.159c0,.39.167.557.452.557a.425.425,0,0,0,.452-.487v-.508c0-.389-.167-.557-.556-.557h-.293v-.7h.244c.389,0,.557-.167.557-.557v-.375a.388.388,0,0,0-.418-.439c-.264,0-.417.153-.417.508v.111H404v-.167a1.141,1.141,0,1,1,2.282,0v.32a1.093,1.093,0,0,0,.049,1.893Z" transform="translate(-403.982 -409.71)" fill="#263238"/>
              <path id="Path_4996" data-name="Path 4996" d="M409.747,413.544v-2.658a1.183,1.183,0,0,1,2.366,0v2.658a1.183,1.183,0,0,1-2.366,0Zm1.628,0v-2.658a.447.447,0,1,0-.891,0v2.658a.447.447,0,1,0,.891,0Z" transform="translate(-406.802 -409.71)" fill="#263238"/>
              <path id="Path_4997" data-name="Path 4997" d="M419.554,412.713l-.278.536v1.468h-.738v-4.871h.738v1.976l.974-1.976h.794l-1.037,2.067,1.113,2.8h-.793Z" transform="translate(-411.102 -409.777)" fill="#263238"/>
            </g>
          </g>
          <g id="Group_3017" data-name="Group 3017" transform="translate(28.931 2.752)">
            <path id="Path_4998" data-name="Path 4998" d="M442.118,417.192a3.673,3.673,0,0,1,2.351-3.868v-5.362s-4.778-.933-5.915-.25c-.773.464-.741,2.89-.64,4.4a1.412,1.412,0,0,0,1.294,1.314l1.545.129S440.374,417.8,442.118,417.192Z" transform="translate(-437.861 -407.462)" fill="#263238"/>
            <rect id="Rectangle_715" data-name="Rectangle 715" width="1.744" height="5.688" transform="translate(7.571 0.401)" fill="#263238"/>
            <g id="Group_3016" data-name="Group 3016" transform="translate(12.889 1.152)">
              <path id="Path_4999" data-name="Path 4999" d="M463.929,410.89h-.835v-.515a1.242,1.242,0,0,0,1.058-.536h.514v4.871h-.737Z" transform="translate(-463.094 -409.777)" fill="#263238"/>
              <path id="Path_5000" data-name="Path 5000" d="M468.223,413.955h1.461v.7h-2.339v-.64l1.079-1.719a2.439,2.439,0,0,0,.522-1.35c0-.341-.16-.529-.445-.529s-.445.188-.445.529v.286h-.71V411a1.128,1.128,0,0,1,1.162-1.28,1.1,1.1,0,0,1,1.176,1.2,3.106,3.106,0,0,1-.654,1.747Z" transform="translate(-465.174 -409.717)" fill="#263238"/>
              <path id="Path_5001" data-name="Path 5001" d="M472.975,413.6v-.146l.71-.069v.16c0,.389.167.542.438.542s.438-.153.438-.473v-1.127c0-.286-.153-.425-.389-.425a.444.444,0,0,0-.46.48v.084H473v-2.784h2.109v.7h-1.4v1.211a.8.8,0,0,1,.7-.355.872.872,0,0,1,.883.981V413.6a1.162,1.162,0,1,1-2.324,0Z" transform="translate(-467.928 -409.777)" fill="#263238"/>
            </g>
          </g>
        </g>
        <g id="Group_3019" data-name="Group 3019" transform="translate(52.098 16.546)">
          <path id="Path_5002" data-name="Path 5002" d="M268.777,413.836v-3.752h1.914l2.91-2.833v8.882l-2.412-2.45Z" transform="translate(-268.777 -407.247)" fill="#263238"/>
          <path id="Path_5003" data-name="Path 5003" d="M282.079,413.438a2.825,2.825,0,0,1-1.767,2.624v-5.247A2.826,2.826,0,0,1,282.079,413.438Z" transform="translate(-274.419 -408.99)" fill="#263238"/>
          <path id="Path_5004" data-name="Path 5004" d="M279.744,407.244a4.515,4.515,0,0,1,.278,8.837" transform="translate(-274.142 -407.244)" fill="none" stroke="#263238" stroke-width="1"/>
        </g>
        <g id="Group_3028" data-name="Group 3028">
          <g id="Group_3023" data-name="Group 3023" transform="translate(2.963 17.089)">
            <g id="Group_3020" data-name="Group 3020" transform="translate(16.582 0.252)">
              <path id="Path_5005" data-name="Path 5005" d="M205.881,416.641h0a.832.832,0,0,1-.832-.832v-6.178a.832.832,0,0,1,.832-.832h0a.832.832,0,0,1,.832.832v6.178A.832.832,0,0,1,205.881,416.641Z" transform="translate(-205.049 -408.8)" fill="#263238"/>
              <path id="Path_5006" data-name="Path 5006" d="M212.393,416.641h0a.832.832,0,0,1-.832-.832v-6.178a.832.832,0,0,1,.832-.832h0a.832.832,0,0,1,.832.832v6.178A.832.832,0,0,1,212.393,416.641Z" transform="translate(-208.235 -408.8)" fill="#263238"/>
            </g>
            <g id="Group_3021" data-name="Group 3021" transform="translate(0 0.33)">
              <path id="Path_5007" data-name="Path 5007" d="M173.426,408.952h0a.838.838,0,0,1,.838.838v6.227a.838.838,0,0,1-.838.838h0a.838.838,0,0,1-.838-.838V409.79A.838.838,0,0,1,173.426,408.952Z" transform="translate(-172.588 -408.952)" fill="#263238"/>
              <path id="Path_5008" data-name="Path 5008" d="M181.62,409.935v6.527a.342.342,0,0,1-.554.268l-4.309-3.409a.342.342,0,0,1,.012-.546l4.309-3.118A.342.342,0,0,1,181.62,409.935Z" transform="translate(-174.564 -409.265)" fill="#263238"/>
            </g>
            <g id="Group_3022" data-name="Group 3022" transform="translate(31.017)">
              <path id="Path_5009" data-name="Path 5009" d="M244.672,416.21h0a.839.839,0,0,1-.828-.848l.075-6.226a.838.838,0,0,1,.848-.828h0a.838.838,0,0,1,.828.848l-.075,6.226A.838.838,0,0,1,244.672,416.21Z" transform="translate(-238.462 -408.307)" fill="#263238"/>
              <path id="Path_5010" data-name="Path 5010" d="M233.308,415.747l.078-6.526a.342.342,0,0,1,.557-.262l4.268,3.46a.342.342,0,0,1-.018.545l-4.346,3.066A.342.342,0,0,1,233.308,415.747Z" transform="translate(-233.308 -408.588)" fill="#263238"/>
            </g>
          </g>
          <g id="Group_3027" data-name="Group 3027">
            <rect id="Rectangle_716" data-name="Rectangle 716" width="154.744" height="10.609" rx="5.304" fill="#fff" stroke="#263238" stroke-linecap="round" stroke-linejoin="round" stroke-width="1"/>
            <g id="Group_3026" data-name="Group 3026" transform="translate(5.593 1.803)">
              <g id="Group_3024" data-name="Group 3024" transform="translate(0 2.293)">
                <path id="Path_5011" data-name="Path 5011" d="M321.869,384.063a1.186,1.186,0,0,1-1.191,1.191H178.928a1.191,1.191,0,1,1,0-2.381h141.75A1.19,1.19,0,0,1,321.869,384.063Z" transform="translate(-177.737 -382.872)" fill="#263238"/>
              </g>
              <path id="Path_5012" data-name="Path 5012" d="M214.769,382.872l-.083,2.381H178.928a1.191,1.191,0,1,1,0-2.381Z" transform="translate(-177.737 -380.579)" fill="#ff771b"/>
              <g id="Group_3025" data-name="Group 3025" transform="translate(33.122)">
                <path id="Path_5013" data-name="Path 5013" d="M249.064,381.627a3.244,3.244,0,1,1-3.244-3.244A3.244,3.244,0,0,1,249.064,381.627Z" transform="translate(-242.577 -378.383)" fill="#263238"/>
                <path id="Path_5014" data-name="Path 5014" d="M248.964,383.393a1.318,1.318,0,1,1-1.317-1.318A1.318,1.318,0,0,1,248.964,383.393Z" transform="translate(-244.412 -380.189)" fill="#fff"/>
              </g>
            </g>
          </g>
        </g>
      </g>
    </g>
    <g id="Window" transform="translate(-18905.664 7626.5)">
      <g id="Group_3031" data-name="Group 3031" transform="translate(0 0)">
        <g id="Group_3030" data-name="Group 3030" transform="translate(0 12.068)">
          <path id="Path_5015" data-name="Path 5015" d="M327.268,139.186v100.2a7.537,7.537,0,0,1-7.535,7.535H174.323a7.533,7.533,0,0,1-7.535-7.535v-100.2a7.124,7.124,0,0,1,.092-1.172,7.539,7.539,0,0,1,7.443-6.363h145.41a7.545,7.545,0,0,1,7.443,6.363A7.121,7.121,0,0,1,327.268,139.186Z" transform="translate(-166.788 -131.651)" fill="#fff" stroke="#263238" stroke-linecap="round" stroke-linejoin="round" stroke-width="1"/>
        </g>
        <rect id="Rectangle_717" data-name="Rectangle 717" width="51.64" height="5.469" transform="translate(2.742)" fill="#211572"/>
      </g>
    </g>
    <g id="Character" transform="translate(-18899.756 7611.379)">
      <g id="Group_3041" data-name="Group 3041" transform="translate(0 0)">
        <g id="Group_3039" data-name="Group 3039">
          <g id="Group_3032" data-name="Group 3032" transform="translate(1.714 42.859)">
            <path id="Path_5016" data-name="Path 5016" d="M207.7,211.6s2.538,9.991,6.963,16.155c6.013,5.6,9.811,5.935,14.4,5.935s6.805-2.308,6.805-2.308l.791-5.44-2.373-8.407s-8.388-9.562-11.394-12.034A36.963,36.963,0,0,1,211.5,186.052c-1.9-9.561-4.906-14.012-4.906-14.012s-1.063-9.406-2.463-9.285-2.916,5.346-2.566,8.688c0,0-3.674-2.673-4.783-3.706s-5.424-6.015-6.182-5.347,1.808,7.413,5.541,10.572a9.357,9.357,0,0,1-4.666-2.248c-1.808-1.823-5.249-5.59-6.824-4.921a1.936,1.936,0,0,0-1.225,2.187s-1.691.486-1.166,3.1c0,0-1.575,2.308.642,5.589a28.011,28.011,0,0,0,10.382,8.445c3.849,1.823,5.424,2.916,6.824,6.137S207.7,211.6,207.7,211.6Z" transform="translate(-181.712 -162.329)" fill="#feb8b7"/>
            <path id="Path_5017" data-name="Path 5017" d="M236.656,225.949l-.509,3.467-.285,1.97s-2.21,2.309-6.8,2.309-8.392-.332-14.406-5.939c-4.42-6.165-6.962-16.151-6.962-16.151s-6.2-17.132-7.592-20.352-2.976-4.314-6.827-6.137a28.108,28.108,0,0,1-10.379-8.446,5.447,5.447,0,0,1-.956-4.915,3.1,3.1,0,0,1,.312-.678c-.522-2.613,1.166-3.1,1.166-3.1a1.935,1.935,0,0,1,1.227-2.182c1.573-.671,5.016,3.093,6.819,4.915a9.334,9.334,0,0,0,4.671,2.253c-3.735-3.164-6.3-9.908-5.545-10.572s5.078,4.315,6.182,5.346,4.786,3.708,4.786,3.708c-.352-3.34,1.166-8.566,2.569-8.693s2.461,9.286,2.461,9.286,3,4.449,4.9,14.011a37.025,37.025,0,0,0,11.4,19.455c3.01,2.472,11.4,12.033,11.4,12.033Z" transform="translate(-181.71 -162.33)" fill="#feb8b7" opacity="0.2"/>
          </g>
          <path id="Path_5018" data-name="Path 5018" d="M259.159,218.626s6.189-8.693,7.22-11.233,5.72-10.354,10.784-10.94a34.793,34.793,0,0,0,9.471-2.637l26.912,1.563s5.682,2.124,10.84,4.085c4.864,1.849,10.277,4.947,10.446,9.786.148,4.235,8.224,19.667,13.878,24.518l-22.192,6.756s-.775,6.447-4.205,9.019c0,0,7.513,17.566,4.419,28.018l-61.1-.224s-2.4-23.958,8.2-32.359c0,0-2.758-6.131-2.945-11.5C270.88,233.473,269,228.394,259.159,218.626Z" transform="translate(-217.882 -134.872)" fill="#92e3a9"/>
          <path id="Path_5019" data-name="Path 5019" d="M236.147,238.443l-2.348,2.495s-.97,1.521-5.068,1.655c-4.587.149-8.061-.2-14.074-5.809-4.42-6.165-6.962-16.151-6.962-16.151s-6.2-17.132-7.592-20.352-2.976-4.314-6.827-6.137A28.108,28.108,0,0,1,182.9,185.7a5.447,5.447,0,0,1-.956-4.915,58.983,58.983,0,0,1,5.606,3.99c3.166,1.907,5.369,3.39,8.6,5.148,6.406,3.5,9.762,10.946,12.2,18.043s4.6,14.71,9.857,19.879a24.676,24.676,0,0,0,10.833,6c2.406.657,5.146,1.208,6.542,3.347A4.749,4.749,0,0,1,236.147,238.443Z" transform="translate(-179.996 -128.497)" fill="#263238" opacity="0.1"/>
          <path id="Path_5020" data-name="Path 5020" d="M322.32,249.219c.445.157,8.28,17.835,4.419,28.018l-34.15-.223-27.483-.337s-1.634-23.686,8.962-32.082c0,0-3.064-6.151-3.254-11.525,0,0-1.79-4.619-11.64-14.385,0,0,6.095-9.181,7.125-11.722s5.45-10.07,10.514-10.656a25.916,25.916,0,0,0,9.294-3.15l26.913,1.568a35.364,35.364,0,0,0,5.508,2.584c1.667.607,3.467.957,5.247,1.632,6.763,2.565,9.969,5.452,10.532,9.654s8.223,19.667,13.877,24.519l-22.412,7.711S324.849,247.164,322.32,249.219Z" transform="translate(-217.89 -134.55)" fill="#ff771b"/>
          <path id="Path_5021" data-name="Path 5021" d="M348.554,253.275s8.078,15.242,4.419,28.018l-34.15-.223a18.474,18.474,0,0,1-.495-6.878c-.691-1.307-.176-2.91-.122-4.4a12.074,12.074,0,0,0-2.129-6.433,23.563,23.563,0,0,1-3.043-6.108c-.556-2.232-.143-4.915,1.64-6.285,1.987-1.518,4.739-.883,7.145-.318a29.222,29.222,0,0,0,12.046.735,14.736,14.736,0,0,0,10.006-6.5,7.379,7.379,0,0,0,1.037-2.606,10.593,10.593,0,0,0-.2-3.453c-.583-3.39-1.295-6.815-.963-10.239.224-2.253.888-4.435,1.18-6.681a20.281,20.281,0,0,0-3.187-13.743c1.43-1.885,1.8-4.746,3.085-6.709,1.667.607,3.552,1.236,5.4,1.709,5.349,1.363,10.351,5.365,10.914,9.567s6.346,17.806,13.492,24.7l-21.846,6.6S352.185,250.727,348.554,253.275Z" transform="translate(-244.124 -138.605)" opacity="0.1"/>
          <g id="Group_3033" data-name="Group 3033" transform="translate(102.576 68.459)">
            <path id="Path_5022" data-name="Path 5022" d="M403.056,242.791s1.583-1.94,3.073-1.552c0,0,3.539,4.753,5.029,6.5a11.161,11.161,0,0,1,1.967,7.518A3.8,3.8,0,0,1,411.441,258c-1.911,1.26-5.781,3.46-9.317,3.321-4.936-.194-13.223-4.074-16.11-10.186s-3.539-14.066-3.539-14.066-3.818-4.171-3.259-8.245,3.1-9.625,3.693-11.215,1.336-3.821,2.36-3.53,2.382,3.887.334,9.9a3.906,3.906,0,0,0,3.019-2.141c1.3-2.134,5.328-11.609,7.849-8.668,0,0,2.32-1.611,3.294-.035,0,0,1.748-1.155,1.8.361a68.08,68.08,0,0,1-.658,7.589s1.849-1.388,1.849,1.716-1.072,8.721-5.076,12.116C397.681,234.915,399.8,240.074,403.056,242.791Z" transform="translate(-379.161 -212.443)" fill="#feb8b8"/>
            <path id="Path_5023" data-name="Path 5023" d="M413.122,255.258a3.825,3.825,0,0,1-1.706,2.758c-1.8,1.183-5.3,3.172-8.627,3.3-.224.007-.447.007-.664,0-4.936-.191-13.226-4.075-16.114-10.183s-3.538-14.067-3.538-14.067-3.817-4.173-3.261-8.248,3.105-9.618,3.695-11.214,1.336-3.82,2.359-3.524,2.386,3.884.332,9.9a3.916,3.916,0,0,0,3.024-2.147c1.3-2.132,5.328-11.609,7.85-8.665,0,0,2.319-1.61,3.295-.035,0,0,1.742-1.158,1.8.36a62.338,62.338,0,0,1-.63,7.379v.007c-.021.134-.027.2-.027.2s1.851-1.391,1.851,1.716-1.071,8.721-5.078,12.111c0,0,2.115,5.162,5.376,7.882a3.755,3.755,0,0,1,2.652-1.605s3.958,4.8,5.449,6.548A11.165,11.165,0,0,1,413.122,255.258Z" transform="translate(-378.854 -212.443)" fill="#263238" opacity="0.2"/>
          </g>
          <g id="Group_3036" data-name="Group 3036" transform="translate(54.535 9.039)">
            <path id="Path_5024" data-name="Path 5024" d="M321.232,123.833l5.746-6.271-.274-7.981-5.062-3.706-25.721-9.406-10.808,18.243s3.694,22.375,6.84,24.513,2.873,8.551,2.873,8.551,4.125,15.942,18.491,17.082c13.3.88,17.834-14.8,17.834-14.8s-7.886-2.794-9.528-7.212S321.232,123.833,321.232,123.833Z" transform="translate(-285.113 -96.292)" fill="#febbba"/>
            <g id="Group_3035" data-name="Group 3035" transform="translate(0.93)">
              <path id="Path_5025" data-name="Path 5025" d="M331.265,149.907s-.907,2.025-2.182,4.638l-.007.014c-2.21,4.527-6.84,10.614-15.68,10.169-14.372-1.137-18.575-17.3-18.575-17.3s.278-6.412-2.868-8.552-6.847-24.511-6.847-24.511L295.92,96.122l10.765,3.934,14.955,5.472,5.064,3.7.271,7.987-5.748,6.271s1.759,14.129,1.1,18.813C321.721,146.576,331.265,149.907,331.265,149.907Z" transform="translate(-285.107 -96.122)" fill="#263238" opacity="0.2"/>
              <g id="Group_3034" data-name="Group 3034" clip-path="url(#clip-path)">
                <path id="Path_5026" data-name="Path 5026" d="M341.1,153.3s-.824,1.992-2.1,4.6l-.007.014-.493.979c-8.826-6.384-12.96-16.23-13.326-27.451-.04-1.137.942-15.265,1.4-15.258C313.32,115.993,305.391,103,305.391,103l11.216.42,14.955,5.472,5.064,3.7.271,7.987-5.748,6.271s.108,14.187,1.1,18.813C333.142,149.859,341.1,153.3,341.1,153.3Z" transform="translate(-295.029 -99.487)" fill="#263238" opacity="0.1"/>
              </g>
            </g>
          </g>
          <path id="Path_5028" data-name="Path 5028" d="M348.23,126.878s1.87-5.042,5.709-4.069,2.07,11.269-1.354,12.241S348.954,133,348.954,133" transform="translate(-261.454 -100.076)" fill="none" stroke="#263238" stroke-linecap="round" stroke-linejoin="round" stroke-width="0.98"/>
          <path id="Path_5029" data-name="Path 5029" d="M311.109,132.433q-.006-.154-.011-.309c.062,1.162.32,2.307.331,3.471a4.316,4.316,0,0,1-1.1,3.188c-.546.518-1.351.9-1.461,1.658a2.023,2.023,0,0,0,.3,1.185,4.914,4.914,0,0,0,1.155,1.56,2.163,2.163,0,0,0,1.774.527" transform="translate(-242.195 -104.694)" fill="none" stroke="#263238" stroke-linecap="round" stroke-linejoin="round" stroke-width="0.98"/>
          <path id="Path_5030" data-name="Path 5030" d="M312.773,156.869s8.029-1.749,9.861-7.448c0,0,1.293,6.059-2.343,8.584C316.211,160.838,312.773,156.869,312.773,156.869Z" transform="translate(-244.109 -113.155)" fill="#fff" stroke="#263238" stroke-linecap="round" stroke-linejoin="round" stroke-width="0.98"/>
          <path id="Path_5031" data-name="Path 5031" d="M289.971,120.57c.921,7.286,1.626,14.539,3.835,21.572,1.518,4.834,4.826,9.59,10.313,9.269,6.628-.388,11.7-1.544,16.049-6.893" transform="translate(-232.955 -99.042)" fill="none" stroke="#263238" stroke-linecap="round" stroke-linejoin="round" stroke-width="0.98"/>
          <path id="Path_5032" data-name="Path 5032" d="M319.9,123.658a4.128,4.128,0,0,1,5.468-.128" transform="translate(-247.593 -100.012)" fill="none" stroke="#263238" stroke-linecap="round" stroke-linejoin="round" stroke-width="0.98"/>
          <path id="Path_5033" data-name="Path 5033" d="M301.867,126.066c-1.2-.517-3.232-.786-5.093,1.829" transform="translate(-236.283 -101.565)" fill="none" stroke="#263238" stroke-linecap="round" stroke-linejoin="round" stroke-width="0.98"/>
          <path id="Path_5034" data-name="Path 5034" d="M290.6,180.668s.263,7.605-2.059,8.814-11.479-1.612-16.381,3.225-10.408,17.669-13.116,19.55" transform="translate(-217.829 -128.441)" fill="none" stroke="#263238" stroke-linecap="round" stroke-linejoin="round" stroke-width="0.98"/>
          <path id="Path_5035" data-name="Path 5035" d="M325.177,133.338c0,1.087-.392,1.969-.876,1.969s-.877-.883-.877-1.969.392-1.975.877-1.975S325.177,132.246,325.177,133.338Z" transform="translate(-249.319 -104.322)" fill="#263238"/>
          <path id="Path_5036" data-name="Path 5036" d="M303.184,135.45c0,1.087-.392,1.969-.876,1.969s-.876-.882-.876-1.969.392-1.975.876-1.975S303.184,134.358,303.184,135.45Z" transform="translate(-238.561 -105.355)" fill="#263238"/>
          <path id="Path_5037" data-name="Path 5037" d="M278.116,102.994s3.51-.922,7.358-12.015c0,0,10.894,14.092,22.606,12.3,0,0,3.245-3.945,6.093-1.011,2.383,2.455.011,10.234-1.99,10.928s-2.659.039-2.659.039-5.6,10.691-.045,19.72,17.336,4.168,21.114-2.778a12.537,12.537,0,0,0,.111-12.5,5.243,5.243,0,0,1,2.778,4.746s2.223-3.936-1.112-9.492c-3.374-5.625-6.949-11.116-10.316-16.746-3.255-5.444-5.683-12.667-11.715-15.576-7.063-3.4-15.879-2.469-22.93.4-5.817,2.369-8.81,8.051-11.142,13.839-1.656,4.108-2.594,8.492-4.343,12.564-1.528,3.557-4.255,6.364-5.808,9.943-4.17,9.6-.312,20.817,8.574,25.337,0,0,.783-1.98,4.449-2.328s4.445-.695,7.89-.579,4.556-.231,5.334-2.316a31.255,31.255,0,0,0,1.023-6.613s-4.5.968-7.7-1.831c-3.222-3.82-4.37-5.842-5.148-10.588S278.116,102.994,278.116,102.994Z" transform="translate(-220.465 -78.427)" fill="#263238"/>
          <path id="Path_5038" data-name="Path 5038" d="M321.085,175.01s-.662,4.364,4.094,3.1,9.91-9.42,9.91-9.42A24.813,24.813,0,0,1,321.085,175.01Z" transform="translate(-248.16 -122.581)" fill="#263238"/>
          <path id="Path_5039" data-name="Path 5039" d="M270.823,326.123s-3.292-21.319,8.657-32.407" transform="translate(-223.385 -183.741)" fill="none" stroke="#263238" stroke-linecap="round" stroke-linejoin="round" stroke-width="0.98"/>
          <path id="Path_5040" data-name="Path 5040" d="M285.846,272.483c-4.2-6.52-5.773-17.738.326-23.611" transform="translate(-229.12 -161.805)" fill="none" stroke="#263238" stroke-linecap="round" stroke-linejoin="round" stroke-width="0.98"/>
          <path id="Path_5041" data-name="Path 5041" d="M349.516,172.586s1.046,11.262,14.473,15.077c10.784,3.064,13.242,6.548,13.925,7.912" transform="translate(-262.083 -124.487)" fill="none" stroke="#263238" stroke-linecap="round" stroke-linejoin="round" stroke-width="0.98"/>
          <path id="Path_5042" data-name="Path 5042" d="M304.642,197.994s5.46,16.559,20.012,16.779c10.626.161,16.107-14.872,16.107-14.872" transform="translate(-240.132 -136.916)" fill="none" stroke="#263238" stroke-linecap="round" stroke-linejoin="round" stroke-width="0.98"/>
          <path id="Path_5043" data-name="Path 5043" d="M307.735,297.982c7.6,3.26,16.026,3.517,24.24,3.729" transform="translate(-241.645 -185.828)" fill="none" stroke="#263238" stroke-linecap="round" stroke-linejoin="round" stroke-width="0.98"/>
          <path id="Path_5044" data-name="Path 5044" d="M233.172,241.61a7.132,7.132,0,0,1-2.61.895c-6.724,1.131-13-1.091-17.12-6.832-2.294-3.2-3.427-6.811-4.636-10.564-2.679-8.317-5.484-16.536-8.666-24.649a10.023,10.023,0,0,0-1.9-2.9c-1.741-1.445-5.106-3.825-7.689-4.567-3.7-1.064-10.34-9.175-9.191-11.436s7.148,5.451,9.7,6.117" transform="translate(-179.758 -128.673)" fill="none" stroke="#263238" stroke-linecap="round" stroke-linejoin="round" stroke-width="0.98"/>
          <path id="Path_5045" data-name="Path 5045" d="M286.013,227.186A32.744,32.744,0,0,1,287.7,214.2" transform="translate(-230.978 -144.843)" fill="none" stroke="#263238" stroke-linecap="round" stroke-linejoin="round" stroke-width="0.98"/>
          <g id="Group_3037" data-name="Group 3037" transform="translate(52.478 4.17)" opacity="0.42">
            <path id="Path_5046" data-name="Path 5046" d="M318.432,92.917s6.022,10.455,16.56,11.5" transform="translate(-299.356 -89.685)" fill="none" stroke="#fff" stroke-linecap="round" stroke-linejoin="round" stroke-width="0.98"/>
            <path id="Path_5047" data-name="Path 5047" d="M362.171,148.194a33.119,33.119,0,0,0,2.867,20.448" transform="translate(-320.496 -116.725)" fill="none" stroke="#fff" stroke-linecap="round" stroke-linejoin="round" stroke-width="0.98"/>
            <path id="Path_5048" data-name="Path 5048" d="M357.767,107.172c3.422,3.123,6.739,6.45,8.38,10.814,1.523,4.053,1.411,8.536,1.521,12.887s.541,8.926,2.924,12.5" transform="translate(-318.598 -96.658)" fill="none" stroke="#fff" stroke-linecap="round" stroke-linejoin="round" stroke-width="0.98"/>
            <path id="Path_5049" data-name="Path 5049" d="M336.268,86.59q3.591,3.735,7.388,7.249" transform="translate(-308.081 -86.59)" fill="none" stroke="#fff" stroke-linecap="round" stroke-linejoin="round" stroke-width="0.98"/>
            <path id="Path_5050" data-name="Path 5050" d="M284.489,142.572a27.55,27.55,0,0,0-2.332,20.874" transform="translate(-281.088 -113.975)" fill="none" stroke="#fff" stroke-linecap="round" stroke-linejoin="round" stroke-width="0.98"/>
          </g>
          <path id="Path_5051" data-name="Path 5051" d="M192.535,181.628s15.167-22.9,13.558-24.292S189.43,180.1,189.43,180.1s-4.028.776-5.757,2.469-5.791,12.28-5.272,12.616,5.661-8.422,6.131-8.305-2.86,10.515-2.39,10.632,5.894-9.07,6.624-8.786-3.5,10.338-2.8,10.513,7.081-9.009,7.189-11A47.491,47.491,0,0,0,192.535,181.628Z" transform="translate(-178.355 -116.999)" fill="#fff" stroke="#263238" stroke-linecap="round" stroke-linejoin="round" stroke-width="0.98"/>
          <path id="Path_5052" data-name="Path 5052" d="M359.05,228.423a12.907,12.907,0,0,0,2.764-2.857" transform="translate(-266.747 -150.404)" fill="none" stroke="#263238" stroke-linecap="round" stroke-linejoin="round" stroke-width="0.98"/>
          <path id="Path_5053" data-name="Path 5053" d="M334.632,234.072a14.761,14.761,0,0,0,9.825-.015" transform="translate(-254.802 -154.557)" fill="none" stroke="#263238" stroke-linecap="round" stroke-linejoin="round" stroke-width="0.98"/>
          <path id="Path_5054" data-name="Path 5054" d="M392.987,228.394s-3.7-2.614-7.649-1.992c0,0,3.107-9.96.717-10.707-1.628-.508-2.459,2.372-2.857,3.474-.778,2.153-1.723,4.173-2.552,6.3-1.516,3.9-1.256,9.433,1.943,12.384" transform="translate(-276.873 -145.546)" fill="none" stroke="#263238" stroke-linecap="round" stroke-linejoin="round" stroke-width="0.98"/>
          <path id="Path_5055" data-name="Path 5055" d="M414.036,243.542a15.938,15.938,0,0,0,4.428-5.315,15.262,15.262,0,0,0,.922-3.775q.281-1.9.484-3.809a1.621,1.621,0,0,0-.248-1.32.96.96,0,0,0-1.081-.126,2.469,2.469,0,0,0-.858.79,10.43,10.43,0,0,0-1.551,2.925,15.981,15.981,0,0,1-1.177,3.264c-.052.086-.107.169-.164.25" transform="translate(-293.645 -152.127)" fill="none" stroke="#263238" stroke-linecap="round" stroke-linejoin="round" stroke-width="0.98"/>
          <path id="Path_5056" data-name="Path 5056" d="M414.781,222.476a29.608,29.608,0,0,0,1.306-9.441,2.144,2.144,0,0,0-1.906.71,6.329,6.329,0,0,0-1.12,1.847c-1.421,3.14-2.59,6.437-4.242,9.434" transform="translate(-291.093 -144.258)" fill="none" stroke="#263238" stroke-linecap="round" stroke-linejoin="round" stroke-width="0.98"/>
          <path id="Path_5057" data-name="Path 5057" d="M412.162,212.681a1.472,1.472,0,0,0-1.993-.66,3.948,3.948,0,0,0-1.59,1.737c-1.745,3.034-2.794,6.453-4.415,9.555" transform="translate(-288.816 -143.706)" fill="none" stroke="#263238" stroke-linecap="round" stroke-linejoin="round" stroke-width="0.98"/>
          <path id="Path_5058" data-name="Path 5058" d="M402.313,213.651c.14-.724-.688-1.332-1.387-1.21a2.879,2.879,0,0,0-1.663,1.295c-1.424,1.943-2.323,4.243-3.579,6.308s-2.368,3.746-4.668,4.227" transform="translate(-282.383 -143.976)" fill="none" stroke="#263238" stroke-linecap="round" stroke-linejoin="round" stroke-width="0.98"/>
          <path id="Path_5059" data-name="Path 5059" d="M385.259,255.14s1.378,8.18,2.617,12.629c1.206,4.327,11.012,18.563,26.378,9.967a3.8,3.8,0,0,0,1.873-2.628,9.545,9.545,0,0,0-1.662-7.338c-3.306-4.736-10.194-11.481-11.71-15.786" transform="translate(-279.568 -163.326)" fill="none" stroke="#263238" stroke-linecap="round" stroke-linejoin="round" stroke-width="0.98"/>
          <path id="Path_5060" data-name="Path 5060" d="M415.1,256.828a16.413,16.413,0,0,0,2.986,5.046c1.556,1.79,3.474,3.2,5.136,4.88a10.571,10.571,0,0,1,3.346,6.18" transform="translate(-294.163 -165.696)" fill="none" stroke="#263238" stroke-linecap="round" stroke-linejoin="round" stroke-width="0.98"/>
          <path id="Path_5061" data-name="Path 5061" d="M384.408,284.942s-.37,8.285-6.659,10.79" transform="translate(-275.894 -179.449)" fill="none" stroke="#263238" stroke-linecap="round" stroke-linejoin="round" stroke-width="0.98"/>
          <path id="Path_5062" data-name="Path 5062" d="M382.79,302.906s8.118,13.953,4.419,28.018" transform="translate(-278.36 -188.237)" fill="none" stroke="#263238" stroke-linecap="round" stroke-linejoin="round" stroke-width="0.98"/>
          <path id="Path_5063" data-name="Path 5063" d="M216.967,215.272" transform="translate(-197.243 -145.368)" fill="none" stroke="#263238" stroke-linecap="round" stroke-linejoin="round" stroke-width="0.98"/>
          <path id="Path_5064" data-name="Path 5064" d="M182.8,177.142s-.9-2.482.5-3.412,8.553,6.782,10.468,6.649" transform="translate(-180.391 -125.008)" fill="none" stroke="#263238" stroke-linecap="round" stroke-linejoin="round" stroke-width="0.98"/>
          <path id="Path_5065" data-name="Path 5065" d="M185.112,171.63a1.655,1.655,0,0,1,.838-2.057,2.5,2.5,0,0,1,2.292.221,8.377,8.377,0,0,1,1.812,1.607c2.416,2.568,4.854,4.773,8.288,5.14" transform="translate(-181.603 -122.921)" fill="none" stroke="#263238" stroke-linecap="round" stroke-linejoin="round" stroke-width="0.98"/>
          <path id="Path_5066" data-name="Path 5066" d="M204.607,172.96s-6.535-6.33-6.076-9.793,4.8,5.132,9.045,6.8" transform="translate(-188.213 -119.481)" fill="none" stroke="#263238" stroke-linecap="round" stroke-linejoin="round" stroke-width="0.98"/>
          <g id="Group_3038" data-name="Group 3038" transform="translate(17.675 43.46)">
            <path id="Path_5067" data-name="Path 5067" d="M222.145,173.831c-.234-.758-.554-1.6-.727-2.405-.279-1.31-.415-2.647-.584-3.975-.118-.928-.321-4.74-2.037-3.668-2.717,1.7-1.9,11.322-1.9,11.322-3.261,1.981-3.94,6.652-3.94,6.652" transform="translate(-212.955 -163.549)" fill="#feb8b8"/>
            <path id="Path_5068" data-name="Path 5068" d="M222.145,173.822a13.493,13.493,0,0,1-.727-2.486c-.279-1.309-.415-2.647-.584-3.975-.118-.928-.321-4.74-2.037-3.668-2.717,1.7-1.9,11.323-1.9,11.323-3.261,1.981-3.94,6.652-3.94,6.652" transform="translate(-212.955 -163.505)" fill="#feb8b8" opacity="0.2"/>
          </g>
          <path id="Path_5069" data-name="Path 5069" d="M222.242,173.091a10.794,10.794,0,0,1-.778-2.207c-.279-1.309-.415-2.647-.584-3.975-.118-.927-.32-4.74-2.036-3.668-2.718,1.7-1.9,11.323-1.9,11.323-3.261,1.981-3.94,6.652-3.94,6.652" transform="translate(-195.303 -119.824)" fill="none" stroke="#263238" stroke-linecap="round" stroke-linejoin="round" stroke-width="0.98"/>
          <path id="Path_5070" data-name="Path 5070" d="M256.949,227.361c-1.3-4.753-14.667-14.366-19-24.233a65.084,65.084,0,0,1-2.667-8.657,102.245,102.245,0,0,0-3.561-10.335c-.2-.5-.418-.967-.626-1.432" transform="translate(-204.152 -129.436)" fill="none" stroke="#263238" stroke-linecap="round" stroke-linejoin="round" stroke-width="0.98"/>
          <path id="Path_5071" data-name="Path 5071" d="M422.1,266c-1.8,1.183-5.3,3.172-8.627,3.3a27.205,27.205,0,0,1-2.908-2.119c-5.83-4.872-9.925-12.407-9.545-20.189a9.859,9.859,0,0,1,1.3-4.845c1.417-2.217,3.966-3.242,5.512-5.325,1.769-2.387,1.756-5.621,3.783-7.959-.02.134-.027.2-.027.2s1.851-1.391,1.851,1.716-1.071,8.721-5.078,12.111c0,0,2.115,5.162,5.376,7.881a4.237,4.237,0,0,1,2.585-1.655s4.024,4.853,5.516,6.6a11.164,11.164,0,0,1,1.967,7.521A3.825,3.825,0,0,1,422.1,266Z" transform="translate(-287.249 -151.963)" fill="#263238" opacity="0.1"/>
          <path id="Path_5072" data-name="Path 5072" d="M269.214,239.3c0-.356,7.005-7.8,8.828-15.627,0,0-.174,7.744-.275,9.02,0,0-.017.277-.014.369.15,4.2.571,4.933.571,4.933s-2.618,6.049-2.618,8.3Z" transform="translate(-222.801 -149.475)" opacity="0.1"/>
        </g>
        <g id="Group_3040" data-name="Group 3040" transform="translate(43.79 84.432)">
          <path id="Path_5073" data-name="Path 5073" d="M305.1,336.158c.928-2.763,1.724-17.82-.265-20.169s-39.2-3.334-40.314.276c-1.366,4.414.885,19.868.885,19.868Z" transform="translate(-264.079 -278.039)" fill="#211572"/>
          <path id="Path_5074" data-name="Path 5074" d="M343.808,330.025a4.257,4.257,0,0,1,4.774-1.18c1.877.758,2.033,3.4,1.533,5.156-.778,2.734-3.225,6.556-6.383,6.136" transform="translate(-303.043 -285.216)" fill="none" stroke="#211572" stroke-linecap="round" stroke-linejoin="round" stroke-width="2.939"/>
          <path id="Path_5075" data-name="Path 5075" d="M300.017,305.12a3.669,3.669,0,0,0,1.013-2.62,6.692,6.692,0,0,0-.817-3.427,9.887,9.887,0,0,0-.914-1.336q-.538-.684-1.129-1.321c-.045-.049-.132-.048-.164-.107s.114-.062.059-.026" transform="translate(-280.673 -269.416)" fill="none" stroke="#263238" stroke-linecap="round" stroke-linejoin="round" stroke-width="0.98"/>
          <path id="Path_5076" data-name="Path 5076" d="M320.15,276.554a10.51,10.51,0,0,0,4.142-9.939" transform="translate(-291.507 -254.916)" fill="none" stroke="#263238" stroke-linecap="round" stroke-linejoin="round" stroke-width="0.98"/>
          <path id="Path_5077" data-name="Path 5077" d="M322.338,249.678s-1.459-4.094-4.6-5.966" transform="translate(-290.326 -243.712)" fill="none" stroke="#263238" stroke-linecap="round" stroke-linejoin="round" stroke-width="0.98"/>
          <path id="Path_5078" data-name="Path 5078" d="M305.286,336.256c.929-2.763,1.724-17.82-.265-20.169s-39.2-3.334-40.314.276c-1.366,4.414.884,19.868.884,19.868Z" transform="translate(-264.267 -278.087)" fill="#fff" opacity="0.2"/>
          <path id="Path_5079" data-name="Path 5079" d="M305.1,336.158c.928-2.763,1.724-17.82-.265-20.169s-39.2-3.334-40.314.276c-1.366,4.414.885,19.868.885,19.868Z" transform="translate(-264.079 -278.039)" fill="none" stroke="#263238" stroke-linecap="round" stroke-linejoin="round" stroke-width="0.98"/>
          <path id="Path_5080" data-name="Path 5080" d="M305.017,317.868c0,.308-8.131.556-18.16.556s-18.16-.249-18.16-.556,8.131-.556,18.16-.556S305.017,317.561,305.017,317.868Z" transform="translate(-266.337 -279.715)" fill="#263238"/>
          <path id="Path_5081" data-name="Path 5081" d="M305.728,255.89a5.343,5.343,0,0,1,2.7,4.33,5.4,5.4,0,0,1-2.194,4.629c-1.874,1.321-4.317,1.176-6.56,1.494s-4.78,1.6-5.021,3.941a5.065,5.065,0,0,0,1.086,3.323,34.332,34.332,0,0,0,3.98,4.183,9.631,9.631,0,0,1,2.934,4.931c.334,1.935-.53,4.206-2.313,4.853,1.111,0,2.251.107,3.362.107,2.2,0,2.984-3.52,2.776-5.8a8.564,8.564,0,0,0-3.257-5.75,14.29,14.29,0,0,1-2.591-2.184,2.713,2.713,0,0,1-.277-3.2c.889-1.116,2.564-.744,3.953-.841,2.916-.2,5.251-3.124,5.413-6.164A9.69,9.69,0,0,0,305.728,255.89Z" transform="translate(-279.026 -249.669)" fill="#fff" stroke="#263238" stroke-linecap="round" stroke-linejoin="round" stroke-width="0.98"/>
        </g>
      </g>
    </g>
    <g id="Videos" transform="translate(-18773.693 7632.109)">
      <g id="Group_3051" data-name="Group 3051" transform="translate(0 0)">
        <g id="Group_3044" data-name="Group 3044">
          <rect id="Rectangle_718" data-name="Rectangle 718" width="31.836" height="3.163" transform="translate(63.895 8.648)" fill="#263238"/>
          <rect id="Rectangle_719" data-name="Rectangle 719" width="31.836" height="3.163" transform="translate(63.895 14.762)" fill="#263238"/>
          <rect id="Rectangle_720" data-name="Rectangle 720" width="31.836" height="3.162" transform="translate(63.895 20.876)" fill="#263238"/>
          <g id="Group_3043" data-name="Group 3043">
            <rect id="Rectangle_721" data-name="Rectangle 721" width="55.774" height="34.894" rx="8.91" transform="translate(0 2.686)" opacity="0.1"/>
            <g id="Group_3042" data-name="Group 3042" transform="translate(3.715)">
              <rect id="Rectangle_722" data-name="Rectangle 722" width="55.774" height="34.894" rx="8.91" fill="#ff771b" stroke="#263238" stroke-width="1"/>
              <circle id="Ellipse_88" data-name="Ellipse 88" cx="11.807" cy="11.807" r="11.807" transform="translate(16.103 5.801)" fill="#fff"/>
              <path id="Path_5082" data-name="Path 5082" d="M480.487,154.344V141.306l10.363,6.519Z" transform="translate(-455.93 -129.916)" fill="#263238"/>
            </g>
          </g>
        </g>
        <g id="Group_3047" data-name="Group 3047" transform="translate(0 45.477)">
          <rect id="Rectangle_723" data-name="Rectangle 723" width="31.836" height="3.163" transform="translate(63.895 9.369)" fill="#263238"/>
          <rect id="Rectangle_724" data-name="Rectangle 724" width="31.836" height="3.163" transform="translate(63.895 15.483)" fill="#263238"/>
          <rect id="Rectangle_725" data-name="Rectangle 725" width="31.836" height="3.163" transform="translate(63.895 21.597)" fill="#263238"/>
          <g id="Group_3046" data-name="Group 3046">
            <rect id="Rectangle_726" data-name="Rectangle 726" width="55.774" height="34.894" rx="8.91" transform="translate(0 2.489)" opacity="0.1"/>
            <g id="Group_3045" data-name="Group 3045" transform="translate(3.715)">
              <rect id="Rectangle_727" data-name="Rectangle 727" width="55.774" height="34.894" rx="8.91" fill="#ff771b" stroke="#263238" stroke-width="1"/>
              <circle id="Ellipse_89" data-name="Ellipse 89" cx="11.807" cy="11.807" r="11.807" transform="translate(12.521 11.245) rotate(-22.169)" fill="#fff"/>
              <path id="Path_5083" data-name="Path 5083" d="M480.487,243.6V230.56l10.363,6.519Z" transform="translate(-455.93 -219.053)" fill="#263238"/>
            </g>
          </g>
        </g>
        <g id="Group_3050" data-name="Group 3050" transform="translate(0 90.954)">
          <rect id="Rectangle_728" data-name="Rectangle 728" width="31.836" height="3.163" transform="translate(63.895 9.025)" fill="#263238"/>
          <rect id="Rectangle_729" data-name="Rectangle 729" width="31.836" height="3.163" transform="translate(63.895 15.139)" fill="#263238"/>
          <rect id="Rectangle_730" data-name="Rectangle 730" width="31.836" height="3.163" transform="translate(63.895 21.253)" fill="#263238"/>
          <g id="Group_3049" data-name="Group 3049">
            <rect id="Rectangle_731" data-name="Rectangle 731" width="55.774" height="34.894" rx="8.91" transform="translate(0 2.028)" opacity="0.1"/>
            <g id="Group_3048" data-name="Group 3048" transform="translate(3.715)">
              <rect id="Rectangle_732" data-name="Rectangle 732" width="55.774" height="34.894" rx="8.91" fill="#ff771b" stroke="#263238" stroke-width="1"/>
              <circle id="Ellipse_90" data-name="Ellipse 90" cx="11.807" cy="11.807" r="11.807" transform="translate(12.502 11.405) rotate(-22.334)" fill="#fff"/>
              <path id="Path_5084" data-name="Path 5084" d="M480.487,332.851V319.813l10.363,6.519Z" transform="translate(-455.93 -308.191)" fill="#263238"/>
            </g>
          </g>
        </g>
      </g>
    </g>
  </g>
</svg>
