<svg xmlns="http://www.w3.org/2000/svg" xmlns:xlink="http://www.w3.org/1999/xlink" width="356.341" height="229.19" viewBox="0 0 356.341 229.19">
  <defs>
    <clipPath id="clip-path">
      <path id="Path_5264" data-name="Path 5264" d="M192.661,116.977a41.662,41.662,0,1,1-83.323,0c0-23.009,18.652-49.752,41.662-49.752S192.661,93.968,192.661,116.977Z" transform="translate(-109.338 -67.225)" fill="none"/>
    </clipPath>
  </defs>
  <g id="Group_3153" data-name="Group 3153" transform="translate(-67.726 -45.226)">
    <path id="Path_5131" data-name="Path 5131" d="M417.929,257.519c-15.083,22.879-40.943,36.327-68.345,36.327H122.139c-45.717,0-71.352-53.451-41.7-83.549s3.461-55.8,49.191-79.939c44.3-23.383,59.43,26.459,100.244-6.153s100.235-29.536,113.29,3.692,9.979,44.922,37.668,52.3,54.765,49.226,38.151,75.685Q418.461,256.711,417.929,257.519Z" transform="translate(0 -23.558)" fill="#bdcae0"/>
    <g id="Group_3089" data-name="Group 3089" transform="translate(95.374 163.587)">
      <g id="Group_3085" data-name="Group 3085" transform="translate(212.434 64.312)">
        <path id="Path_5132" data-name="Path 5132" d="M581.783,375.6c-23.961,2.032-40.112,46.945-100.01,19.949,0,0,6.577-19.607,36.04-31.828S581.783,375.6,581.783,375.6Z" transform="translate(-481.773 -360.267)" fill="#cddcf4"/>
        <path id="Path_5133" data-name="Path 5133" d="M495.879,402.155a166.9,166.9,0,0,1,19.364-8.492c1.648-.633,3.319-1.2,5-1.758,1.669-.579,3.36-1.09,5.048-1.613,1.683-.542,3.395-.983,5.1-1.445.854-.227,1.7-.469,2.562-.684l2.58-.619,2.586-.593,2.6-.513,2.6-.511c.869-.166,1.745-.3,2.62-.429,1.752-.258,3.5-.552,5.261-.721s3.514-.437,5.287-.5a88.544,88.544,0,0,1,21.149.781,142.939,142.939,0,0,0-20.966,1.1l-1.3.148-1.294.2-2.591.378c-1.73.222-3.443.569-5.16.879-.856.168-1.72.288-2.575.466l-2.564.532-2.564.533-2.547.611-2.554.584c-.849.2-1.693.433-2.539.649l-2.537.656c-.847.215-1.682.477-2.528.7-1.686.463-3.376.914-5.047,1.435s-3.358.986-5.026,1.521C509.16,397.53,502.53,399.824,495.879,402.155Z" transform="translate(-487.7 -370.232)" fill="#b0bdd1"/>
      </g>
      <g id="Group_3086" data-name="Group 3086" transform="translate(201.462 3.041)">
        <path id="Path_5134" data-name="Path 5134" d="M576.765,254.773c-29.235,20.9-15.711,90.931-113.274,101.959,0,0-6.513-30.212,22.017-68.4S576.765,254.773,576.765,254.773Z" transform="translate(-462.85 -254.597)" fill="#dbe9ff"/>
        <path id="Path_5135" data-name="Path 5135" d="M475.148,355.946a163.959,163.959,0,0,1,15.416-26.286,185.126,185.126,0,0,1,19.693-23.39A162.242,162.242,0,0,1,533.712,286.6a105.476,105.476,0,0,1,27.194-13.8,169.707,169.707,0,0,0-25.241,16.468,243.969,243.969,0,0,0-22.406,19.986,300.087,300.087,0,0,0-20.071,22.392C486.868,339.466,480.928,347.6,475.148,355.946Z" transform="translate(-468.017 -262.248)" fill="#cddcf4"/>
      </g>
      <g id="Group_3087" data-name="Group 3087" transform="translate(0 61.192)">
        <path id="Path_5136" data-name="Path 5136" d="M115.408,367.1c23.758,3.714,36.707,49.654,98.357,26.942,0,0-5.18-20.021-33.709-34.286S115.408,367.1,115.408,367.1Z" transform="translate(-115.408 -354.885)" fill="#cddcf4"/>
        <path id="Path_5137" data-name="Path 5137" d="M213.148,398.856c-6.47-2.794-12.922-5.549-19.447-8.1-1.626-.651-3.273-1.246-4.907-1.872s-3.284-1.206-4.933-1.786c-.828-.281-1.642-.6-2.471-.875l-2.486-.833c-.829-.274-1.654-.564-2.487-.826l-2.506-.762-2.5-.788-2.519-.713-2.52-.711c-.84-.238-1.694-.419-2.536-.647-1.691-.43-3.375-.9-5.085-1.24l-2.558-.56-1.277-.289-1.286-.239a142.969,142.969,0,0,0-20.836-2.574,88.563,88.563,0,0,1,21.151.71c1.764.191,3.494.568,5.238.874s3.468.709,5.2,1.09c.863.195,1.729.386,2.584.612l2.562.693,2.562.7,2.538.773,2.53.8c.84.275,1.672.576,2.508.862,1.669.582,3.346,1.142,4.986,1.8,1.647.64,3.3,1.269,4.922,1.964,1.633.671,3.26,1.357,4.86,2.105A166.8,166.8,0,0,1,213.148,398.856Z" transform="translate(-122.713 -363.629)" fill="#b0bdd1"/>
      </g>
      <g id="Group_3088" data-name="Group 3088" transform="translate(15.794)">
        <path id="Path_5138" data-name="Path 5138" d="M142.646,249.353c26.326,21.775,8.811,87.286,100.6,104.275,0,0,8.2-28.215-16.3-66.34S142.646,249.353,142.646,249.353Z" transform="translate(-142.646 -249.353)" fill="#dbe9ff"/>
        <path id="Path_5139" data-name="Path 5139" d="M251.6,353.347c-4.961-8.286-10.068-16.381-15.55-24.2-5.5-7.8-11.32-15.355-17.545-22.555a235.356,235.356,0,0,0-19.884-20.46,163.952,163.952,0,0,0-22.782-17.369A99.337,99.337,0,0,1,200.752,283.6a152.964,152.964,0,0,1,20.954,20.213,174.383,174.383,0,0,1,17.1,23.524A153.54,153.54,0,0,1,251.6,353.347Z" transform="translate(-156.59 -257.508)" fill="#cddcf4"/>
      </g>
    </g>
    <g id="Group_3097" data-name="Group 3097" transform="translate(241.837 117.544)">
      <g id="Group_3090" data-name="Group 3090" transform="translate(0 72.977)">
        <path id="Path_5140" data-name="Path 5140" d="M397.725,354.532c-3.3,3.913-6.283,10.4-8.136,11.432s-4.98,1.388-7.933,10.9,11.959,8.206,11.959,8.206a22,22,0,0,0,8.951-12.51l6.386-5.664Z" transform="translate(-373.574 -320.478)" fill="#f6a397"/>
        <path id="Path_5141" data-name="Path 5141" d="M389.637,391.862a23.9,23.9,0,0,0,8.92-5.9c4.11-4.341,4.64-12.063,4.64-12.063l1.968,3.678,3.937-4.208,1.9-.183,1.4,1.54-6.386,5.664a22,22,0,0,1-8.951,12.51,23.706,23.706,0,0,1-7.589-.679C389.563,392,389.637,391.862,389.637,391.862Z" transform="translate(-377.021 -328.317)" fill="#d65863"/>
        <path id="Path_5142" data-name="Path 5142" d="M428.613,295.8c-4.568,3.339-7.293,5.762-9.565,10.3s-16.505,20.863-17.414,22.318,8,16.9,15.129,20.685c0,0,10.764-12.416,16.972-17.111s4.088-21.35,1.212-26.953A43.762,43.762,0,0,0,428.613,295.8Z" transform="translate(-382.104 -295.802)" fill="#5470d3"/>
        <path id="Path_5143" data-name="Path 5143" d="M435.345,340.9v-9.271s1.208-.484,2.151,2.645a8.59,8.59,0,0,1,.179,3.7l6.93-5.212c.287,5.835-.649,11.77-3.971,14.281-6.208,4.694-16.972,17.111-16.972,17.111a22.481,22.481,0,0,1-5.673-4.82C422.371,354.966,430.687,346.542,435.345,340.9Z" transform="translate(-389.003 -310.842)" fill="#314ec6"/>
        <path id="Path_5144" data-name="Path 5144" d="M370.06,400.874c-1.186.37-2.061.936-2.061,2.43a12.1,12.1,0,0,0,.823,4.789c.566.927,3.492,1.482,3.492,1.482s-.2-6.168-.814-7.3A2.884,2.884,0,0,0,370.06,400.874Z" transform="translate(-367.999 -339.949)" fill="#f6a397"/>
        <path id="Path_5145" data-name="Path 5145" d="M369.127,412.542a4.168,4.168,0,0,1-.4-1.079,2,2,0,0,0,1.625.711l2.221.692c.034.694.049,1.158.049,1.158S369.694,413.469,369.127,412.542Z" transform="translate(-368.304 -344.398)" fill="#d65863"/>
        <path id="Path_5146" data-name="Path 5146" d="M374.18,396.983a3.043,3.043,0,0,0-2.884,2.729c0,1.493-.515,5.664,0,6.334a12.181,12.181,0,0,0,3.914,2.729c.875.154,2.362-.1,2.159-.567S374.18,396.983,374.18,396.983Z" transform="translate(-369.288 -338.314)" fill="#f6a397"/>
        <path id="Path_5147" data-name="Path 5147" d="M371.085,410.68c1.093,1.234,3.888,1.123,3.888,1.123a11.152,11.152,0,0,1,1.38,1.734c.092.255.595.59.664.849a3.944,3.944,0,0,1-1.8.144,12.244,12.244,0,0,1-3.876-2.685l-.256-1.162Z" transform="translate(-369.296 -344.069)" fill="#d65863"/>
        <path id="Path_5148" data-name="Path 5148" d="M381.791,392.734c-4.424.249-5.248.661-5.4,2.464s-.051,7.055.515,8.394a10.545,10.545,0,0,0,1.6,3.244,2.819,2.819,0,0,0,1.8.723s2.423-3.556,2.526-6.542A45.844,45.844,0,0,0,381.791,392.734Z" transform="translate(-371.497 -336.529)" fill="#f6a397"/>
        <path id="Path_5149" data-name="Path 5149" d="M379.591,408.262a26.848,26.848,0,0,0,.785-6.621c.024-1.538,1.45,6.493.813,8.7-.317.547-.545.881-.545.881a2.818,2.818,0,0,1-1.8-.723,10.547,10.547,0,0,1-1.6-3.244,2.61,2.61,0,0,1-.1-.311A2.618,2.618,0,0,0,379.591,408.262Z" transform="translate(-371.841 -340.19)" fill="#d65863"/>
        <path id="Path_5150" data-name="Path 5150" d="M394.118,400.743c-.279,2.461-3.5,3.347-3.862,4.583s-.1,2.369-.721,2.678-3.193-1.132-3.09-2.78a3.206,3.206,0,0,1-2.163,1.648c-1.493.257-1.854-.834-1.6-2.477a20.92,20.92,0,0,0,.154-4.476c-.051-1.956-.515-3.759.361-5.922s2.06-4.068,4.429-3.708,3.811,3.347,5.1,4.377S394.427,398.014,394.118,400.743Z" transform="translate(-374.138 -335.483)" fill="#f6a397"/>
        <path id="Path_5151" data-name="Path 5151" d="M389.224,408.668c.144-3.129.308-5.691.308-6.2s-.164-3.826,1.017-4.028c.18-.031,2.776,1.615,2.827,2.726s0,3.1-.808,3.672A36.056,36.056,0,0,0,389.224,408.668Z" transform="translate(-376.917 -338.928)" fill="#d65863"/>
      </g>
      <g id="Group_3091" data-name="Group 3091" transform="translate(43.903 41.111)">
        <path id="Path_5152" data-name="Path 5152" d="M519.431,292.547c-4.694-5.956-6.309-6.562-11.154-9.388s-23.218-9.994-27-10.9-19.053,6.208-24.063,8.48-11.384,4.506-12.471,6.72c-3.636,7.41,3.565,17.911,3.6,39.917.02,11.526,2.646,37.445,2.646,37.445s57.691.107,58.5-1.1,2.826-42.6,3.836-51.079S519.431,292.547,519.431,292.547Z" transform="translate(-443.714 -254.01)" fill="#5470d3"/>
        <line id="Line_6" data-name="Line 6" x1="1.237" y1="8.555" transform="translate(0 36.493)" fill="none" stroke="#314ec6" stroke-width="1"/>
        <path id="Path_5153" data-name="Path 5153" d="M476.687,300.216c-2.229-.833-7.51.616-8.476.952s.568-3.79,1.136-4.3,1.476-1.7,3.218-1.163a6.767,6.767,0,0,1,3.458,3.188A9.33,9.33,0,0,0,476.687,300.216Z" transform="translate(-453.876 -263.837)" fill="#314ec6"/>
        <path id="Path_5154" data-name="Path 5154" d="M503.446,304.534c-.795-.038-5.433-2.17-6.543-2.7s-6.14-.778-9.518.166c0,0,6.5-4.393,10.288-4.356s5.224,1.4,5.526,2.612A25.087,25.087,0,0,1,503.446,304.534Z" transform="translate(-462.063 -264.71)" fill="#314ec6"/>
        <path id="Path_5155" data-name="Path 5155" d="M465.355,376c.619-.606,38.3.605,39.053-3.331s1.278-11.1,1.278-11.1c-4.536,2.423-11.12,1.414-11.12,1.414,4.391-1.434,10.751-8.639,11.054-10.759.933-6.53-2.556-24.535-2.556-24.535l2.556-5.143,2.991-1.666a41.516,41.516,0,0,1,10.521,8.02,40.835,40.835,0,0,0-.749,4.195c-.951,7.995-2.8,45.235-3.685,50.485-11.67.43-32.824,1.2-46.979,1.691-6.858.016-11.671.008-11.671.008s-.089-3.41-.295-8.3C459.7,376.754,464.97,376.379,465.355,376Z" transform="translate(-448.772 -274.475)" fill="#314ec6"/>
        <path id="Path_5156" data-name="Path 5156" d="M477.727,290.417c4.065-.491,10.6-4.013,13.173-2.8s3.18,4.315,3.71,4.845,2.8-2.12,2.8-8.631.2-13.179-4.594-14.084-17.21,3.787-19.709,5.681a11.794,11.794,0,0,0-4.24,5.652c-.681,1.843-2.5,9.262-1.665,9.338s3.18-4.77,4.921-4.921S476.626,290.55,477.727,290.417Z" transform="translate(-453.493 -252.94)" fill="#5470d3"/>
        <path id="Path_5157" data-name="Path 5157" d="M479.972,288.277c-1.036-2.461-2.172-4.618-2.134-6.322s.417-2.877,2.31-3.407,2.688.492,2.8,3.066S479.972,288.277,479.972,288.277Z" transform="translate(-458.051 -256.63)" fill="#314ec6"/>
        <path id="Path_5158" data-name="Path 5158" d="M507.115,280.36c3.958-3.59,4.406-7.6,4.034-8.435s-2.006-1.439-2.006-1.439-.644,2.612-.265,3.255S507.115,280.36,507.115,280.36Z" transform="translate(-470.353 -253.299)" fill="#314ec6"/>
        <path id="Path_5159" data-name="Path 5159" d="M496.251,297.239c2.419-.916,6.468-1.942,7.77-.565a10.685,10.685,0,0,1,2.254,3.114c.63,1.234.864,2.385,2.328-.67s1.1-9.113,1.1-9.113" transform="translate(-465.788 -261.501)" fill="none" stroke="#314ec6" stroke-width="1"/>
        <path id="Path_5160" data-name="Path 5160" d="M474.6,298.808s-1.969-2.243-2.762-1.769a7.978,7.978,0,0,0-2.991,3.089c-1.243,2-2.729,2.987-1.449-2.058" transform="translate(-453.459 -264.428)" fill="none" stroke="#314ec6" stroke-width="1"/>
        <path id="Path_5161" data-name="Path 5161" d="M480.559,257.7c.009,1.6.072,3.195.239,4.786.408,3.9.008,9.053.317,10,.344,1.06,2.389,4.845,2.389,4.845s3.634-1.665,5.148-3.483,3.483-1.909,6.133-4.588,4.451-6.935,3.861-10.478c-.076-.454-.541-4.989-.644-9.683s-5.035-8.26-9.729-8.26-7.5,6.966-7.651,11.66C480.562,254.432,480.551,256.24,480.559,257.7Z" transform="translate(-459.194 -240.846)" fill="#f6a397"/>
        <path id="Path_5162" data-name="Path 5162" d="M498,250.029c.1,4.694.568,9.229.644,9.683a9.625,9.625,0,0,1-.094,3.422c-1.039.192-14.407.514-17.871-1.1-.079-1.134-.115-2.271-.122-3.409-.008-1.464,0-3.272.063-5.2a17.7,17.7,0,0,1,1.565-6.489l11-3.9A8.424,8.424,0,0,1,498,250.029Z" transform="translate(-459.194 -241.768)" fill="#d65863"/>
      </g>
      <g id="Group_3093" data-name="Group 3093" transform="translate(42.384)">
        <path id="Path_5163" data-name="Path 5163" d="M459.286,221.383c-7.1,0-9.761,5.456-9.761,9.545,0,3.67,1.176,9.545,9.761,9.545,4.293,0,7.2-4.274,7.2-9.545S463.579,221.383,459.286,221.383Z" transform="translate(-444.636 -191.558)" fill="#504984"/>
        <path id="Path_5164" data-name="Path 5164" d="M460.477,225.414a7,7,0,0,0-7.371,7.208c0,2.771.888,7.208,7.371,7.208,3.241,0,5.435-3.227,5.435-7.208S463.718,225.414,460.477,225.414Z" transform="translate(-446.141 -193.251)" fill="#372d5b"/>
        <path id="Path_5165" data-name="Path 5165" d="M450.679,211.044c.419,2.489,1.651,3.44,2.2,6.8s-.917,8.23,1.271,12.477,5.728,9.829,7.772,10.065,18.42-2.53,23.945-13.517c1.586-3.154,4.976-15.521,2.075-23.073s-7.619-14.471-18.523-14.681S448.455,197.854,450.679,211.044Z" transform="translate(-444.99 -177.997)" fill="#f6a397"/>
        <path id="Path_5166" data-name="Path 5166" d="M465.782,249.113a1.92,1.92,0,0,0,1.509-.59,1.544,1.544,0,0,0,.282-1.187,3.512,3.512,0,0,1-2.947.64C464.5,248.759,465.1,249.1,465.782,249.113Z" transform="translate(-450.974 -202.462)" fill="#d65863"/>
        <path id="Path_5167" data-name="Path 5167" d="M475.192,202.994a7.313,7.313,0,0,0-2.145-4.083,31.957,31.957,0,0,0-7.392-2.045,42.457,42.457,0,0,1-6.527-1.258,8.937,8.937,0,0,0,2.752,3.692s-7.706-.39-10.144-2.67c0,0,.471,1.879.943,3.141,0,0-3.775-.389-4.954-1.883a25.506,25.506,0,0,0-.943,5.106s-4.535-6.206-3.382-11.134,2.726-6.815,2.726-6.815a25.039,25.039,0,0,1-5.033,0s4.194-3.67,7.34-6.081,12.581-2.517,12.581-2.517a14.555,14.555,0,0,1,.1-6.5s4.037,5.924,8.309,7.733a35.457,35.457,0,0,0,8.228,2.8c4.53,1.143,8.836,4.043,10.645,6.481s3.774,4.954,4.954,5.347a10.343,10.343,0,0,1-4.246-1.573s2.361,5.361-.76,12.261-10.936,4.859-12.452,3.335A2.966,2.966,0,0,1,475.192,202.994Z" transform="translate(-441.094 -169.946)" fill="#ba6454"/>
        <path id="Path_5168" data-name="Path 5168" d="M498.431,212.819a2.966,2.966,0,0,1-.607-3.335,7.389,7.389,0,0,0-1.522-3.4,46,46,0,0,0-1.342-20.686,23.736,23.736,0,0,0,3.58,1.131,38.77,38.77,0,0,1,4.734,10.273c1.372,4.567,2.036,9.5.756,14.094a15.352,15.352,0,0,1-1.411,3.4A7.488,7.488,0,0,1,498.431,212.819Z" transform="translate(-463.726 -176.436)" fill="#874438"/>
        <path id="Path_5169" data-name="Path 5169" d="M498.465,206.015s.539-17.247-8.5-22.752a11.794,11.794,0,0,1,11.009,6.212,28.561,28.561,0,0,1,3.638,16.365C504.507,209.2,498.465,206.015,498.465,206.015Z" transform="translate(-461.626 -175.53)" fill="#504984"/>
        <path id="Path_5170" data-name="Path 5170" d="M504.167,221.383c7.1,0,9.76,5.456,9.76,9.545,0,3.67-1.176,9.545-9.76,9.545-4.293,0-7.2-4.274-7.2-9.545S499.874,221.383,504.167,221.383Z" transform="translate(-464.57 -191.558)" fill="#504984"/>
        <path id="Path_5171" data-name="Path 5171" d="M502.779,231.7c0-4.68,3.089-8.474,6.9-8.474s6.69,3.794,6.69,8.474-2.88,8.474-6.69,8.474S502.779,236.385,502.779,231.7Z" transform="translate(-467.011 -192.334)" fill="#372d5b"/>
        <ellipse id="Ellipse_91" data-name="Ellipse 91" cx="4.696" cy="5.767" rx="4.696" ry="5.767" transform="translate(38.883 33.604)" fill="#504984"/>
        <g id="Group_3092" data-name="Group 3092" transform="translate(12.87 48.916)">
          <path id="Path_5172" data-name="Path 5172" d="M472.012,254.307c-1.919,1.056-8.189,1.409-8.615,1.35s.449,4.7,1.984,4.878,4.607-.235,5.887-1.468S472.012,254.307,472.012,254.307Z" transform="translate(-463.289 -254.307)" fill="#d65863"/>
          <path id="Path_5173" data-name="Path 5173" d="M471.953,255.91c-.118-.422-.21-.761-.3-1.091a33.92,33.92,0,0,1-7.55,1.056,8.843,8.843,0,0,0,.547,1.914c.041-.027-.01.061.031.035A9.343,9.343,0,0,0,471.953,255.91Z" transform="translate(-463.631 -254.522)" fill="#fff"/>
        </g>
        <path id="Path_5174" data-name="Path 5174" d="M476.874,233.541c0-.869.428-1.573.957-1.573s.957.7.957,1.573-.428,1.573-.957,1.573S476.874,234.41,476.874,233.541Z" transform="translate(-456.127 -196.005)" fill="#3f1751"/>
        <path id="Path_5175" data-name="Path 5175" d="M457.994,234.807c0-.869.368-1.573.823-1.573s.822.7.822,1.573-.368,1.573-.822,1.573S457.994,235.675,457.994,234.807Z" transform="translate(-448.195 -196.537)" fill="#3f1751"/>
        <path id="Path_5176" data-name="Path 5176" d="M479.941,223.256a10.028,10.028,0,0,0-4.322-1.152,5.567,5.567,0,0,0-2.3.225,4.223,4.223,0,0,0-1.9,1.327l.056.094c.789-.085,1.441-.279,2.131-.37.673-.1,1.327-.347,2.031-.4a12.183,12.183,0,0,1,4.255.38Z" transform="translate(-453.837 -191.852)" fill="#3f1751"/>
        <path id="Path_5177" data-name="Path 5177" d="M453.173,226.6a4.289,4.289,0,0,1,1.058-.256,8.8,8.8,0,0,1,1.065-.07,4.682,4.682,0,0,0,1.055.038,3.114,3.114,0,0,0,.536-.149,2.186,2.186,0,0,0,.572-.285l.012-.108a2.058,2.058,0,0,0-1.123-.548,2.658,2.658,0,0,0-1.172.188,5.5,5.5,0,0,0-1.113.415,3.626,3.626,0,0,0-.957.689Z" transform="translate(-446.141 -193.162)" fill="#3f1751"/>
      </g>
      <g id="Group_3096" data-name="Group 3096" transform="translate(29.862 77.693)">
        <path id="Path_5178" data-name="Path 5178" d="M450.123,415.241c0,.244-.336.6-1.17.6H422.695c-3.029,0-3.735-1.2-2.827-2.712s4.745-4.845,14.234-7.167,14.479,3.107,16.021,5.553A3.841,3.841,0,0,1,450.123,415.241Z" transform="translate(-419.499 -346.563)" fill="#504984"/>
        <path id="Path_5179" data-name="Path 5179" d="M419.648,415.327c.522,1.737,20.559.832,20.559.832s-2.032-2.744-4.277-2.823-3.339.7-6.351,1.221-.779-1.226-.779-1.226a10.172,10.172,0,0,1-2.994-1.142s4.963-1.467,7.045-1.807a46.95,46.95,0,0,1,8.063,0c.482.08,2.927-1.34,5.883-.627a13.22,13.22,0,0,1,3.329,3.5,3.841,3.841,0,0,1,0,3.731c0,.244-.336.6-1.17.6H422.7C419.981,417.584,419.137,416.619,419.648,415.327Z" transform="translate(-419.502 -348.311)" fill="#372d5b"/>
        <path id="Path_5180" data-name="Path 5180" d="M508.892,384.383s-18.674,2.888-28.795,4.7c-9.588,1.716-17.868,2.461-20.215,2.007a125.554,125.554,0,0,1-12.947-4.467c-2.574-1.06-7.722-1.666-10.372-.833s-4.82,1.741-5.88,1.741-.858,1.716.556,2.069a10.6,10.6,0,0,0,2.675.3s-4.795,2.624-5.653,2.877.159,1.817,1.32,1.716c0,0-1.017.606-.663,1.211s2.877.606,2.877.606-3.079,1.514-.5,2.12,5.653-2.271,6.915-2.523,4.189-.1,5.6.958,7.47,5.956,15.747,3.029c0,0,56.184,2.277,61.787,2.277s8.986-4.952,7.19-14.491a72.434,72.434,0,0,0-5.279-16.657l-19.382,1.363Z" transform="translate(-423.046 -332.124)" fill="#f6a397"/>
        <g id="Group_3094" data-name="Group 3094" transform="translate(7.292 56.062)">
          <path id="Path_5181" data-name="Path 5181" d="M445.87,400.821a7.653,7.653,0,0,1,1.136-.2S446.526,400.7,445.87,400.821Z" transform="translate(-437.871 -400.621)" fill="#d65863"/>
          <path id="Path_5182" data-name="Path 5182" d="M435.65,402.482a10.6,10.6,0,0,1-2.675-.3,1.687,1.687,0,0,1-.9-.554,7.467,7.467,0,0,0,4.566,0c.669-.159,2.311-.459,3.433-.658A26.266,26.266,0,0,0,435.65,402.482Z" transform="translate(-432.075 -400.766)" fill="#d65863"/>
        </g>
        <g id="Group_3095" data-name="Group 3095" transform="translate(5.224 59.932)">
          <path id="Path_5183" data-name="Path 5183" d="M438.667,407.412a2.956,2.956,0,0,1,.291-.118Z" transform="translate(-432.777 -407.294)" fill="#d65863"/>
          <path id="Path_5184" data-name="Path 5184" d="M428.509,409.228c.018.016.572.5,1.739,0,.972-.423,3.33-1.391,4.151-1.727-1.033.469-3.835,2.051-4.58,2.322A1.621,1.621,0,0,1,428.509,409.228Z" transform="translate(-428.509 -407.38)" fill="#d65863"/>
        </g>
        <path id="Path_5185" data-name="Path 5185" d="M432.19,411.913c.858-.252,2.65-1.337,3.747-1.856a7.548,7.548,0,0,1,2.5-.579,5.333,5.333,0,0,0-1.515.579c-1.1.541-4.108,2.412-4.108,2.412a9.258,9.258,0,0,1-2.445-.313A7.175,7.175,0,0,0,432.19,411.913Z" transform="translate(-424.066 -348.28)" fill="#d65863"/>
        <path id="Path_5186" data-name="Path 5186" d="M455.138,413.57c1.59.984,6.284,2.271,9.086,1.741a4.267,4.267,0,0,0,3.407-2.877l.783,2.523s38.965,1.11,46.889.754c7.834-.352,20.052-.53,21.647-5.235-.438,5.461-3.4,8.272-7.616,8.272-5.6,0-61.787-2.277-61.787-2.277-8.277,2.928-14.334-1.969-15.747-3.029a8.347,8.347,0,0,0-4.835-1.048h0C449.115,411.642,453.548,412.586,455.138,413.57Z" transform="translate(-431.039 -348.7)" fill="#d65863"/>
        <path id="Path_5187" data-name="Path 5187" d="M566.4,389.943s7.3-.992,8.764-1.143l-1.11-4.543-9.237,1.868Z" transform="translate(-480.557 -337.683)" fill="#d65863"/>
        <path id="Path_5188" data-name="Path 5188" d="M573.943,343.479a1.9,1.9,0,0,1-.445,2.043c-3.393,3.313-7.847,7.826-12.428,8.52-5,.757-13.325,1.06-13.779,0s-2.12-14.537-5.148-21.35-5-10.3-5.754-14.234,6.056-13.173,9.085-13.931,9.994-1.211,12.871,1.363,5,12.416,8.328,19.836C569.361,331.714,572.739,340.363,573.943,343.479Z" transform="translate(-468.587 -303.935)" fill="#5470d3"/>
        <path id="Path_5189" data-name="Path 5189" d="M556.04,304.424a25.238,25.238,0,0,0-9.727.132c-4.687,1.161-7.985,9.237-7.985,9.237" transform="translate(-469.426 -303.964)" fill="none" stroke="#314ec6" stroke-width="1"/>
        <path id="Path_5190" data-name="Path 5190" d="M587.688,350.161c-.025-2.419-5.134-24.6-9.647-36.962h0c1.919,4.224,3.712,10.973,6.157,16.419,2.688,5.987,6.066,14.636,7.271,17.753a1.894,1.894,0,0,1-.445,2.043c-1.3,1.269-2.756,2.713-4.315,4.052A4.5,4.5,0,0,0,587.688,350.161Z" transform="translate(-486.112 -307.828)" fill="#314ec6"/>
      </g>
    </g>
    <g id="Group_3105" data-name="Group 3105" transform="translate(129.684 197.745)">
      <g id="Group_3099" data-name="Group 3099" transform="translate(0 11.733)">
        <path id="Path_5191" data-name="Path 5191" d="M174.605,331.6a3.57,3.57,0,0,0,.426,2.158,15.5,15.5,0,0,1,1.9,7.906c-.057,1.807-.429,3.655.064,5.394.848,3,4.015,4.856,5.035,7.8.9,2.613.063,5.9,1.941,7.928a1.755,1.755,0,0,0,1.825.633,2.225,2.225,0,0,0,.786-.653c2.153-2.445,4.458-5.417,3.794-8.607-.624-3-3.712-5.021-4.3-8.025-.478-2.454.777-5.286-.63-7.354-.388-.571-.943-1.007-1.367-1.551-1.673-2.148-1.053-5.571-2.98-7.493a4.444,4.444,0,0,0-2.272-1.165,3.53,3.53,0,0,0-4.229,3.026Z" transform="translate(-174.579 -328.496)" fill="#ff771b"/>
        <g id="Group_3098" data-name="Group 3098" transform="translate(3.832 4.008)">
          <path id="Path_5192" data-name="Path 5192" d="M189.911,372.576c.129-1.6.184-3.2.244-4.8-.073-1.6-.158-3.2-.3-4.794s-.317-3.194-.6-4.782a20.361,20.361,0,0,0-1.33-4.673c-1.16-2.932-2.1-6-3.044-9.035l-1.373-4.58q-.846-2.244-1.647-4.5c.233,1.588.6,3.148.916,4.719l1.376,4.589c.953,3.053,1.882,6.1,3.069,9.1a19.551,19.551,0,0,1,1.283,4.512c.276,1.554.454,3.132.59,4.714s.226,3.171.287,4.761Z" transform="translate(-181.473 -335.408)" fill="#ffa6a4"/>
          <path id="Path_5193" data-name="Path 5193" d="M181.188,342.625a3.751,3.751,0,0,0,.968.963,5.644,5.644,0,0,0,.611.31,2.325,2.325,0,0,1,.555.384l.073.066.065-.1c.152-.232.337-.449.484-.685s.289-.474.414-.721a5.618,5.618,0,0,0,.517-1.6l-.045-.023a5.645,5.645,0,0,0-.958,1.377c-.121.249-.219.509-.324.765s-.16.538-.254.8l.137-.034a2.334,2.334,0,0,1-.531-.417,5.53,5.53,0,0,0-.476-.491,3.755,3.755,0,0,0-1.206-.641Z" transform="translate(-181.188 -337.852)" fill="#ffa6a4"/>
          <path id="Path_5194" data-name="Path 5194" d="M181.858,351.953c.274.226.557.471.854.675a7.078,7.078,0,0,0,.923.575c.329.158.678.282.994.462a6.132,6.132,0,0,1,.891.628l.1.081.1-.132a15.957,15.957,0,0,0,1.167-1.806,11.43,11.43,0,0,0,.843-1.989l-.044-.025a11.385,11.385,0,0,0-1.27,1.748,16.092,16.092,0,0,0-.945,1.931l.2-.051a6.533,6.533,0,0,1-.957-.524c-.3-.2-.569-.46-.86-.682a6.313,6.313,0,0,0-.94-.555,4.208,4.208,0,0,0-1.046-.386Z" transform="translate(-181.47 -341.715)" fill="#ffa6a4"/>
          <path id="Path_5195" data-name="Path 5195" d="M185.206,365.237a4.62,4.62,0,0,0,.983.728,3.729,3.729,0,0,0,1.117.444,2.893,2.893,0,0,1,1.081.518c.32.244.634.512.955.722l.242.159.18-.27a7.651,7.651,0,0,0,.694-1.25,6.655,6.655,0,0,0,.448-1.386l-.056-.031a6.658,6.658,0,0,0-.931,1.12,7.63,7.63,0,0,0-.684,1.256l.423-.111a7.241,7.241,0,0,0-1.142-.453,3.29,3.29,0,0,1-1.054-.587,3.423,3.423,0,0,0-1.04-.618,4.224,4.224,0,0,0-1.191-.3Z" transform="translate(-182.876 -347.788)" fill="#ffa6a4"/>
        </g>
      </g>
      <g id="Group_3101" data-name="Group 3101" transform="translate(10.07)">
        <path id="Path_5196" data-name="Path 5196" d="M196.688,361.483c1.249-.206,5.932-1.7,5.605-2.926-1.4-5.249-2.808-11.2,2.054-13.771,2.34-1.235,5.276-1.863,6.608-4.149,1.372-2.354.362-5.347-.869-7.777s-2.714-5.033-2.186-7.707c.552-2.8,3.2-4.865,3.623-7.687.578-3.853-3.163-6.958-6.757-8.462a6.337,6.337,0,0,0-3.855-.638,4.734,4.734,0,0,0-2.349,1.517c-2.525,2.823-2.422,7.082-1.846,10.826s1.458,7.7.048,11.211c-1,2.5-3.146,4.845-2.571,7.474.23,1.052.887,1.971,1.136,3.019.675,2.826-1.672,5.37-2.748,8.069a9.9,9.9,0,0,0,2.2,10.377,2.195,2.195,0,0,0,1.91.624Z" transform="translate(-191.946 -308.262)" fill="#ff771b"/>
        <g id="Group_3100" data-name="Group 3100" transform="translate(4.29 6.084)">
          <path id="Path_5197" data-name="Path 5197" d="M199.355,365.95c.289-2.078.579-4.148.949-6.2.088-.514.2-1.025.278-1.539s.124-1.033.209-1.546q.233-1.543.524-3.073a40.322,40.322,0,0,1,1.567-5.991,12.418,12.418,0,0,1,1.31-2.709,3.718,3.718,0,0,1,.947-1,4.96,4.96,0,0,0,1.263-1.175,5.193,5.193,0,0,0,.912-3.26,15.969,15.969,0,0,0-.468-3.2c-.481-2.061-1.087-4.053-1.424-6.08a13.946,13.946,0,0,1,.124-6.019c.164-.472.293-.953.448-1.433a10.032,10.032,0,0,1,.6-1.4,14.01,14.01,0,0,1,1.749-2.566,11.827,11.827,0,0,0-2.232,2.263,10.764,10.764,0,0,0-.877,1.366,5.611,5.611,0,0,0-.6,1.519,14.886,14.886,0,0,0-.145,6.428c.351,2.1.967,4.125,1.435,6.136a15.07,15.07,0,0,1,.444,3,4.239,4.239,0,0,1-.725,2.677,4.013,4.013,0,0,1-1.025.948,4.636,4.636,0,0,0-1.2,1.255,13.353,13.353,0,0,0-1.42,2.922,41.311,41.311,0,0,0-1.608,6.138q-.3,1.552-.531,3.112c-.071.521-.169,1.038-.231,1.56s-.077,1.049-.11,1.574C199.394,361.753,199.316,363.852,199.355,365.95Z" transform="translate(-199.345 -318.755)" fill="#ffa6a4"/>
          <path id="Path_5198" data-name="Path 5198" d="M210.219,329.486a3.21,3.21,0,0,0-.941.558,3.4,3.4,0,0,0-.736.773,4.989,4.989,0,0,1-.626.871,7.761,7.761,0,0,1-.818.693l.371.023c-.125-.269-.279-.521-.42-.779a7.876,7.876,0,0,0-.464-.747c-.162-.244-.348-.473-.524-.706s-.378-.449-.539-.7l-.063.01a2.455,2.455,0,0,0,.186.917,6.122,6.122,0,0,0,.38.822,5.62,5.62,0,0,0,.49.749,8.4,8.4,0,0,0,.566.7l.232.244.139-.22a6.28,6.28,0,0,1,.609-.875,4.246,4.246,0,0,1,.826-.674,4.089,4.089,0,0,0,.75-.738,6.544,6.544,0,0,0,.623-.873Z" transform="translate(-201.914 -323.26)" fill="#ffa6a4"/>
          <path id="Path_5199" data-name="Path 5199" d="M205.838,342.741a5.126,5.126,0,0,0,.56.989,7.118,7.118,0,0,0,.716.859c.27.257.58.477.87.714a5.211,5.211,0,0,1,.762.812l.072.1.1-.082a8.577,8.577,0,0,0,.976-.9c.282-.322.583-.628.846-.964s.512-.68.747-1.035.45-.725.7-1.072l-.036-.052a4.441,4.441,0,0,0-1.058.789,9.847,9.847,0,0,0-.879.944c-.273.329-.506.69-.76,1.032s-.457.751-.693,1.044l.175.013a4.589,4.589,0,0,1-.769-.8c-.217-.3-.412-.627-.641-.918a9.652,9.652,0,0,0-.766-.8,8.308,8.308,0,0,0-.87-.714Z" transform="translate(-202.073 -328.568)" fill="#ffa6a4"/>
          <path id="Path_5200" data-name="Path 5200" d="M213.95,352.944c-.394.463-.8.889-1.221,1.3s-.87.765-1.308,1.159a4.261,4.261,0,0,1-1.527.887,5.62,5.62,0,0,1-1.754.2l.26.183a11.742,11.742,0,0,0-.416-1.419,7.9,7.9,0,0,0-.6-1.353,6.62,6.62,0,0,0-.865-1.223,3.231,3.231,0,0,0-1.216-.877l-.032.055a4.741,4.741,0,0,1,.877,1.1,13.612,13.612,0,0,1,.656,1.241l.584,1.29c.192.432.361.882.529,1.32l.081.211.18-.028a10.124,10.124,0,0,0,1.782-.509,18.166,18.166,0,0,0,1.711-.7,4.476,4.476,0,0,0,1.438-1.181,4.6,4.6,0,0,0,.9-1.619Z" transform="translate(-201.834 -332.636)" fill="#ffa6a4"/>
          <path id="Path_5201" data-name="Path 5201" d="M200.586,361.876a3.559,3.559,0,0,0-.244,1.457,4.77,4.77,0,0,0,.273,1.462,5.229,5.229,0,0,0,.75,1.276l.874,1.161.062.083.1-.072a12.831,12.831,0,0,1,1.524-.858c.511-.275,1.043-.51,1.574-.736s1.06-.46,1.6-.665c.54-.222,1.1-.4,1.661-.611l-.009-.063a8.364,8.364,0,0,0-3.528.717,10.994,10.994,0,0,0-1.584.882,10.671,10.671,0,0,0-1.393,1.158l.163.011a4.04,4.04,0,0,1-.807-1.152,9.922,9.922,0,0,1-.457-1.314,10.37,10.37,0,0,1-.5-2.724Z" transform="translate(-199.763 -336.873)" fill="#ffa6a4"/>
        </g>
      </g>
      <g id="Group_3104" data-name="Group 3104" transform="translate(1.693 44.375)">
        <g id="Group_3103" data-name="Group 3103">
          <g id="Group_3102" data-name="Group 3102">
            <path id="Path_5202" data-name="Path 5202" d="M182.127,407.18H195.5a2.687,2.687,0,0,0,2.483-2.525l2.116-16.445c.231-1.8-.945-3.42-2.483-3.42h-17.6c-1.538,0-2.714,1.621-2.483,3.42l2.116,16.445A2.686,2.686,0,0,0,182.127,407.18Z" transform="translate(-177.499 -384.791)" fill="#504984"/>
          </g>
        </g>
        <path id="Path_5203" data-name="Path 5203" d="M180.011,384.791h9c-1.537,0-2.714,1.621-2.482,3.42l2.116,16.445a2.686,2.686,0,0,0,2.482,2.525h-9a2.686,2.686,0,0,1-2.482-2.525l-2.116-16.445C177.3,386.412,178.473,384.791,180.011,384.791Z" transform="translate(-177.499 -384.791)" fill="#372d5b"/>
      </g>
    </g>
    <g id="Group_3112" data-name="Group 3112" transform="translate(152.628 164.959)">
      <g id="Group_3106" data-name="Group 3106" transform="translate(46.198 95.029)">
        <path id="Path_5204" data-name="Path 5204" d="M350.757,415.616H294.842a1.019,1.019,0,0,0-1.019,1.019v2.477a1.019,1.019,0,0,0,1.019,1.019h55.914Z" transform="translate(-293.823 -415.611)" fill="#282142"/>
        <path id="Path_5205" data-name="Path 5205" d="M405.762,418.727v1.007a.394.394,0,0,1-.394.394H391.283a.793.793,0,0,1-.794-.793V416.4a.793.793,0,0,1,.883-.789l14.04,2.724A.394.394,0,0,1,405.762,418.727Z" transform="translate(-334.438 -415.607)" fill="#504984"/>
      </g>
      <g id="Group_3111" data-name="Group 3111" transform="translate(0)">
        <g id="Group_3109" data-name="Group 3109">
          <path id="Path_5206" data-name="Path 5206" d="M219.585,251.719h104.5a5.014,5.014,0,0,1,4.718,3.316L351.659,318.5c.956,3.274-1.439,5.726-5.288,6.141-.59.064-3.4-1.2-7.805-3.271H245.141a5.014,5.014,0,0,1-4.718-3.316l-20.646-57.334c-3.491-1.822-5.481-2.863-5.481-2.863S213,251.719,219.585,251.719Z" transform="translate(-214.168 -251.719)" fill="#504984"/>
          <path id="Path_5207" data-name="Path 5207" d="M320.8,257.361h-104.5a2.143,2.143,0,0,0-2.017,2.869L237.133,323.7a5.014,5.014,0,0,0,4.718,3.315h104.5a2.143,2.143,0,0,0,2.016-2.868l-22.855-63.469A5.013,5.013,0,0,0,320.8,257.361Z" transform="translate(-214.149 -254.09)" fill="#372d5b"/>
          <path id="Path_5208" data-name="Path 5208" d="M341.286,365.018l-4.639-17.205-17.582,17.205Z" transform="translate(-258.231 -292.094)" fill="#282142"/>
          <path id="Path_5209" data-name="Path 5209" d="M313.472,292.917a4.267,4.267,0,0,0,4.494,3.981,3.389,3.389,0,0,0,3.468-3.981,4.787,4.787,0,0,0-4.495-3.981A3.4,3.4,0,0,0,313.472,292.917Z" transform="translate(-255.86 -267.356)" fill="#504984"/>
          <g id="Group_3107" data-name="Group 3107" transform="translate(94.709 58.631)">
            <path id="Path_5210" data-name="Path 5210" d="M397.233,356.567l-1.344-3.732h1.689l1.344,3.732Z" transform="translate(-385.218 -352.835)" fill="#282142"/>
            <path id="Path_5211" data-name="Path 5211" d="M391.1,356.567l-1.344-3.732h1.689l1.344,3.732Z" transform="translate(-382.641 -352.835)" fill="#282142"/>
            <path id="Path_5212" data-name="Path 5212" d="M384.964,356.567l-1.344-3.732h1.689l1.344,3.732Z" transform="translate(-380.063 -352.835)" fill="#282142"/>
            <path id="Path_5213" data-name="Path 5213" d="M378.83,356.567l-1.344-3.732h1.689l1.344,3.732Z" transform="translate(-377.486 -352.835)" fill="#282142"/>
          </g>
          <g id="Group_3108" data-name="Group 3108" transform="translate(33.514 58.631)">
            <path id="Path_5214" data-name="Path 5214" d="M291.694,356.567l-1.344-3.732h1.689l1.344,3.732Z" transform="translate(-279.68 -352.835)" fill="#282142"/>
            <path id="Path_5215" data-name="Path 5215" d="M285.56,356.567l-1.344-3.732h1.689l1.344,3.732Z" transform="translate(-277.102 -352.835)" fill="#282142"/>
            <path id="Path_5216" data-name="Path 5216" d="M279.425,356.567l-1.344-3.732h1.689l1.344,3.732Z" transform="translate(-274.525 -352.835)" fill="#282142"/>
            <path id="Path_5217" data-name="Path 5217" d="M273.291,356.567l-1.344-3.732h1.689l1.344,3.732Z" transform="translate(-271.947 -352.835)" fill="#282142"/>
          </g>
        </g>
        <g id="Group_3110" data-name="Group 3110" transform="translate(44.314 49.813)">
          <path id="Path_5218" data-name="Path 5218" d="M296.058,381.438c1.031-2.965,13.536-43.317,13.536-43.317h16.052l1.061,5.62s-10.763,34.732-11.795,37.7c-.078.226-.153.453-.223.68h0c-.943,2.9,1.545,2.886,4.348,2.886h28.31v2.567H300.183C294.511,387.572,295.026,384.4,296.058,381.438Z" transform="translate(-292.604 -337.835)" fill="#372d5b"/>
          <path id="Path_5219" data-name="Path 5219" d="M323.615,338.121s-12.505,40.352-13.536,43.317-1.547,6.134,4.125,6.134H295.349c-5.673,0-5.157-3.168-4.126-6.134s13.536-43.317,13.536-43.317Z" transform="translate(-290.573 -337.835)" fill="#504984"/>
          <path id="Path_5220" data-name="Path 5220" d="M325.564,337.913c-1.244-.057-2.487-.086-3.731-.126s-2.488-.052-3.731-.08-2.487-.056-3.731-.056l-3.731-.023h-.208l-.065.2c-.52,1.625-1.033,3.252-1.521,4.887l-1.488,4.9c-.957,3.276-1.916,6.551-2.791,9.853,1.149-3.216,2.214-6.459,3.281-9.7l1.548-4.879c.524-1.624,1.023-3.256,1.515-4.89l-.273.2,3.731-.023c1.244,0,2.487-.037,3.731-.056s2.488-.037,3.731-.08S324.32,337.971,325.564,337.913Z" transform="translate(-296.453 -337.627)" fill="#7f74d1"/>
        </g>
      </g>
    </g>
    <g id="Group_3113" data-name="Group 3113" transform="translate(111.741 264.509)">
      <path id="Path_5221" data-name="Path 5221" d="M148.588,433.311H425.372a4.954,4.954,0,0,0,4.954-4.953h0a4.954,4.954,0,0,0-4.954-4.954H148.588a4.953,4.953,0,0,0-4.953,4.954h0A4.953,4.953,0,0,0,148.588,433.311Z" transform="translate(-143.635 -423.404)" fill="#8e5058"/>
      <path id="Path_5222" data-name="Path 5222" d="M148.588,436.9H425.372a4.954,4.954,0,0,0,4.954-4.953H143.635A4.953,4.953,0,0,0,148.588,436.9Z" transform="translate(-143.635 -426.993)" fill="#64364a"/>
    </g>
    <g id="Group_3124" data-name="Group 3124" transform="translate(83.455 57.673)">
      <circle id="Ellipse_92" data-name="Ellipse 92" cx="41.662" cy="41.662" r="41.662" transform="translate(0 81.131) rotate(-76.825)" fill="#5470d3"/>
      <g id="Group_3123" data-name="Group 3123" transform="translate(8.399 0.309)">
        <g id="Group_3122" data-name="Group 3122" clip-path="url(#clip-path)">
          <g id="Group_3121" data-name="Group 3121" transform="translate(-11.597 3.822)">
            <g id="Group_3120" data-name="Group 3120">
              <g id="Group_3114" data-name="Group 3114" transform="translate(59.751 19.074)">
                <path id="Path_5223" data-name="Path 5223" d="M263.073,209.567c.791,3.975-2.889,7.509-4.041,8.171s-8.886,3.754-13.531,3.865-10.776-9.716-8.267-10.82,19.6-2.319,21.479-2.319A13.4,13.4,0,0,1,263.073,209.567Z" transform="translate(-210.983 -149.463)" fill="#ffc5c7"/>
                <path id="Path_5224" data-name="Path 5224" d="M239.677,196.183c-2.027,11.924-6.843,21.2-8.345,21.365s-15.938-4.8-19.918-6.625,1.222-29.809,3.7-29.316,7.907,5.87,12.391,8.448S239.677,196.183,239.677,196.183Z" transform="translate(-199.769 -138.177)" fill="#fff"/>
                <path id="Path_5225" data-name="Path 5225" d="M218.616,215.3c1.392,2.387,12.863,8.436,19.181,10.641-1.562,3.521-3.033,5.688-3.749,5.767-1.287.141-12.054-3.48-17.621-5.669A85.131,85.131,0,0,1,218.616,215.3Z" transform="translate(-202.486 -152.335)" fill="#dcedff"/>
                <path id="Path_5226" data-name="Path 5226" d="M248.2,172.678c.113,4.731-4.148,5.41-9.249,4.2s-13.43-12.7-17.138-17.888-10.626-14.437-12.056-15.265-4.711-1.268-7.518-5.934.885-14.438,2.212-15.6,12.694,2.711,14.014,4.668-.935,12.474-.535,13.8,10.075,12.146,14.3,14.8S248.116,169.256,248.2,172.678Z" transform="translate(-196.092 -113.126)" fill="#ffc5c7"/>
                <path id="Path_5227" data-name="Path 5227" d="M215.908,133.488c-1.337-.662-1.66-3.671-.819-3.141s2.312.519,4.3.491a16.84,16.84,0,0,0,2.806-.2,17.22,17.22,0,0,1,.194,2.372S217.245,134.151,215.908,133.488Z" transform="translate(-201.729 -116.616)" fill="#fe8a8b"/>
                <path id="Path_5228" data-name="Path 5228" d="M201.423,135.069c.811-1.507,1.436-2.65,1.436-2.65l7.82,7.527a49.306,49.306,0,0,1,4.754-3.546l.688,1.228a24.81,24.81,0,0,0-2.392,7.772s-1.2,1.325-1.871,1.435c0,0,8.366,13.25,13.744,19.764,5.346,6.476,9.008,12.078,11.528,13.878-5.085-2.932-12.021-12.492-15.315-17.1-3.708-5.19-10.626-14.437-12.056-15.265s-4.711-1.268-7.518-5.934C201.128,140.324,201.045,137.671,201.423,135.069Z" transform="translate(-196.096 -117.512)" fill="#fe8a8b"/>
                <path id="Path_5229" data-name="Path 5229" d="M214.592,125.024c-.094.772-7.866,7.508-8.678,8.281a1.163,1.163,0,0,1-.836,0c-2.067-1.815-11.09-18.2-11.252-18.794-.15-.551,5.841-6.188,7.67-7.7a1.616,1.616,0,0,1,1.444.168C204.786,109.716,214.715,124.026,214.592,125.024Z" transform="translate(-192.989 -106.711)" fill="#0c0835"/>
                <path id="Path_5230" data-name="Path 5230" d="M213.152,125.067c-.095.772-7.866,7.508-8.679,8.281s-11.913-18.154-12.087-18.794c-.151-.551,6.519-6.1,8.349-7.6a.514.514,0,0,1,.765.077C203.346,109.76,213.274,124.069,213.152,125.067Z" transform="translate(-192.384 -106.755)" fill="#252384"/>
                <path id="Path_5231" data-name="Path 5231" d="M211.866,124.01c-.089.722-7.358,7.024-8.119,7.747s-11.145-16.984-11.308-17.582c-.14-.516,6.1-5.7,7.81-7.115a.481.481,0,0,1,.716.071C202.692,109.69,211.981,123.076,211.866,124.01Z" transform="translate(-192.406 -106.805)" fill="#57aff7"/>
                <path id="Path_5232" data-name="Path 5232" d="M215.829,116.282a8.674,8.674,0,0,1-2.813-4.01c-.133-.828-.051-1.574.6-1.74s2.639,2.43,3.632,3.2,2.2,2.374,1.709,3.451-2.7.662-2.935.5S215.829,116.282,215.829,116.282Z" transform="translate(-201.03 -108.313)" fill="#ffc5c7"/>
                <path id="Path_5233" data-name="Path 5233" d="M213.24,110.914c-.382.942,2.1,4.72,4.284,5.808l-.811.926s-.368-.081-.84-.193a6.641,6.641,0,0,1-.043-1.009,8.674,8.674,0,0,1-2.813-4.01A1.848,1.848,0,0,1,213.24,110.914Z" transform="translate(-201.03 -108.477)" fill="#fe8a8b"/>
                <path id="Path_5234" data-name="Path 5234" d="M218.5,124.149c-2.071-1.106-3.695-.982-4.821-1.437s-1.331-2.195-.565-2.485,5.433.456,6.636.994,1.778,3.018,1.778,3.018Z" transform="translate(-200.902 -112.363)" fill="#ffc5c7"/>
                <path id="Path_5235" data-name="Path 5235" d="M217.644,123.861a2.652,2.652,0,0,0,1.574,0c-.034.457.4.686.885,1.337l-1.552-.046c-2.07-1.106-3.694-.982-4.82-1.437a1.678,1.678,0,0,1-.951-1.165C213.281,123.5,216.478,123.641,217.644,123.861Z" transform="translate(-200.953 -113.365)" fill="#fe8a8b"/>
                <path id="Path_5236" data-name="Path 5236" d="M224.232,128.979c-1.1,1.528-6.522.866-7.614.7s-1.778-.855-1.666-1.55c.225-1.4,7.384-1.154,7.975-.934S224.232,128.979,224.232,128.979Z" transform="translate(-201.861 -115.246)" fill="#ffc5c7"/>
                <path id="Path_5237" data-name="Path 5237" d="M215.028,129.512c.74.736,2.519,1.155,4.461,1.312a18.3,18.3,0,0,0,2.871.052,22.343,22.343,0,0,1-5.706-.15A1.8,1.8,0,0,1,215.028,129.512Z" transform="translate(-201.898 -116.291)" fill="#fe8a8b"/>
              </g>
              <g id="Group_3115" data-name="Group 3115" transform="translate(20.945 39.805)">
                <path id="Path_5238" data-name="Path 5238" d="M161.283,164.437c11.5,5.852,13.386,5.626,18.325,8.28s3.47,30.586,3.156,34.893-1.5,21.421-.847,26.058,3.212,21.862,4.344,24.512,3.291,7.122-.049,9.771-10.406,4.472-25.748,3.478S128.584,261,127.852,259.671s7.334-25.671,7.671-30.309a62.262,62.262,0,0,1,1.741-10.268c.488-2.154-4.393-12.256-5.173-18.716s-7.8-24.278-6.466-27.542,13.553-6.9,21.877-11.051A11.214,11.214,0,0,1,161.283,164.437Z" transform="translate(-125.458 -150.018)" fill="#fff"/>
                <path id="Path_5239" data-name="Path 5239" d="M186.226,179.823a32.056,32.056,0,0,1-10.877,15.83,48.738,48.738,0,0,1-17.659-8.158,74.043,74.043,0,0,0,18.569,10.139A27.257,27.257,0,0,0,186.226,179.823Z" transform="translate(-139.001 -158.161)" fill="#dcedff"/>
                <path id="Path_5240" data-name="Path 5240" d="M179.458,168.719c-2.209-.942-5.046-2.242-9.053-4.282a11.214,11.214,0,0,0-13.78-2.653c-2.888,1.44-6.245,2.818-9.454,4.141A41.576,41.576,0,0,0,169.436,184.1,29.375,29.375,0,0,0,179.458,168.719Z" transform="translate(-134.581 -150.018)" fill="#ffc5c7"/>
                <path id="Path_5241" data-name="Path 5241" d="M129.553,282.719c-.732-1.325,7.334-25.671,7.671-30.309a62.261,62.261,0,0,1,1.741-10.268c.488-2.154-4.393-12.256-5.173-18.716a34.621,34.621,0,0,0-.9-4.265l5.185-3.862c3.041,8.481,4.937,23.387,7.819,27.031s10.06,5.135,10.06,5.135-7.091,1.656-10.183.993c0,0-3.3,13.084-3.338,19.544s.562,16.231.638,17.556c.028.495-.081,2.219-.228,4.185C135.419,286.8,129.966,283.467,129.553,282.719Z" transform="translate(-127.159 -173.066)" fill="#dcedff"/>
                <path id="Path_5242" data-name="Path 5242" d="M164.2,142.464c-.119,6.912-.575,11.659-2.107,12.984,0,0,2.634,11.469,13.149,10.489,3.557-.331,3.218-6.294,1.432-9.054l1.059-8.477Z" transform="translate(-140.852 -142.464)" fill="#ffc5c7"/>
                <path id="Path_5243" data-name="Path 5243" d="M163.476,154.231h0c.9-2.12,1.211-6.251,1.306-11.767l13.533,5.943-.679,5.436h0C175.237,154.919,163.476,154.231,163.476,154.231Z" transform="translate(-141.432 -142.464)" fill="#fe8a8b"/>
              </g>
              <g id="Group_3116" data-name="Group 3116" transform="translate(0 62.505)">
                <path id="Path_5244" data-name="Path 5244" d="M98.172,238.864c-2.331,3.2-5.449,11.152-4.279,14.8s13.239,19.875,18.76,25.947,6.773,7.067,7.733,9.054,5.663,10.186,6.9,11.428a6.232,6.232,0,0,0,3.458,1.408,5.884,5.884,0,0,0,4.847,1.49,18.307,18.307,0,0,0,4.973,2.4s.726,1.406,1.462,1.531,1.673-1.366.316-4.347-3.585-4.223-3.943-6.128a38.915,38.915,0,0,0-2.082-5.79s3.87,3.968,6.254,4.217,2.7-1.159,1.4-2.319a30.272,30.272,0,0,1-4.58-5.134,9.1,9.1,0,0,0-6.573-4.141c-3.034-.414-5.163-.746-5.949-1.325s-4.753-6.211-7.464-12.284-5.139-13.833-12.029-20.648l3.035-5.3Z" transform="translate(-91.144 -205.667)" fill="#ffc5c7"/>
                <path id="Path_5245" data-name="Path 5245" d="M170.2,346.738a12.751,12.751,0,0,0-2.855-4.386l-.471-.463c-.139-.144-.384-.326-.438-.412-.238-.3-.443-.7-.671-1.061-.437-.744-.862-1.5-1.346-2.235a18.494,18.494,0,0,0,.887,2.491,7.466,7.466,0,0,0,.616,1.2,4.982,4.982,0,0,0,.485.5l.444.458c.6.611,1.161,1.254,1.73,1.894S169.67,346.04,170.2,346.738Z" transform="translate(-120.881 -247.396)" fill="#fe8a8b"/>
                <path id="Path_5246" data-name="Path 5246" d="M163.66,344.864c-.456-.892-1-1.665-1.481-2.478-.506-.8-.954-1.606-1.415-2.491a5.141,5.141,0,0,0,.842,2.867A6.554,6.554,0,0,0,163.66,344.864Z" transform="translate(-119.346 -248.116)" fill="#fe8a8b"/>
                <path id="Path_5247" data-name="Path 5247" d="M155.413,344.152a5.432,5.432,0,0,1-2.294-1.271,6.232,6.232,0,0,1-3.458-1.408,32.216,32.216,0,0,1-2.761-4.114c.025.03,1.412,1.538,2.41,2.782a3.367,3.367,0,0,0,3.422,1.173l-.27-1.615S153.8,343.364,155.413,344.152Z" transform="translate(-113.523 -247.051)" fill="#fe8a8b"/>
                <path id="Path_5248" data-name="Path 5248" d="M93.845,257.4c.066,1.51.083,2.713,2.325,6.677,2.523,4.463,17.685,23.27,20.992,26.748s3.209,3.7,5.167,9.194c-.884-1.553-1.621-2.908-1.941-3.57-.96-1.988-2.213-2.982-7.733-9.054s-17.589-22.3-18.76-25.947A9.066,9.066,0,0,1,93.845,257.4Z" transform="translate(-91.147 -213.455)" fill="#fe8a8b"/>
                <path id="Path_5249" data-name="Path 5249" d="M113.592,249.67l-1.232,2.053a7.028,7.028,0,0,1,2.876,1.7l2.4-4.079Z" transform="translate(-99.01 -210.072)" fill="#fe8a8b"/>
                <path id="Path_5250" data-name="Path 5250" d="M118.449,209.983c3.167-6.225,4.435-16.334,1.576-21.655s-8.252-7.236-9.576-6.6-4.907,8.938-8.272,12.769-12.553,14.578-12.832,15.483S95.987,218.188,109,223.55C110.551,224.189,118.449,209.983,118.449,209.983Z" transform="translate(-89.337 -181.612)" fill="#fff"/>
                <path id="Path_5251" data-name="Path 5251" d="M118.605,228.975l-2.076,4.258S126.757,222.979,131,215.327a30.777,30.777,0,0,1-2.744,8.821s-7.9,14.206-9.447,13.568c-2.227-.918-4.261-1.893-6.126-2.882Z" transform="translate(-99.147 -195.778)" fill="#dcedff"/>
              </g>
              <g id="Group_3119" data-name="Group 3119" transform="translate(30.677)">
                <path id="Path_5252" data-name="Path 5252" d="M170.175,114.241a47.284,47.284,0,0,1-.858-8.677c-.127-2.179-.238-4.173-2.215-5.476a7.318,7.318,0,0,0-4.957-.923c-4.569.58-5.552,5.032-5.2,9.248a31.056,31.056,0,0,0,2.78,9.294,7.078,7.078,0,0,1-4.979-2.354,9.971,9.971,0,0,0,2.639,4.833c-4.87-.084-9.389-3.27-11.969-7.55s-3.4-9.5-3.122-14.541a29.021,29.021,0,0,1,5.887-16.57,21.3,21.3,0,0,1,30.485-2.381,21.921,21.921,0,0,1,6.262,10.375,34.508,34.508,0,0,1,.286,16.118,55.478,55.478,0,0,0-.89,6.275c-.067.68-.891,8.569-.415,8.54-3.076.187-6.61-.434-8.694-2.786.934,1.615,1.741,3.171,2.675,4.785C174,121.807,171.15,118.189,170.175,114.241Z" transform="translate(-142.242 -73.816)" fill="#372d5b"/>
                <path id="Path_5253" data-name="Path 5253" d="M159.326,111.468c-1.374-.812-3.026-1.253-4.3.04-1.878,1.9.79,10.765,4.839,8.612,0,0,5.863,8.2,10.166,10.517s7.369,1.16,8.98-.5,7.107-8.449,8.1-15.651c.353-2.568-.026-7.619.053-8.7.242-3.312,1.5-6.032-1.116-8.632a15.128,15.128,0,0,0-10.017-4.347,16.176,16.176,0,0,0-12.476,5.457C160.12,102.158,159.526,106.544,159.326,111.468Z" transform="translate(-147.356 -81.795)" fill="#ffc5c7"/>
                <path id="Path_5254" data-name="Path 5254" d="M156.618,128.161c.35-1.624,1.735-1.943,2.765-.811,1.056,1.159,1.233,4.831.962,5.372s-2.085.5-2.429-.618.713-1.824,1.732-1.492a3.838,3.838,0,0,0-.548-2.689c-.833-1.054-1.7-.651-1.915-.38A8.354,8.354,0,0,1,156.618,128.161Z" transform="translate(-148.282 -96.027)" fill="#fe8a8b"/>
                <g id="Group_3118" data-name="Group 3118" transform="translate(19.543 21.707)">
                  <path id="Path_5255" data-name="Path 5255" d="M175.946,115.111a14.186,14.186,0,0,1,1.244-1.026,8.675,8.675,0,0,1,1.4-.833,4.61,4.61,0,0,1,1.557-.524,3.26,3.26,0,0,1,1.581.209l-.007.074a7.752,7.752,0,0,1-.765.246l-.729.2c-.475.14-.967.183-1.448.343a10.6,10.6,0,0,0-1.415.6c-.469.228-.922.5-1.379.771Z" transform="translate(-175.946 -111.865)" fill="#3f1751"/>
                  <path id="Path_5256" data-name="Path 5256" d="M203.231,112.639a5.339,5.339,0,0,0-1.4-.509,7.6,7.6,0,0,0-1.481-.176c-.5-.01-1,.092-1.495.089A14.543,14.543,0,0,1,197.3,112l-.016-.071a3.821,3.821,0,0,1,1.542-.629,4.634,4.634,0,0,1,1.611.059,6.354,6.354,0,0,1,1.523.413,4.8,4.8,0,0,1,1.31.8Z" transform="translate(-184.913 -111.253)" fill="#3f1751"/>
                  <path id="Path_5257" data-name="Path 5257" d="M183.333,121c-.019-.7-.371-1.235-.788-1.194s-.739.642-.721,1.343.371,1.235.788,1.194S183.351,121.7,183.333,121Z" transform="translate(-178.415 -114.847)" fill="#3f1751"/>
                  <path id="Path_5258" data-name="Path 5258" d="M202.61,119.47c-.019-.7-.31-1.241-.651-1.208s-.6.629-.583,1.329.309,1.241.65,1.208S202.628,120.17,202.61,119.47Z" transform="translate(-186.63 -114.197)" fill="#3f1751"/>
                  <path id="Path_5259" data-name="Path 5259" d="M190.4,133.589a3.128,3.128,0,0,0,3.416-.035,1.578,1.578,0,0,1-.885,1.257,2.109,2.109,0,0,1-1.588-.086C190.862,134.5,190.706,134.018,190.4,133.589Z" transform="translate(-182.019 -120.623)" fill="#fe8a8b"/>
                  <g id="Group_3117" data-name="Group 3117" transform="translate(4.543 16.429)">
                    <path id="Path_5260" data-name="Path 5260" d="M183.781,140.234a95.545,95.545,0,0,0,9.675-.647c-.714,2.341-2.587,4.652-5.2,4.654C185.9,144.242,184.345,142.307,183.781,140.234Z" transform="translate(-183.781 -139.587)" fill="#c31f2a"/>
                    <path id="Path_5261" data-name="Path 5261" d="M187.436,145.928a4.145,4.145,0,0,1,2.229-.021,3.575,3.575,0,0,1,3-.293,4.531,4.531,0,0,1-2.873,1.079A3.968,3.968,0,0,1,187.436,145.928Z" transform="translate(-185.317 -142.039)" fill="#fb8384"/>
                    <path id="Path_5262" data-name="Path 5262" d="M192.575,141.613a11.289,11.289,0,0,1-7.094-.275c-.015-.346-.041-.693-.068-1.041,2.283-.049,5.98-.325,7.958-.546A6.609,6.609,0,0,1,192.575,141.613Z" transform="translate(-184.467 -139.656)" fill="#fff"/>
                  </g>
                </g>
                <path id="Path_5263" data-name="Path 5263" d="M162.845,99.03a32.232,32.232,0,0,0,10.988-2.439,12.446,12.446,0,0,0,.785-4.559,13.237,13.237,0,0,1,1.607,5.657c2.194-.142,4.4-.26,6.593-.4a13.672,13.672,0,0,0,.591-5.371,23.252,23.252,0,0,1,1.367,5.773c1.324-.471,3,.216,4.386.464,1.715-3.819,1.6-10.74-2.025-13.637-3.533-2.822-9.669-3.59-13.986-2.965-9.185,1.33-16.4,8.956-15.833,18.456a22.216,22.216,0,0,0,6.942,14.324A21.978,21.978,0,0,1,162.845,99.03Z" transform="translate(-148.564 -76.98)" fill="#372d5b"/>
              </g>
            </g>
          </g>
        </g>
      </g>
    </g>
    <g id="Group_3126" data-name="Group 3126" transform="translate(186.977 80.96)">
      <circle id="Ellipse_93" data-name="Ellipse 93" cx="24.227" cy="24.227" r="24.227" transform="matrix(0.252, -0.968, 0.968, 0.252, 0, 46.897)" fill="#ff771b"/>
      <g id="Group_3125" data-name="Group 3125" transform="translate(15.604 20.058)">
        <rect id="Rectangle_735" data-name="Rectangle 735" width="27.878" height="18.968" rx="3.426" transform="translate(27.878 18.969) rotate(180)" fill="#dbe9ff"/>
        <path id="Path_5265" data-name="Path 5265" d="M302.284,166.368h23.9a1.987,1.987,0,0,0,1.987-1.987l-13.939-8.765L300.3,164.381A1.987,1.987,0,0,0,302.284,166.368Z" transform="translate(-300.297 -147.4)" fill="#cddcf4"/>
        <path id="Path_5266" data-name="Path 5266" d="M302.284,141.446h23.9a1.987,1.987,0,0,1,1.987,1.987L314.236,152.2,300.3,143.433A1.987,1.987,0,0,1,302.284,141.446Z" transform="translate(-300.297 -141.446)" fill="#5470d3"/>
      </g>
    </g>
    <g id="Group_3130" data-name="Group 3130" transform="translate(359.212 116.295)">
      <circle id="Ellipse_94" data-name="Ellipse 94" cx="24.227" cy="24.227" r="24.227" transform="matrix(0.974, -0.226, 0.226, 0.974, 0, 10.937)" fill="#ff771b"/>
      <g id="Group_3129" data-name="Group 3129" transform="translate(13.389 14.75)">
        <g id="Group_3127" data-name="Group 3127">
          <path id="Path_5267" data-name="Path 5267" d="M615.993,202.813h-2.436a8.669,8.669,0,0,0-1.108-2.67l1.724-1.724a.6.6,0,0,0,0-.851l-1.916-1.916a.6.6,0,0,0-.851,0l-1.724,1.724a8.669,8.669,0,0,0-2.67-1.108v-2.436a.6.6,0,0,0-.6-.6H603.7a.6.6,0,0,0-.6.6v2.436a8.663,8.663,0,0,0-2.67,1.108l-1.724-1.724a.6.6,0,0,0-.852,0l-1.916,1.916a.6.6,0,0,0,0,.851l1.724,1.724a8.666,8.666,0,0,0-1.108,2.67h-2.435a.6.6,0,0,0-.6.6v2.709a.6.6,0,0,0,.6.6h2.435a8.661,8.661,0,0,0,1.108,2.67l-1.724,1.724a.6.6,0,0,0,0,.851l1.916,1.916a.6.6,0,0,0,.852,0l1.724-1.724a8.663,8.663,0,0,0,2.67,1.108v2.435a.6.6,0,0,0,.6.6h2.709a.6.6,0,0,0,.6-.6v-2.435a8.669,8.669,0,0,0,2.67-1.108l1.724,1.724a.6.6,0,0,0,.851,0l1.916-1.916a.6.6,0,0,0,0-.851l-1.724-1.724a8.664,8.664,0,0,0,1.108-2.67h2.436a.6.6,0,0,0,.6-.6v-2.709A.6.6,0,0,0,615.993,202.813Zm-10.938,5.7a3.738,3.738,0,1,1,3.738-3.738A3.739,3.739,0,0,1,605.055,208.509Z" transform="translate(-593.516 -193.231)" fill="#dbe9ff"/>
          <path id="Path_5268" data-name="Path 5268" d="M609.647,204.158a5.2,5.2,0,1,0,5.2,5.2A5.2,5.2,0,0,0,609.647,204.158Zm0,8.381a3.178,3.178,0,1,1,3.177-3.178A3.178,3.178,0,0,1,609.647,212.539Z" transform="translate(-598.107 -197.822)" fill="#5470d3"/>
        </g>
        <g id="Group_3128" data-name="Group 3128" transform="translate(21.398 15.358)">
          <path id="Path_5269" data-name="Path 5269" d="M641.9,224.613h-1.244a4.445,4.445,0,0,0-.567-1.364l.881-.881a.308.308,0,0,0,0-.435l-.979-.979a.308.308,0,0,0-.435,0l-.881.881a4.419,4.419,0,0,0-1.364-.566v-1.244a.307.307,0,0,0-.307-.307h-1.384a.307.307,0,0,0-.307.307v1.244a4.428,4.428,0,0,0-1.364.566l-.88-.881a.308.308,0,0,0-.435,0l-.979.979a.308.308,0,0,0,0,.435l.881.881a4.433,4.433,0,0,0-.566,1.364h-1.244a.308.308,0,0,0-.307.308v1.384a.307.307,0,0,0,.307.307h1.244a4.421,4.421,0,0,0,.566,1.364l-.881.881a.308.308,0,0,0,0,.435l.979.979a.308.308,0,0,0,.435,0l.88-.881a4.428,4.428,0,0,0,1.364.566V231.2a.308.308,0,0,0,.307.308h1.384a.308.308,0,0,0,.307-.308v-1.244a4.419,4.419,0,0,0,1.364-.566l.881.881a.308.308,0,0,0,.435,0l.979-.979a.308.308,0,0,0,0-.435l-.881-.881a4.433,4.433,0,0,0,.567-1.364H641.9a.307.307,0,0,0,.308-.307v-1.384A.308.308,0,0,0,641.9,224.613Zm-5.587,2.909a1.909,1.909,0,1,1,1.91-1.909A1.909,1.909,0,0,1,636.315,227.522Z" transform="translate(-630.42 -219.718)" fill="#dbe9ff"/>
          <path id="Path_5270" data-name="Path 5270" d="M638.66,225.3a2.658,2.658,0,1,0,2.659,2.658A2.658,2.658,0,0,0,638.66,225.3Zm0,4.282a1.623,1.623,0,1,1,1.624-1.624A1.623,1.623,0,0,1,638.66,229.582Z" transform="translate(-632.765 -222.063)" fill="#5470d3"/>
        </g>
      </g>
    </g>
    <g id="Group_3150" data-name="Group 3150" transform="translate(247.467 45.226)">
      <circle id="Ellipse_95" data-name="Ellipse 95" cx="24.227" cy="24.227" r="24.227" transform="matrix(0.928, -0.373, 0.373, 0.928, 0, 18.079)" fill="#ff771b"/>
      <g id="Group_3149" data-name="Group 3149" transform="translate(17.578 19.067)">
        <path id="Rectangle_736" data-name="Rectangle 736" d="M3.3,0H24.574a3.3,3.3,0,0,1,3.3,3.3V20.534a3.3,3.3,0,0,1-3.3,3.3H3.3a3.3,3.3,0,0,1-3.3-3.3V3.3A3.3,3.3,0,0,1,3.3,0Z" transform="translate(27.878 24.901) rotate(180)" fill="#fff"/>
        <path id="Path_5271" data-name="Path 5271" d="M408.025,84.931H435.9V81.858a1.915,1.915,0,0,0-1.915-1.915H409.94a1.915,1.915,0,0,0-1.915,1.915Z" transform="translate(-408.025 -78.879)" fill="#5470d3"/>
        <g id="Group_3136" data-name="Group 3136" transform="translate(4.478)">
          <g id="Group_3135" data-name="Group 3135">
            <g id="Group_3132" data-name="Group 3132" transform="translate(16.176)">
              <g id="Group_3131" data-name="Group 3131">
                <path id="Path_5272" data-name="Path 5272" d="M444.209,80.235h0a.565.565,0,0,0,.565-.565v-1a.565.565,0,0,0-.565-.565h0a.565.565,0,0,0-.565.565v1A.565.565,0,0,0,444.209,80.235Z" transform="translate(-443.644 -78.108)" fill="#fff"/>
                <path id="Path_5273" data-name="Path 5273" d="M447,80.235h0a.565.565,0,0,0,.565-.565v-1a.565.565,0,0,0-.565-.565h0a.565.565,0,0,0-.565.565v1A.565.565,0,0,0,447,80.235Z" transform="translate(-444.815 -78.108)" fill="#fff"/>
              </g>
            </g>
            <g id="Group_3134" data-name="Group 3134">
              <g id="Group_3133" data-name="Group 3133">
                <path id="Path_5274" data-name="Path 5274" d="M416.312,80.235h0a.565.565,0,0,0,.565-.565v-1a.565.565,0,0,0-.565-.565h0a.565.565,0,0,0-.565.565v1A.565.565,0,0,0,416.312,80.235Z" transform="translate(-415.747 -78.108)" fill="#fff"/>
                <path id="Path_5275" data-name="Path 5275" d="M419.1,80.235h0a.565.565,0,0,0,.565-.565v-1a.565.565,0,0,0-.565-.565h0a.565.565,0,0,0-.565.565v1A.565.565,0,0,0,419.1,80.235Z" transform="translate(-416.918 -78.108)" fill="#fff"/>
              </g>
            </g>
          </g>
        </g>
        <g id="Group_3148" data-name="Group 3148" transform="translate(3.745 9.019)">
          <g id="Group_3147" data-name="Group 3147">
            <g id="Group_3137" data-name="Group 3137" transform="translate(11.493)">
              <rect id="Rectangle_737" data-name="Rectangle 737" width="2.415" height="2.415" rx="0.793" fill="#dbe9ff"/>
            </g>
            <g id="Group_3138" data-name="Group 3138" transform="translate(5.747)">
              <rect id="Rectangle_738" data-name="Rectangle 738" width="2.415" height="2.415" rx="0.793" fill="#dbe9ff"/>
            </g>
            <g id="Group_3139" data-name="Group 3139">
              <rect id="Rectangle_739" data-name="Rectangle 739" width="2.415" height="2.415" rx="0.793" fill="#dbe9ff"/>
            </g>
            <g id="Group_3140" data-name="Group 3140" transform="translate(17.24 4.948)">
              <rect id="Rectangle_740" data-name="Rectangle 740" width="2.415" height="2.415" rx="0.793" fill="#dbe9ff"/>
            </g>
            <g id="Group_3141" data-name="Group 3141" transform="translate(11.493 4.948)">
              <rect id="Rectangle_741" data-name="Rectangle 741" width="2.415" height="2.415" rx="0.793" fill="#dbe9ff"/>
            </g>
            <g id="Group_3142" data-name="Group 3142" transform="translate(5.747 4.948)">
              <rect id="Rectangle_742" data-name="Rectangle 742" width="2.415" height="2.415" rx="0.793" fill="#dbe9ff"/>
            </g>
            <g id="Group_3143" data-name="Group 3143" transform="translate(0 4.948)">
              <rect id="Rectangle_743" data-name="Rectangle 743" width="2.415" height="2.415" rx="0.793" fill="#dbe9ff"/>
            </g>
            <g id="Group_3144" data-name="Group 3144" transform="translate(17.24 9.897)">
              <rect id="Rectangle_744" data-name="Rectangle 744" width="2.415" height="2.415" rx="0.793" fill="#dbe9ff"/>
            </g>
            <g id="Group_3145" data-name="Group 3145" transform="translate(11.493 9.897)">
              <rect id="Rectangle_745" data-name="Rectangle 745" width="2.415" height="2.415" rx="0.793" fill="#dbe9ff"/>
            </g>
            <g id="Group_3146" data-name="Group 3146" transform="translate(5.747 9.897)">
              <rect id="Rectangle_746" data-name="Rectangle 746" width="2.415" height="2.415" rx="0.793" fill="#dbe9ff"/>
            </g>
          </g>
        </g>
      </g>
    </g>
    <g id="Group_3152" data-name="Group 3152" transform="translate(314.077 54.931)">
      <circle id="Ellipse_96" data-name="Ellipse 96" cx="24.227" cy="24.227" r="24.227" transform="translate(0 34.263) rotate(-45)" fill="#ff771b"/>
      <g id="Group_3151" data-name="Group 3151" transform="translate(10.795 10.795)">
        <circle id="Ellipse_97" data-name="Ellipse 97" cx="16.594" cy="16.594" r="16.594" transform="translate(0 23.468) rotate(-45)" fill="#fff"/>
        <path id="Path_5276" data-name="Path 5276" d="M539.651,92.435a16.594,16.594,0,1,0,16.594,16.594A16.594,16.594,0,0,0,539.651,92.435Zm1.391,30.732V120.9a.763.763,0,0,0-.763-.763h-1.257a.763.763,0,0,0-.763.763v2.266a14.21,14.21,0,0,1-12.747-12.747h2.266a.763.763,0,0,0,.763-.763V108.4a.763.763,0,0,0-.763-.763h-2.266a14.21,14.21,0,0,1,12.747-12.747v2.266a.763.763,0,0,0,.763.763h1.257a.763.763,0,0,0,.763-.763V94.891a14.209,14.209,0,0,1,12.747,12.747h-2.266a.763.763,0,0,0-.763.763v1.257a.763.763,0,0,0,.763.763h2.266A14.209,14.209,0,0,1,541.042,123.167Z" transform="translate(-516.183 -85.562)" fill="#5470d3"/>
        <text id="_24_7" data-name="24/7" transform="translate(23.238 26.666)" fill="#d1c8d9" font-size="11" font-family="BebasKai, Bebas Kai"><tspan x="-8" y="0">24/7</tspan></text>
      </g>
    </g>
  </g>
</svg>
