<svg xmlns="http://www.w3.org/2000/svg" xmlns:xlink="http://www.w3.org/1999/xlink" width="1378.587" height="422.593" viewBox="0 0 1378.587 422.593">
  <defs>
    <clipPath id="clip-path">
      <path id="Path_5390" data-name="Path 5390" d="M-992.4-8708.287q.022-3.41-.09-6.849c-.252-7.354-.2-14.882,3.5-21.456,3.745-6.646,10.45-8.348,17.921-7.186,6.414,1,8.971,3.222,11.026,8.888a59.5,59.5,0,0,1,3.9,21.426c-.012,3.733-.195,7.588-1.824,10.942s-5.057,6.106-8.778,5.828c.169,6.4,1.116,16.616-5.8,19.318-6.213,2.43-19.618,2.095-20.808-6.691a16.158,16.158,0,0,1,0-3.243C-992.867-8694.377-992.44-8701.3-992.4-8708.287Z" transform="translate(993.43 8744.115)" fill="none"/>
    </clipPath>
    <clipPath id="clip-path-2">
      <path id="Path_5418" data-name="Path 5418" d="M-972.306-8605.231c-11.084,11.268-25.078,20.7-41.156,15.525-18.389-5.922-24.872-23.735-27.64-40.814-1.929-11.913.306-25.676,2.773-37.361,3.713-17.594,13.193-32.632,32.214-36.709,3.879-.833,7.873-1.1,11.705-2.131,7.131-1.914,14.341-6.442,21.343-4.1.722,8.8-8.845,16.115-13.388,22.494-3.852,5.41-5.879,11.587-7.376,18-.623,2.68-.524,21.61-1.633,22.094,7.877-3.445,12.658-10.271,20.016-14.126,3.791-1.986,8.564-2.616,12.3-.536,5.578,3.1,6.816,10.638,11.272,15.207,1.69,1.734,3.853,3.045,5.141,5.093,2.1,3.336,1.286,7.872-.928,11.133-3.178,4.68-8.389,7.638-11.982,12.087C-963.615-8614.451-967.871-8609.743-972.306-8605.231Z" transform="translate(1041.832 8711.477)" fill="none"/>
    </clipPath>
  </defs>
  <g id="Group_3462" data-name="Group 3462" transform="translate(0)">
    <g id="Group_3196" data-name="Group 3196" transform="translate(392.569 316.467)">
      <rect id="Rectangle_452" data-name="Rectangle 452" width="22" height="10" rx="5" fill="#3c2ab6"/>
      <rect id="Rectangle_453" data-name="Rectangle 453" width="16" height="10" rx="5" transform="translate(37)" fill="#3c2ab6" opacity="0.1"/>
      <rect id="Rectangle_454" data-name="Rectangle 454" width="16" height="10" rx="5" transform="translate(67)" fill="#3c2ab6" opacity="0.1"/>
    </g>
    <path id="Path_5367" data-name="Path 5367" d="M-630.563-8503.614c4.686,5.653-7.036,10.724-21.125,11.459-101.7,5.291-204.043,6.7-306.085,4.2-20.477-.5-41.079-1.167-60.995-3.874-30.427-4.143-14.277-17.111,7.512-19.147,80.695-7.537,163.276,1.777,245.042.075,35.046-.729,70.188-3.483,105.051-1.361,7.309.445,14.8,1.149,21.037,3.315C-635.068-8507.188-632.021-8505.374-630.563-8503.614Z" transform="translate(1240.017 8909.181)" opacity="0.11"/>
    <g id="Group_3406" data-name="Group 3406" transform="translate(220.255 290.846)">
      <path id="Path_5368" data-name="Path 5368" d="M-845.569-8497.807c-1.612-.474-161.219-47.5-163.192-48.035l.614-1.5c2,.543,156.654,46.109,163.238,48.05Z" transform="translate(1036.802 8597.101)"/>
      <path id="Path_5369" data-name="Path 5369" d="M-1020.338-8493.3l-.719-1.471L-848.478-8551l.719,1.471Z" transform="translate(1028.979 8594.771)"/>
      <path id="Path_5370" data-name="Path 5370" d="M-830.608-8455.592l-23.952-114.03-122.9-6.472-46.594,118.971-1.844-.482,47.054-120.146,125.935,6.632,24.21,115.259Z" transform="translate(1025.898 8577.752)"/>
    </g>
    <path id="Path_5371" data-name="Path 5371" d="M-927.481-8460.146c-16.349-1.626-32.255-4.9-46.216-10.981-47.918-20.866-78.862-65.85-76.89-119.232,1.459-39.524,22.475-77.853,55.013-100.337,11.424-7.895,24.236-13.937,37.826-16.785,28.48-5.971,59.687,3.194,80.416,23.615,31.8,31.325,39.493,85.579,79.351,105.67,12.4,6.251,26.754,8.342,38.4,15.9a48.152,48.152,0,0,1,21.542,39.076c.3,23.883-19.695,45.353-41.52,52.549-29.345,9.677-57.642,9.691-87.8,11.121C-886.163-8458.659-907.164-8458.125-927.481-8460.146Z" transform="translate(1230.39 8784.919)" fill="#344cb6"/>
    <path id="Path_5372" data-name="Path 5372" d="M-837.018-8533.123c-5.611-.865-11.987-1-16.231,2.765-4.8,4.257-4.783,12.181-1.438,17.651s9.192,8.9,15.091,11.415c13.81,5.89,28.9,7.919,43.786,9.895,5.067.67,10.249,1.341,15.254.3,7.759-1.613,13.819-7.978,12.167-16.292-1.469-7.39-6.281-7.836-12.759-9.541C-799.845-8521.849-817.845-8530.157-837.018-8533.123Z" transform="translate(1353.58 8896.668)" fill="#fd9d90"/>
    <path id="Path_5373" data-name="Path 5373" d="M-874.665-8626.246c.085-5.676-.659-12.009-4.979-15.7-4.879-4.157-12.725-3.052-17.681,1.018s-7.544,10.334-9.22,16.522c-3.925,14.492-3.85,29.723-3.749,44.734.034,5.111.088,10.337,1.81,15.151,2.669,7.46,9.809,12.582,17.815,9.795,7.117-2.475,6.893-7.3,7.687-13.953C-880.693-8587.869-874.951-8606.846-874.665-8626.246Z" transform="translate(1319.684 8826.087)" fill="#fd9d90"/>
    <path id="Path_5374" data-name="Path 5374" d="M-958.444-8708.831a80.319,80.319,0,0,1,12.182,4.922c4.65,2.5,8.757,5.894,13.253,8.663,5.527,3.4,11.192,5.92,16.495,9.685,5.416,3.84,10.149,8.539,15.185,12.846a191.812,191.812,0,0,0,16.127,12.608c6.018,4.1,12.463,6.036,14.953,13.762,5.794,17.978-7.859,36.938-26.742,37.485a16.138,16.138,0,0,1-7.286-1.235c-3.045-1.418-5.255-4.13-7.358-6.749-12.761-15.909-27.735-28.86-41.19-44.157-7.72-8.776-14.592-15.8-19.144-26.869q-.513-1.252-1-2.531C-977.259-8701.572-971.128-8713.161-958.444-8708.831Z" transform="translate(1278.961 8784.612)" fill="#ff5da1"/>
    <g id="Group_3407" data-name="Group 3407" transform="translate(354.107 87.464)">
      <path id="Path_5375" data-name="Path 5375" d="M-895.366-8645.671c-5.221,2.478-10.346,5.116-15.511,7.7-3.961,1.984-8.266,3.794-12.267,6.027-.669-1.548,2.152-5.5,1.528-7.059-3.382-8.493-5.841-12.461-9.146-20.835-3.559-9.016-9.788-20.642-13.328-29.665-.195-.5,13.243-12.047,15.663-12.554,0,0,9.554,11.8,14.462,17.294,10.015,11.21,20.255,22.046,29.921,33.424C-887.759-8649.335-891.552-8647.483-895.366-8645.671Z" transform="translate(944.092 8702.053)" fill="#fd9d90"/>
      <path id="Path_5376" data-name="Path 5376" d="M-939.054-8656.6a19.85,19.85,0,0,1-1.054-6.754c.286-8.684,11.979-13.148,17.705-17.541a44.916,44.916,0,0,1,11.933-6.539,7.751,7.751,0,0,1,2.405-.57c2.176-.064,4.025,1.49,5.637,2.953,7.008,6.359,14.091,12.8,19.32,20.688,6.175,9.314,11.786,25,3.065,34.4-3.258,3.51-7.854,5.482-12.478,6.725a39.476,39.476,0,0,1-17.894.951,26.149,26.149,0,0,1-15.32-8.893,44.3,44.3,0,0,1-5.121-8.943C-933.321-8645.324-937.2-8650.832-939.054-8656.6Z" transform="translate(946.622 8710.992)" fill="#ff5da1"/>
    </g>
    <path id="Path_5377" data-name="Path 5377" d="M-939.282-8716.83c4.914,5,9.11,11.229,9.066,18.186-.011,1.68-.555,3.7-2.174,4.151a3.01,3.01,0,0,1-1.708-.092c-4.992-1.581-2.233-7.086-3.492-10.683-1.247-3.56-4.714-5.86-7.435-8.225-2.664-2.314-1.172-7.207,2.721-5.775a6.218,6.218,0,0,1,2.086,1.508Q-939.747-8717.3-939.282-8716.83Z" transform="translate(1296.75 8778.4)" fill="#fd9d90"/>
    <path id="Path_5378" data-name="Path 5378" d="M-900.834-8570.191c9.074,2.089,17.9,2.926,27.166,4.346,6.691,1.024,13.446,1.449,20.192,1.906,5.812.4,11.133,2.151,17,2.574a1.745,1.745,0,0,0,1.261-.232,1.771,1.771,0,0,0,.458-1.262c.29-3.441.486-7.236-1.6-9.989-1.867-2.468-5.064-3.425-8.019-4.335a145.365,145.365,0,0,1-31.88-14.217c-2.492-1.5-2.682-2.826-3.735-5.053-.677-1.433,1.281-2.527-2.06-2.672q-13.2-.576-26.4-1.152c-.558,1.951-6.407,28.3-4.419,28.367A63.062,63.062,0,0,1-900.834-8570.191Z" transform="translate(1317.8 8854.266)" fill="#130d3c"/>
    <path id="Path_5379" data-name="Path 5379" d="M-786.747-8473.187a10.117,10.117,0,0,0,6.263-3.864,9.766,9.766,0,0,0,1.311-3.452c3.022-12.685,5.4-25.606,7.509-38.474,1.738-10.585,7.24-23.816-3.012-31.923a5.5,5.5,0,0,0-2.822-1.345c-2.467-.21-4.22,2.277-5.368,4.472a167.267,167.267,0,0,0-12.208,30.022c-.911,3.076-1.793,6.3-3.909,8.711s-5.894,3.716-8.61,2.008q-3.964,14.036-9.256,27.656C-811.048-8476.123-796.086-8470.991-786.747-8473.187Z" transform="translate(1379.151 8884.818)" fill="#130d3c"/>
    <path id="Path_5380" data-name="Path 5380" d="M-712.025-8444.784q4.239-10.948,8.479-21.9c-17.234-10.829-36.311-18.1-54.209-28.263-19.921-11.313-39.766-22.754-59.672-34.095-24.514-13.965-49.116-27.785-74.035-41.017-21.424-11.375-43.549-19.826-54.736-43.081-4.236-8.81-6.731-18.858-13.721-25.691-11.949-11.684-33.542-8.359-44.621,4.15s-12.913,31.139-8.876,47.355c4.945,19.868,18.069,37.307,34.881,48.773,17.6,12,32,21.819,52.935,27.989,19.451,5.734,38.413,13,57.351,20.248,9.93,3.8,19.947,7.652,28.832,13.493,8.852,5.823,16.357,13.483,25.05,19.544,13.6,9.481,29.62,14.734,45.385,19.861q24.028,7.816,48.054,15.629Q-716.478-8433.283-712.025-8444.784Z" transform="translate(1252.846 8825.153)" fill="#211572"/>
    <path id="Path_5381" data-name="Path 5381" d="M-909.888-8585.193c-.031,2.9-.01,5.873.012,8.874a1.127,1.127,0,0,1,.183-.024c11.417.8,41.355,4.3,52.792,4.258,4.046-.024-.555-21.6-1-23.934-1.232-6.506-.057-12.629-.044-19.244a162.463,162.463,0,0,0-2.341-25.632c-1.392-8.813-3.488-18.216-10.1-24.213-8.255-7.49-20.85-7.268-31.8-5.2a14.075,14.075,0,0,0-4.194,1.282c-5.295,2.887-4.279,8.793-4.742,13.76-.583,6.247-2.148,12.3-2.145,18.744,0,7.508,2.818,14.123,3.058,21.7Q-909.733-8600.016-909.888-8585.193Z" transform="translate(1317.813 8808.922)" fill="#211572"/>
    <path id="Path_5382" data-name="Path 5382" d="M-852.618-8591.207c1.091-2.383,2.119-4.776,3.1-7.159,7.142-17.36,20.183-33.326,20.449-52.962.111-8.252-4.755-16.986-12.715-19.168-8.215-2.249-16.554,2.742-23.27,7.979-12.834,10.009-23.421,22.3-32.691,35.609-3.467,4.981-7.936,15.727-15.3,13.831-5.778-1.487-10.905-14.107-15.012-18.254-6.811-6.875-17.07-9.7-26.7-8.705s-18.648,5.465-26.314,11.377c-8.156,6.288-15.459,15.633-14.214,25.856a29.874,29.874,0,0,0,3.618,10.208c15.276,28.841,49.338,44.879,81.953,43.657,9.328-.35,18.771-1.992,27.037-6.328C-868.091-8562.913-859.208-8576.812-852.618-8591.207Z" transform="translate(1265.544 8809.24)" fill="#211572"/>
    <path id="Path_5383" data-name="Path 5383" d="M-911.069-8594.134l-.712,0a265.919,265.919,0,0,1,6.854-57.411l.692.162A265.058,265.058,0,0,0-911.069-8594.134Z" transform="translate(1318.756 8821.646)"/>
    <path id="Path_5384" data-name="Path 5384" d="M-999.08-8729.721a6.831,6.831,0,0,1-1.558-7.877,6.838,6.838,0,0,1,7.17-3.618,8.446,8.446,0,0,1,1.669-7.663,8.452,8.452,0,0,1,7.307-2.843,4.782,4.782,0,0,0,1.918.051,4.5,4.5,0,0,0,1.626-1.138c2.829-2.527,14.606-5.17,14.171,1.591a4.783,4.783,0,0,1,5.09-2.234,9.958,9.958,0,0,1,5.071,2.954,9.149,9.149,0,0,1,3.03,5.213c.242,2.037-.952,4.348-2.963,4.743,1.8-.355,4.028,3.091,4.511,4.395.874,2.353.157,4.6-.9,6.771-3.142,6.471-8.661,11.659-14.013,16.31-2.873,2.5-5.851,4.878-8.824,7.257-1.561,1.248-3.639,4.462-5.74,4.358a3.532,3.532,0,0,1-1.846-.754,1.112,1.112,0,0,1-.553.094c-1.351-.13-2.044-1.13-2.809-2.151a34.209,34.209,0,0,1-1.959-2.907c-2.2-3.657-2.047-4.05-6.417-4.437-1.417-.126-2.976-.645-3.585-1.932-.708-1.494.191-3.221,1.064-4.624-2.966,1.251-6.64-1.361-6.919-4.567S-1002.21-8728.963-999.08-8729.721Z" transform="translate(1259.73 8755.507)" fill="#130d3c"/>
    <path id="Path_5385" data-name="Path 5385" d="M-998.48-8694.483c3.477-7.24,11.069-11.815,18.9-13.628,10.85-2.51,27.75-4.82,38.305.1,6.995,3.266,10.68,10.9,12.841,17.914a104.3,104.3,0,0,0,9.855,22.786,113.779,113.779,0,0,1,14.436,57.647c-.258,11.822-3.608,25.323-14.225,30.527-4.866,2.386-10.48,2.577-15.9,2.667q-28.087.472-56.163-1.01a10.326,10.326,0,0,1-5.2-1.213c-1.671-1.095-2.549-3.029-3.346-4.86-5.2-11.982-8.642-20.685-9.4-33.609-.772-13.2-.812-26.323-.812-39.531.167-7.464.185-12.268,3.778-18.522C-1001.9-8681.326-1001.482-8688.227-998.48-8694.483Z" transform="translate(1256.782 8783.886)" fill="#130d3c"/>
    <path id="Path_5386" data-name="Path 5386" d="M-935.225-8690.848c2.559,3.272-2.006,9.585-.995,13.733,10.408,42.7,19.1,45.066,21.331,67.189,1.25,12.384,1.952,25.169-2.2,37.308-2.238,6.536-7.127,12.574-13.815,14.3-3.719.965-7.654.532-11.419-.229-6.082-1.231-13.014-4.515-13.677-10.687a22.066,22.066,0,0,1,.43-5.307c1.728-12.707-4.555-23.7-6.016-35.882-1.031-8.6-.046-17.242.008-25.864.026-4.289.262-9.321-1-13.472-1.046-3.439-2.572-5.861-2.9-9.671-.617-7.08-1.154-14.428-2.652-21.385-1.245-5.773-2.556-11.263-5.745-16.342a20.1,20.1,0,0,1-2.865-5.715,18.817,18.817,0,0,1-.273-5.071c.056-1.877-.039-3.771-.057-5.647a6.738,6.738,0,0,0,2.078.814c.8.276,1.6.541,2.4.8,1.628.526,3.264,1.024,4.9,1.525,3.305,1.01,6.615,2.01,9.861,3.2a56.425,56.425,0,0,1,9.472,4.382A47.7,47.7,0,0,1-935.225-8690.848Z" transform="translate(1277.215 8782.178)" fill="#ff5da1"/>
    <path id="Path_5387" data-name="Path 5387" d="M-992.487-8713.64c-.231-6.74-.342-14.891,4-20.5,3.451-4.456,7.8-4.728,12.751-6.475,5.571-1.968,10.878-4.8,16.753-5.809a1.25,1.25,0,0,1,.892.077,1.243,1.243,0,0,1,.412.62c1.909,4.781,1.988,9.273,2.482,14.273.406,4.127,1.518,8.006,1.494,12.234-.034,5.723-.522,14.581-4.776,19.03-3.423,3.578-8.625,5.378-8.674,5.024a45.223,45.223,0,0,1,.5,7.545c-.213,4.47-1.191,9.9-5.892,11.738-6.213,2.429-19.618,2.095-20.808-6.69a16.168,16.168,0,0,1,0-3.244c.479-7.066.906-13.987.949-20.978Q-992.375-8710.2-992.487-8713.64Z" transform="translate(1266.811 8761.262)" fill="#fd9d90"/>
    <g id="Group_3408" data-name="Group 3408" transform="translate(267.489 39.263)">
      <circle id="Ellipse_99" data-name="Ellipse 99" cx="6.517" cy="6.517" r="6.517" fill="#fd9d90"/>
      <path id="Path_5388" data-name="Path 5388" d="M-991.048-8729.332a3.887,3.887,0,0,0-3.225,2.587,3.892,3.892,0,0,0,1.042,4" transform="translate(998.669 8732.898)" fill="#09222f"/>
    </g>
    <g id="Group_3410" data-name="Group 3410" transform="translate(273.38 18.642)">
      <g id="Group_3409" data-name="Group 3409" clip-path="url(#clip-path)">
        <path id="Path_5389" data-name="Path 5389" d="M-973.615-8714.374c1.083,0,1.954.019,3.034-.069l2.42-.2c-.506.821-1.047,1.609-1.479,2.48a25.2,25.2,0,0,0-1.268,3.612,9.892,9.892,0,0,1-4.254-1.262c-2.868-1.471-5.583-3.519-7.026-6.4A19.913,19.913,0,0,0-973.615-8714.374Z" transform="translate(1000.582 8761.864)" fill="#09222f"/>
      </g>
    </g>
    <path id="Path_5391" data-name="Path 5391" d="M-1024.638-8636.1q-.115,1.165-.16,2.332c-.318,8.752-1.049,15.1-4.495,23.424-1.559,3.768-3.115,7.6-3.636,11.64-.586,4.556.17,9.167.925,13.7,1.032,6.208,2.529,13.147,7.836,16.531,1.844,1.177,3.994,1.793,5.872,2.912,5.725,3.414,1.119,16.065,2.947,16.91,5.457,2.411,11.489,1.452,17.233.979,10.092-.836,20.227-1.694,30.144-3.836,4.444-.962,10.357-1.832,14.287-4.22,3.353-2.037,5.339-7.144,6.312-10.734a49.994,49.994,0,0,0,1.407-12.369,222.978,222.978,0,0,0-4.277-45.522c-1.761-8.926-4.532-17.7-5.133-26.78-.244-3.684-.133-7.426-1.039-11-1-3.935-3.173-7.447-4.972-11.087-4.4-8.889-5.509-18.229-5.953-28.021-.234-5.122,1.572-16.947-6.923-12.328-7.427,4.042-17.255,2.585-23.925,7.784-1.474,1.147-2.726,2.582-4.3,3.6s-3.637,1.565-5.311.73a2.267,2.267,0,0,0-1.371-.443c-.764.146-.952,1.132-1.014,1.906-.558,6.874-5.061,13.045-7.394,19.464-2.567,7.06-3.444,14.786-3.554,22.243C-1021.238-8650.749-1023.91-8643.484-1024.638-8636.1Z" transform="translate(1241.548 8781.516)" fill="#ff5da1"/>
    <path id="Path_5392" data-name="Path 5392" d="M-935.584-8626.993c-7.515-4.09-11.714-12.63-12.932-21.1-.17-1.174-.5-2.606-1.638-2.919" transform="translate(1294.343 8821.99)" fill="none" stroke="#09222f" stroke-width="0.5"/>
    <circle id="Ellipse_100" data-name="Ellipse 100" cx="2.633" cy="2.633" r="2.633" transform="translate(316.902 119.69)" fill="#09222f"/>
    <path id="Path_5393" data-name="Path 5393" d="M-964.155-8669.5a2.634,2.634,0,0,0,2.633,2.636,2.635,2.635,0,0,0,2.634-2.636,2.634,2.634,0,0,0-2.634-2.632A2.633,2.633,0,0,0-964.155-8669.5Z" transform="translate(1285.436 8808.551)" fill="#09222f"/>
    <path id="Path_5394" data-name="Path 5394" d="M-963.068-8658.627a2.633,2.633,0,0,0,2.634,2.633,2.632,2.632,0,0,0,2.633-2.633,2.632,2.632,0,0,0-2.633-2.634A2.634,2.634,0,0,0-963.068-8658.627Z" transform="translate(1286.127 8815.469)" fill="#09222f"/>
    <circle id="Ellipse_101" data-name="Ellipse 101" cx="2.633" cy="2.633" r="2.633" transform="translate(324.838 172.713)" fill="#09222f"/>
    <path id="Path_5395" data-name="Path 5395" d="M-963.311-8754.05a5.294,5.294,0,0,1,4.58-.116,4.137,4.137,0,0,1,1.942,5.4,4.461,4.461,0,0,1,5.537.53,7.691,7.691,0,0,1,2.173,5.471,12.543,12.543,0,0,1-7.155,11.514c-2.364,1.076-5.436,1.258-7.317-.532a5.5,5.5,0,0,1-5.495,3.978,5.5,5.5,0,0,1-4.956-4.63,12.447,12.447,0,0,1-5.072,3.376,6.19,6.19,0,0,1-5.812-.984,8.039,8.039,0,0,1-2.132-3.714c-1.446-4.524-.4-7.988,2.387-11.631a15.272,15.272,0,0,1,9.834-5.6c1.947-.28,7.782.28,7.458,3.527a8.693,8.693,0,0,1,2.647-5.679A5.972,5.972,0,0,1-963.311-8754.05Z" transform="translate(1270.477 8756.066)" fill="#130d3c"/>
    <path id="Path_5396" data-name="Path 5396" d="M-933.947-8635.658c-.792-5.221-3.233-16.378-5.491-21.149-1.327-2.806-3.127-5.372-4.383-8.21-3.346-7.556-2.611-16.47-6.178-23.927" transform="translate(1294.44 8797.856)" fill="none" stroke="#09222f" stroke-width="0.5"/>
    <path id="Path_5397" data-name="Path 5397" d="M-980.95-8732.947a3.346,3.346,0,0,1-.4.558c-1.054,1.188-3.038.572-3.92,1.655-.9,1.1.111,2.849-.177,4.179a4.73,4.73,0,0,1-5.9,3.229c-5.012-1.631-3.706-8.693-2.193-12.332a14.553,14.553,0,0,1,7.69-8.137c3.267-1.288,10.626-.491,8.855,4.9a2.961,2.961,0,0,1-3.928,1.811A4.418,4.418,0,0,1-980.95-8732.947Z" transform="translate(1265.871 8762.617)" fill="#130d3c"/>
    <path id="Path_5398" data-name="Path 5398" d="M-966.531-8725.068a10.649,10.649,0,0,1-6.957,4.309,8.008,8.008,0,0,1-7.435-2.979" transform="translate(1274.767 8774.872)" fill="none" stroke="#09222f" stroke-width="1"/>
    <path id="Path_5399" data-name="Path 5399" d="M-935.661-8677.793c-3.374,2.63-4.442,7.382-3.9,11.624s2.431,8.175,4.007,12.151" transform="translate(1300.998 8804.951)" fill="none" stroke="#09222f" stroke-width="0.5"/>
    <path id="Path_5400" data-name="Path 5400" d="M-914.573-8583.561c-12.5-10.568-27.855-17.187-40.969-26.979-3.22-2.4-6.3-4.994-9.354-7.606" transform="translate(1284.964 8842.898)" fill="none" stroke="#09222f" stroke-width="0.5"/>
    <g id="Group_3413" data-name="Group 3413" transform="translate(330.076 44.316)">
      <g id="Group_3412" data-name="Group 3412" transform="translate(0 0)">
        <g id="Group_3411" data-name="Group 3411">
          <path id="Rectangle_757" data-name="Rectangle 757" d="M.783,0H25.867a.78.78,0,0,1,.78.78V53.3a.9.9,0,0,1-.9.9H.9a.9.9,0,0,1-.9-.9V.783A.783.783,0,0,1,.783,0Z" fill="#130d3c"/>
        </g>
      </g>
    </g>
    <g id="Group_3426" data-name="Group 3426" transform="translate(326.402 59.861)">
      <g id="Group_3416" data-name="Group 3416" transform="translate(5.873)">
        <g id="Group_3415" data-name="Group 3415">
          <g id="Group_3414" data-name="Group 3414">
            <path id="Path_5401" data-name="Path 5401" d="M-953.9-8718.845c8.107,1.8,15.4,3.889,22.668,9.724,4.521,3.626.178,6.936-2.862,4.894a62.024,62.024,0,0,0-21.313-9.15C-958.963-8714.17-957.456-8719.637-953.9-8718.845Z" transform="translate(957.436 8718.923)" fill="#fd9d90"/>
          </g>
        </g>
      </g>
      <g id="Group_3419" data-name="Group 3419" transform="translate(0 5.503)">
        <g id="Group_3418" data-name="Group 3418">
          <g id="Group_3417" data-name="Group 3417">
            <path id="Path_5402" data-name="Path 5402" d="M-957.5-8715.461c9.274,2.347,17.935,6.432,26.528,10.548,3.291,1.574.417,6.465-2.86,4.9-8.168-3.911-16.362-7.747-25.175-9.978C-962.542-8710.888-961.045-8716.357-957.5-8715.461Z" transform="translate(961.025 8715.56)" fill="#fd9d90"/>
          </g>
        </g>
      </g>
      <g id="Group_3422" data-name="Group 3422" transform="translate(1.869 13.31)">
        <g id="Group_3421" data-name="Group 3421">
          <g id="Group_3420" data-name="Group 3420">
            <path id="Path_5403" data-name="Path 5403" d="M-957.856-8710.675c1.749-.4,3.582.354,5.251.847q3.159.939,6.219,2.171a75.844,75.844,0,0,1,11.5,5.808c3.1,1.913.254,6.819-2.862,4.9a69.136,69.136,0,0,0-9.547-4.987q-2.4-1-4.879-1.814-1.205-.394-2.422-.747a8.532,8.532,0,0,1-1.885-.584,2.685,2.685,0,0,1-2.541-.757l-.082-.094C-960.459-8707.447-960.044-8710.171-957.856-8710.675Z" transform="translate(959.882 8710.789)" fill="#fd9d90"/>
          </g>
        </g>
      </g>
      <g id="Group_3425" data-name="Group 3425" transform="translate(4.174 21.101)">
        <g id="Group_3424" data-name="Group 3424">
          <g id="Group_3423" data-name="Group 3423">
            <path id="Path_5404" data-name="Path 5404" d="M-954.984-8705.89A72.732,72.732,0,0,1-938.095-8698c3.119,1.884.273,6.787-2.862,4.9a66.939,66.939,0,0,0-15.534-7.315C-959.973-8701.48-958.489-8706.954-954.984-8705.89Z" transform="translate(958.474 8706.026)" fill="#fd9d90"/>
          </g>
        </g>
      </g>
    </g>
    <g id="Group_3429" data-name="Group 3429" transform="translate(342.154 50.426)">
      <g id="Group_3428" data-name="Group 3428">
        <g id="Group_3427" data-name="Group 3427">
          <path id="Path_5405" data-name="Path 5405" d="M-951.4-8722.936a1.755,1.755,0,0,0,1.756,1.755,1.755,1.755,0,0,0,1.754-1.755,1.755,1.755,0,0,0-1.754-1.754A1.755,1.755,0,0,0-951.4-8722.936Z" transform="translate(951.397 8724.689)" fill="#fff" opacity="0.54"/>
        </g>
      </g>
    </g>
    <g id="Group_3432" data-name="Group 3432" transform="translate(345.042 69.563)">
      <g id="Group_3431" data-name="Group 3431">
        <g id="Group_3430" data-name="Group 3430">
          <path id="Path_5406" data-name="Path 5406" d="M-949.067-8693.973a3.832,3.832,0,0,0-.545,2.6,6.413,6.413,0,0,0,1.407,3.1c2.6,3.687,5.748,7.3,10.025,8.729a12.6,12.6,0,0,0,11.5-1.963c3.2-2.484,5.334-2.578,5.044-6.619-.126-1.738-2.021-6.653-2.669-8.271-1.646-4.105-7.468-15.562-12.792-16.565C-941.037-8713.705-943.462-8701.266-949.067-8693.973Z" transform="translate(949.632 8712.992)" fill="#fd9d90"/>
        </g>
      </g>
    </g>
    <g id="Group_3449" data-name="Group 3449" transform="translate(260.436 79.77)">
      <g id="Group_3445" data-name="Group 3445" transform="translate(32.702)">
        <g id="Group_3435" data-name="Group 3435">
          <g id="Group_3434" data-name="Group 3434">
            <g id="Group_3433" data-name="Group 3433">
              <path id="Path_5407" data-name="Path 5407" d="M-954.713-8706.731a4.724,4.724,0,0,0-2.1.352,107.3,107.3,0,0,0-20.358,9.443,11.376,11.376,0,0,0-3.379,2.693c-.792,1.044-1.178,2.627-.311,3.608.941,1.066,2.7.735,3.92,0a124.516,124.516,0,0,1,14.472-7.418c2.626-1.162,8.788-2.819,9.4-6.05a2.268,2.268,0,0,0-1.044-2.437A2,2,0,0,0-954.713-8706.731Z" transform="translate(981.354 8706.755)" fill="#fd9d90"/>
            </g>
          </g>
        </g>
        <g id="Group_3438" data-name="Group 3438" transform="translate(4.793 10.92)">
          <g id="Group_3437" data-name="Group 3437">
            <g id="Group_3436" data-name="Group 3436">
              <path id="Path_5408" data-name="Path 5408" d="M-961.682-8698.68a3.428,3.428,0,0,0-1.942-1.217c-2.029-.656-3.847.594-5.653,1.416-2.58,1.172-5.138,2.393-7.694,3.617-3.29,1.574-.417,6.463,2.86,4.895,2.783-1.332,5.57-2.658,8.387-3.912C-963.914-8694.687-960.61-8696.971-961.682-8698.68Z" transform="translate(978.425 8700.08)" fill="#fd9d90"/>
            </g>
          </g>
        </g>
        <g id="Group_3441" data-name="Group 3441" transform="translate(8.099 16.75)">
          <g id="Group_3440" data-name="Group 3440">
            <g id="Group_3439" data-name="Group 3439">
              <path id="Path_5409" data-name="Path 5409" d="M-961.526-8695.337c-.473-1.008-1.751-1.548-3.5-.9a58.084,58.084,0,0,0-10.045,5.205c-3.1,1.912-.254,6.82,2.862,4.895,3.07-1.894,6.911-3.208,9.567-5.673C-961.354-8693-961.079-8694.382-961.526-8695.337Z" transform="translate(976.405 8696.519)" fill="#fd9d90"/>
            </g>
          </g>
        </g>
        <g id="Group_3444" data-name="Group 3444" transform="translate(10.397 23.535)">
          <g id="Group_3443" data-name="Group 3443">
            <g id="Group_3442" data-name="Group 3442">
              <path id="Path_5410" data-name="Path 5410" d="M-961.14-8691.379a2.97,2.97,0,0,0-.9-.819c-1.407-.765-4.076,1.224-5.306,1.855-2.145,1.1-4.238,2.3-6.3,3.548-3.119,1.885-.273,6.786,2.862,4.9,3.158-1.906,8.489-3.42,10.055-7.03a2.241,2.241,0,0,0,.229-1.311,2.416,2.416,0,0,0-.45-.894C-961.014-8691.216-961.076-8691.3-961.14-8691.379Z" transform="translate(975 8692.371)" fill="#fd9d90"/>
            </g>
          </g>
        </g>
      </g>
      <g id="Group_3448" data-name="Group 3448" transform="translate(0 9.688)">
        <g id="Group_3447" data-name="Group 3447">
          <g id="Group_3446" data-name="Group 3446">
            <path id="Path_5411" data-name="Path 5411" d="M-951.545-8681.812a3.833,3.833,0,0,1,.545,2.6,6.4,6.4,0,0,1-1.407,3.1c-4.054,5.755-9.264,9.583-12.864,15.823a102.551,102.551,0,0,1-10.149,14.525c-2.392,2.86-5.144,5.718-8.749,6.673-5.2,1.379-10.586-1.607-14.48-5.316a7.7,7.7,0,0,1-2.636-4.1c-.407-2.554,1.5-4.836,3.281-6.715,7.263-7.68,17.617-15.391,20.8-25.566,1.939-6.2,6.185-18.512,13.682-20.013C-959.575-8701.545-957.15-8689.105-951.545-8681.812Z" transform="translate(1001.341 8700.834)" fill="#fd9d90"/>
          </g>
        </g>
      </g>
    </g>
    <path id="Path_5412" data-name="Path 5412" d="M-972.306-8605.194c-11.084,11.269-25.078,20.7-41.156,15.525-18.389-5.92-24.872-23.735-27.64-40.812-1.929-11.915.306-25.677,2.773-37.363,3.713-17.593,13.193-32.633,32.214-36.709,5.843-1.253,17.1-6.61,23.061-6.982,1.874-.118-1.059,4.981.726,5.568a5.306,5.306,0,0,1,3.737,3.836c.619,3.61-5.568,10.022-7.505,13.352a64.708,64.708,0,0,0-7.734,18.492c-.623,2.678-.524,21.608-1.633,22.094,7.877-3.444,12.658-10.271,20.016-14.126,3.791-1.987,8.564-2.615,12.3-.538,5.578,3.1,6.816,10.639,11.272,15.21,1.69,1.733,3.853,3.042,5.141,5.092,2.1,3.336,1.286,7.87-.928,11.133-3.178,4.679-8.389,7.637-11.982,12.088C-963.615-8614.414-967.871-8609.7-972.306-8605.194Z" transform="translate(1236.018 8783.482)" fill="#ff5da1"/>
    <path id="Path_5413" data-name="Path 5413" d="M-975.383-8680.218a124.161,124.161,0,0,0-44.41,31.1" transform="translate(1250.038 8803.408)" fill="none" stroke="#09222f" stroke-width="0.5"/>
    <path id="Path_5414" data-name="Path 5414" d="M-950.838-8666.4c-.633,6.241-1.393,12.682-4.519,18.118-4.262,7.411-12.19,11.787-18.427,17.63-3.58,3.353-6.65,7.245-10.455,10.339-12.641,10.284-37.1,6.329-48.592-5.221" transform="translate(1241.742 8812.197)" fill="none" stroke="#09222f" stroke-width="0.5"/>
    <path id="Path_5415" data-name="Path 5415" d="M-1014.088-8651.311a3.686,3.686,0,0,1,.208-2.734q2.562-7.4,5.125-14.809c2.583-7.463,5.2-15.4,3.482-23.113" transform="translate(1253.544 8795.936)" fill="none" stroke="#09222f" stroke-width="0.5"/>
    <g id="Group_3451" data-name="Group 3451" transform="translate(194.185 72.045)">
      <g id="Group_3450" data-name="Group 3450" clip-path="url(#clip-path-2)">
        <path id="Path_5416" data-name="Path 5416" d="M-950.848-8645.051q-5.326,6.65-10.65,13.3c-3.647,4.553-7.334,9.147-11.892,12.792-7.247,5.789-16.4,8.934-23.262,15.173a78.774,78.774,0,0,1-6.281,5.79c-6.748,4.914-15.249,4.813-20.374-1.786a62.71,62.71,0,0,1-11.115-20.787c-3.141-10.9-2.266-22.519-.769-33.758,1.119-8.406,2.61-16.889,6.221-24.563,4.894-10.4,13.8-20.087,12.468-31.5" transform="translate(1045.194 8712.166)" fill="none" stroke="#fff" stroke-width="1"/>
        <path id="Path_5417" data-name="Path 5417" d="M-955.714-8650.251c-4.154,5.687-9.559,10.322-14.909,14.9l-37.32,31.934a12.889,12.889,0,0,1-5.02,3.095c-2.818.7-5.828-.631-7.893-2.672a25.66,25.66,0,0,1-4.634-7.321c-4.758-9.83-6.177-17.543-5.647-28.737a103.224,103.224,0,0,1,6.46-31.394c2.629-6.985,6.02-13.687,8.243-20.813s3.227-14.9.977-22.025" transform="translate(1048.57 8710.326)" fill="none" stroke="#fff" stroke-width="1"/>
      </g>
    </g>
    <g id="Group_3459" data-name="Group 3459" transform="translate(417.454 4.514)">
      <g id="Group_3458" data-name="Group 3458">
        <path id="Path_5419" data-name="Path 5419" d="M-754.407-8791.382a72.464,72.464,0,0,1-8.873.431H-936.612c-8.574,0-18-7.417-16.864-17.566,1.566-14.041,16.648-17.594,27.305-18.165a1309.336,1309.336,0,0,1,156.012.938c6.926.455,13.854.965,20.749,1.826,3.776.47,7.882,1.235,10.39,4.329,2.354,2.9,2.662,7.251,1.679,10.969C-739.789-8799.363-745.38-8792.5-754.407-8791.382Z" transform="translate(953.569 8828.563)" fill="#ffc6af"/>
        <path id="Path_5420" data-name="Path 5420" d="M-929.068-8808.7c4.364,18.024-.46,39-10.1,50.933,21.107-7.8,24.519-38.032,27.073-57.817" transform="translate(962.734 8836.82)" fill="#ffc6af"/>
        <path id="Path_5425" data-name="Path 5425" d="M-942.789-8809.535c3.4-4.225,8.487-8.866,13.1-6.327,1.676.923,2.862,2.67,4.524,3.62,7.06,4.037,15.011-8.453,22.444-5.3,3.06,1.3,4.825,4.935,7.824,6.388,3.639,1.765,7.862-.175,11.244-2.463s6.843-5.061,10.83-5.032c6.817.053,12.314,8.3,19.018,6.963,4.6-.915,7.6-6.081,12.109-7.39,8.253-2.391,16.069,9.031,24.255,6.382,4.966-1.605,8.426-8.123,13.572-7.454,3.739.487,6.013,4.575,9.069,6.96,5.787,4.515,15.184,1.587,17.874-5.572" transform="translate(960.428 8833.889)" fill="none" stroke="#09222f" stroke-width="0.5"/>
      </g>
    </g>
    <path id="Path_5428" data-name="Path 5428" d="M-1029.15-8757.72c-2.9.873-5.027,4.966-5.027,4.966s-2.146-4.057-5.049-4.883c-8.4-2.392-12.154,5.185-8.939,12.178,3.1,6.745,14.035,14.86,14.035,14.86s10.9-8.3,13.971-15.094C-1016.973-8752.739-1020.76-8760.252-1029.15-8757.72Z" transform="translate(1113.767 8857.383)" fill="#ff5da1"/>
    <g id="Group_3454" data-name="Group 3454" transform="translate(487.901 96.242)">
      <path id="Path_5429" data-name="Path 5429" d="M-831.822-8675.852l-.229,0a2.739,2.739,0,0,0,2.793-2.73,2.808,2.808,0,0,0-2.783-2.755c-2.356-.045-6.841.8-8.9-.177-3.6-1.694-.811-7.765-.772-10.617a6.2,6.2,0,0,0-.569-3.11,2.558,2.558,0,0,0-2.634-1.4c-1.412.322-1.958,1.99-2.376,3.38-.974,3.236-3.274,6.205-5.138,8.976a24.365,24.365,0,0,0-4.02,10.5,51.235,51.235,0,0,0-.285,9.438c.195,3.124,1.473,4.471,4.444,4.546,2.112.054,4.226.084,6.339.126l4.966.1,6.368.128a2.807,2.807,0,0,0,2.891-2.643,2.742,2.742,0,0,0-2.683-2.84l1.108.022a2.8,2.8,0,0,0,2.865-2.465,2.8,2.8,0,0,0-1.494-2.753,2.749,2.749,0,0,0,2.8-2.693l0-.224A2.748,2.748,0,0,0-831.822-8675.852Z" transform="translate(865.81 8696.687)" fill="#344cb6"/>
      <path id="Path_5430" data-name="Path 5430" d="M-856.072-8684.661q-.972-.243-1.942-.489a3.125,3.125,0,0,0-2.143-.025c-2.6,1.292-1.908,7.851-1.916,10.2s-1.342,7.928,2.264,8.254c1.239.109,2.644.169,3.549-.683a4.31,4.31,0,0,0,1.031-2.512,60.356,60.356,0,0,0,.8-8.213c.034-1.263.329-5.042-.584-6.11a1.262,1.262,0,0,0-.669-.325C-855.814-8684.595-855.943-8684.629-856.072-8684.661Z" transform="translate(862.321 8703.893)" fill="#344cb6"/>
    </g>
    <g id="Group_3455" data-name="Group 3455" transform="translate(0 147.496)">
      <path id="Path_5431" data-name="Path 5431" d="M-1055.772-8708.139l-.24-.006a2.846,2.846,0,0,0,2.9-2.834,2.915,2.915,0,0,0-2.892-2.861c-2.446-.049-7.1.826-9.245-.182-3.735-1.762-.844-8.068-.8-11.029a6.455,6.455,0,0,0-.592-3.23,2.657,2.657,0,0,0-2.736-1.451c-1.468.334-2.034,2.07-2.468,3.51-1.013,3.365-3.4,6.447-5.336,9.324a25.267,25.267,0,0,0-4.176,10.9,53.08,53.08,0,0,0-.3,9.8c.2,3.242,1.531,4.645,4.617,4.721,2.194.057,4.388.088,6.582.133l5.159.1,6.614.131a2.911,2.911,0,0,0,3-2.742,2.847,2.847,0,0,0-2.787-2.949l1.15.023a2.9,2.9,0,0,0,2.974-2.561,2.909,2.909,0,0,0-1.552-2.859,2.856,2.856,0,0,0,2.911-2.8l0-.229A2.854,2.854,0,0,0-1055.772-8708.139Z" transform="translate(1091.074 8729.78)" fill="#344cb6"/>
      <path id="Path_5432" data-name="Path 5432" d="M-1080.747-8717.727q-1.009-.253-2.017-.509a3.263,3.263,0,0,0-2.228-.026c-2.7,1.344-1.98,8.156-1.988,10.6s-1.393,8.233,2.352,8.572c1.286.116,2.745.176,3.686-.709a4.474,4.474,0,0,0,1.071-2.608,62.362,62.362,0,0,0,.826-8.529c.037-1.312.343-5.235-.607-6.346a1.272,1.272,0,0,0-.693-.337Z" transform="translate(1087.239 8737.701)" fill="#344cb6"/>
    </g>
    <path id="Path_5433" data-name="Path 5433" d="M-470.305-8459.277l-93.635-119.937-109.5,121.937" transform="translate(1470.393 8867.665)" fill="none" stroke="#000" stroke-width="1"/>
    <path id="Path_5434" data-name="Path 5434" d="M-534.406-8459.277l-51.815-119.937-59.007,121.937" transform="translate(1488.34 8867.665)" fill="none" stroke="#000" stroke-width="1"/>
    <path id="Path_5435" data-name="Path 5435" d="M-700.645-8531.593c-3.614,24.781,18.9,52.865,40.239,64.808,30.366,17,67.921,20.28,102.076,20.28,51.631,0,118.619-15.409,147.264-63.515,11.257-18.9,16.094-40.973,18.35-62.86,6.694-64.954-38.979-165.418-121.073-135.1-33.285,12.3-45.143,52.031-65.1,81.369a140.1,140.1,0,0,1-61.122,50.009c-15.623,6.567-32.79,10.474-46.053,21.023C-694.911-8548.542-699.38-8540.27-700.645-8531.593Z" transform="translate(1452.838 8782.208)" fill="#ff771b"/>
    <path id="Path_5436" data-name="Path 5436" d="M-554.2-8614.092c15.2-.9,32.191-2.228,43.85,7.565a19.531,19.531,0,0,1,6.453,9.324c1.389,4.861.2,10.143-1.975,14.707-6.273,13.142-19.971,21.184-33.8,25.747-23.93,7.9-50.217,7.587-74.506.878s-46.627-19.624-65.833-35.937c-8.546-7.259-21.1-19.953-12.522-31.734a17.446,17.446,0,0,1,14.7-6.811,37.8,37.8,0,0,1,10.442,2.506c15.087,5.184,28.452,9.081,44.186,11.186A360.288,360.288,0,0,0-554.2-8614.092Z" transform="translate(1456.414 8835.125)" fill="#211572"/>
    <path id="Path_5437" data-name="Path 5437" d="M-612.411-8600.856c6.393-14.3,13.244-28.851,15.667-44.244,1.6-10.146,6.746-20.157,3.156-30.451-3.241-9.289-12.55-10.461-21.447-7.436-10.141,3.451-15.534,14.3-19.27,24.34a272.684,272.684,0,0,0-12.748,46.463c-1.3,7.174-1.752,14.9,3.973,20.113,5.107,4.65,14.472,7.827,20.878,4.323C-617.326-8590.412-614.679-8595.781-612.411-8600.856Z" transform="translate(1486.652 8800.699)" fill="#fd9d90"/>
    <path id="Path_5438" data-name="Path 5438" d="M-503.108-8635.341c.1-15.876,3.251-30.782,4.017-46.65-7.284-1.894-8.626-1.283-10.509-.769-4.918,1.341-7.922,6.116-11.54,9.709-7.289,7.234-17.6,8.086-27.318,6.688-8.142-1.17-16.208-3.638-23.077-8.165-6.226-4.105-12.962-11.285-14.34-18.935a2.4,2.4,0,0,0-.43-1.208,2.2,2.2,0,0,0-1.168-.551c-5.242-1.277-10.742-2.555-15.968-1.216a25.142,25.142,0,0,0-7.579,3.648c-11.527,7.671-19.518,19.5-27.205,31.013,1.464-.772,10.249,4.64,11.718,5.333,5.216,2.465,11.524,3.1,16.339,5.807-4.346,8.269-9.163,16.026-12.375,24.923a15.868,15.868,0,0,0-1.309,7.111c.26,2.237,1.389,4.265,2.061,6.415,3.338,10.663-3.991,19.595-6.681,29.289-6.839,24.648,23.758,33.3,43,35.324,12.4,1.3,24.916-2.189,36.126-7.657,11.368-5.541,21.922-13.349,28.846-23.933,4.642-7.093,7.674-14.773,10.545-22.7,1.486-4.1,1.739-13.3,6.321-15.29.1-.046.227-.077.339-.117C-503.271-8623.3-503.147-8629.324-503.108-8635.341Z" transform="translate(1492.794 8792.727)" fill="#344cb6"/>
    <path id="Path_5439" data-name="Path 5439" d="M-576.424-8573.791a13.785,13.785,0,0,1-3.529-10.068c.455-5.324,4.161-9.7,7.3-14.027,10.212-14.077,15.7-30.935,21.109-47.466,4.29-13.123,18.044-32.439,34.511-23.054,9.618,5.482,9.155,15.418,10.225,24.93a56.332,56.332,0,0,1-.561,14.973c-3.722,23.766-16.781,47.638-39.606,57.712-6.54,2.888-13.983,4.574-20.847,2.579A18.15,18.15,0,0,1-576.424-8573.791Z" transform="translate(1529.84 8809.344)" fill="#fd9d90"/>
    <path id="Path_5440" data-name="Path 5440" d="M-545.829-8600.386l-104.608-.254a4.913,4.913,0,0,1-4.427-2.811l-1.129-2.385h110.164Z" transform="translate(1481.49 8850.731)" fill="#130d3c"/>
    <path id="Path_5441" data-name="Path 5441" d="M-564.03-8625.3c9.151-1.489,19.579-1.4,26.389,4.895a10.887,10.887,0,0,1,3.482,5.61c.831,4.017-1.605,7.985-4.4,10.988-9.992,10.725-25.459,15.021-40.107,14.426-8.217-.334-40.714-2.5-29.828-16.678C-599.642-8617.588-577.584-8623.091-564.03-8625.3Z" transform="translate(1510.302 8837.845)" fill="#fd9d90"/>
    <path id="Path_5442" data-name="Path 5442" d="M-646.685-8583.95h98.732l-25.206-53.856a4.21,4.21,0,0,0-3.812-2.427h-89.437a4.21,4.21,0,0,0-3.812,6Z" transform="translate(1472.183 8828.847)" fill="#130d3c"/>
    <path id="Path_5443" data-name="Path 5443" d="M-623.8-8535.3a89.967,89.967,0,0,1-10.221-3.3c-8.919-3.483-18.33-11.511-13.314-22.034,5.394-11.314,19.528-13.323,29.875-11.091,12.7,2.738,27.146-8.949,36.514-15.9,14.274-10.6,26.979-22.752,41.138-33.44,4.126-3.116,8.359-6.264,13.268-7.889,9.811-3.248,21.055.355,28.57,7.448,7.744,7.31,13.531,21.681,16.045,31.835,1.89,7.633,3.238,16.166-.35,23.425a41.15,41.15,0,0,1-20.32,19.33c-5.7,2.473-11.877,3.6-17.99,4.718-18.635,3.4-37.468,8.024-56.269,10.262C-592.375-8530.084-608.407-8535.3-623.8-8535.3Z" transform="translate(1486.107 8835.259)" fill="#211572"/>
    <path id="Path_5444" data-name="Path 5444" d="M-594.857-8554.325c.988-7.455,2.184-14.89,3.781-22.231-9.477-1.437-18.167-5.364-27.092-8.948-3.2-1.283-6.8-2.011-10.082-.949-7.612,2.468-11.943,16.007-7.641,22.563,4.578,6.981,17.468,11.011,34.568,12.781C-599.167-8550.887-597.028-8552.4-594.857-8554.325Z" transform="translate(1493.197 8862.736)" fill="#fd9d90"/>
    <path id="Path_5445" data-name="Path 5445" d="M-551-8589.6a22.825,22.825,0,0,0-5.406-.9c-6.505-.3-12.869,1.717-19.08,3.671q-17.884,5.625-35.9,10.839c-.314.091-.214,6.657-.221,7.34a21.483,21.483,0,0,1-1.183,6.64c-1.53,4.857-3.449,9.581-5.131,14.385,9.333.376,18.766-.606,28.066-1.525,6.383-.628,12.813-1.266,18.949-3.135,7.109-2.165,13.628-5.924,19.819-10.034,5.985-3.974,14.66-10.9,10.8-18.9C-542.326-8585.464-546.432-8588.264-551-8589.6Z" transform="translate(1505.713 8860.465)" fill="#130d3c"/>
    <path id="Path_5446" data-name="Path 5446" d="M-649.474-8581.615c-6.028.379-18.06-1.149-23.532,1.381-7.237,3.351-4.005,13.345-.754,18.558,8.438,13.527,23.115,11.327,36.872,11.351,10.473.019,21.919-2.09,29.668-9.7,3.983-3.913,5.982-10.4,3.176-15.22-3.128-5.38-10.338-6.43-16.555-6.683A279.749,279.749,0,0,0-649.474-8581.615Z" transform="translate(1467.892 8865.793)" fill="#130d3c"/>
    <path id="Path_5447" data-name="Path 5447" d="M-657.848-8578.633c-1.728,3.126-3.495,6.358-4.056,10.034s.388,7.941,3.081,9.886" transform="translate(1477.63 8868.035)" fill="#ff5da1"/>
    <path id="Path_5448" data-name="Path 5448" d="M-651.794-8577.8c-4.092,4.472-4.465,12.893-.789,17.848" transform="translate(1482.047 8868.566)" fill="#ff5da1"/>
    <path id="Path_5449" data-name="Path 5449" d="M-587.322-8523.364q-25.353-9.161-50.706-18.318c-14.85-5.365-29.808-10.78-43.338-18.921-11.7-7.039-22.3-16.562-28.513-28.9-5.493-10.905-7.15-19.771.267-30.1,5.717-7.958,14.883-13.609,24.754-14.242,10.815-.694,21.189,3.906,31.049,8.409q8.222,3.75,16.442,7.5a4.6,4.6,0,0,1,1.8,1.2,4.83,4.83,0,0,1,.6,3.226c-.391,9.92.646,17.566,8.32,23.973a108.692,108.692,0,0,0,20.3,12.929c14.348,7.354,29.705,12.663,43.716,20.682a5.877,5.877,0,0,1,2.541,2.213c1.5,2.978-11.049,33.193-14.4,32.8C-577.8-8521.3-584.189-8522.234-587.322-8523.364Z" transform="translate(1444.204 8832.868)" fill="#211572"/>
    <path id="Path_5450" data-name="Path 5450" d="M-683.273-8622.975c19.028,8.605,34.341,23.555,51.667,35.214,16.179,10.892,34.092,18.89,51.9,26.837" transform="translate(1464.135 8839.828)" fill="none" stroke="#000" stroke-width="0.5"/>
    <path id="Path_5451" data-name="Path 5451" d="M-594.3-8603.889c-8.594,7.711-25.016,16.944-35.357,22.081" transform="translate(1498.248 8851.97)" fill="none" stroke="#000" stroke-width="0.5"/>
    <path id="Path_5452" data-name="Path 5452" d="M-628.621-8620.226a3.185,3.185,0,0,1-3.169,3.646,4.285,4.285,0,0,1-4.176-3.517,3.058,3.058,0,0,1,3.189-3.518A4.212,4.212,0,0,1-628.621-8620.226Z" transform="translate(1494.21 8839.42)" fill="#ff5da1"/>
    <path id="Path_5453" data-name="Path 5453" d="M-511.2-8631.261c.281-7.966.254-16.137-1.738-23.9-2.371-9.248-4.949-19.679-13.279-25.153a49.453,49.453,0,0,0-26.3-8.073,3.921,3.921,0,0,0-2.531.568,4.12,4.12,0,0,0-1.154,2.77,531.5,531.5,0,0,1-11.812,58.2c4.557,2.229,56.007,7.953,56.06,7.328C-511.618-8623.433-511.336-8627.342-511.2-8631.261Z" transform="translate(1537.469 8798.207)" fill="#344cb6"/>
    <path id="Path_5454" data-name="Path 5454" d="M-540.78-8661.9a20.981,20.981,0,0,1-7.641-11.929,68.373,68.373,0,0,1-.136-29.064c1.784-8.635,3.649-8.879.551-17.3a43.614,43.614,0,0,0-13.592-19.059c-8.309-6.616-21.987-3.116-31.98-1.977a191.22,191.22,0,0,0-2.343,27.861c-.111,10.239,2.369,18.045,10.185,24.655,1.571,1.327,1.448,1.934,1.423,4.134-.047,4.28.9,9.011-.687,13.121-2.011,5.216-8.7,5.791-13.566,5.782a95.522,95.522,0,0,1-11.442-1.193c1.258.943,1.178,4.474,1.535,5.97a43.945,43.945,0,0,0,2.063,6.605,29.963,29.963,0,0,0,8.708,11.662c7.384,6.113,16.8,9.364,26.278,10.791,8.469,1.276,17.486,1.105,25.132-2.754,8.865-4.476,15.59-13.02,23.4-19.152C-528.894-8655.646-536.009-8658.09-540.78-8661.9Z" transform="translate(1510.747 8763.355)" fill="#fd9d90"/>
    <path id="Path_5455" data-name="Path 5455" d="M-539.424-8715.763c-.939,4.453-2.279,12.565-8.77,11a8.772,8.772,0,0,1-6.386-5.185c-1.373-3.441-.383-7.223-1.724-10.551-1.509-3.74-6.074-7.62-9.986-8.416-4.608-.937-9.225,1.523-12.906,4.448s-7.018,6.453-11.352,8.275a14.845,14.845,0,0,1-12.888-.515,11.99,11.99,0,0,1-6.1-11.08,10.276,10.276,0,0,1,3.772-6.994c2.551-2.038,6.206-.959,8.448-2.664,3.927-2.988-1.27-7.086,2.184-10.51,4.117-4.079,15.151-2.675,20.151-1.77,7.293,1.314,14.26,4.143,20.934,7.29,4.675,2.206,12.021,5.607,14.371,10.6C-537.587-8727.386-538.44-8720.428-539.424-8715.763Z" transform="translate(1511.023 8758.565)" fill="#130d3c"/>
    <path id="Path_5456" data-name="Path 5456" d="M-572.925-8732.086a7.1,7.1,0,0,0-5.843,3.023,32.384,32.384,0,0,0,1.481,3.318,34.565,34.565,0,0,1,1.6,3.945,39.849,39.849,0,0,1,1.744,7.852h.082a10.473,10.473,0,0,0,9.961-9.387C-563.409-8728.3-567.966-8732.17-572.925-8732.086Z" transform="translate(1530.621 8770.406)" fill="#fd9d90"/>
    <path id="Path_5457" data-name="Path 5457" d="M-576.378-8728.279a3.057,3.057,0,0,1,3.541.547,4.058,4.058,0,0,1,1.1,3.921,5.064,5.064,0,0,1-2.916,3.308" transform="translate(1532.143 8772.609)"/>
    <path id="Path_5458" data-name="Path 5458" d="M-588.165-8707.324a9.618,9.618,0,0,1-7.06-2.152l.006.089c1.216,1.218,1.471,3.178,1.437,4.936-.028,1.331-.244,2.64-.4,3.956a15.879,15.879,0,0,0,12.484-10.378A9.624,9.624,0,0,1-588.165-8707.324Z" transform="translate(1520.151 8783.904)" fill="#130d3c"/>
    <path id="Path_5459" data-name="Path 5459" d="M-598.265-8717.788a9.14,9.14,0,0,0,9.058,3.528,9.138,9.138,0,0,0,6.906-6.838" transform="translate(1518.217 8777.4)" fill="#fff"/>
    <path id="Path_5460" data-name="Path 5460" d="M-578.609-8717a35.366,35.366,0,0,1-6.527-.6l.177-.946a35.176,35.176,0,0,0,19.176-1.826l.353.9A36.122,36.122,0,0,1-578.609-8717Z" transform="translate(1526.57 8777.861)" fill="#130d3c"/>
    <path id="Path_5461" data-name="Path 5461" d="M-553.947-8719.207c1.195-8.624.087-17.036-5.863-24.454-2.57-3.206-5.27-5.563-9.331-6.619a50.84,50.84,0,0,0-17.051-1.446,4.457,4.457,0,0,0-2.173.586,1.648,1.648,0,0,0,.632,3.052c8.279,1.848,16.3,2.732,21.789,10.1,4.254,5.7,4.949,12.087,4.393,18.617a13.209,13.209,0,0,0-8.9,12.734c0,7.341,5.579,13.293,12.463,13.293s12.461-5.952,12.461-13.293A13.252,13.252,0,0,0-553.947-8719.207Z" transform="translate(1524 8757.797)" fill="#ff5da1"/>
    <path id="Path_5462" data-name="Path 5462" d="M-559-8720.923a8.282,8.282,0,0,1-8,8.535,8.281,8.281,0,0,1-8-8.535,8.281,8.281,0,0,1,8-8.537A8.282,8.282,0,0,1-559-8720.923Z" transform="translate(1533.016 8772.078)" fill="#130d3c"/>
    <path id="Path_5463" data-name="Path 5463" d="M-559.2-8735.978c-.169-1.562-1.329-2.814-2.466-3.9-7.279-6.938-16.74-12.261-26.8-12.145a21.04,21.04,0,0,0-7.4,1.32c-1.8.7-3.69,2.051-3.752,3.986-.047,1.515,1.055,2.806,2.186,3.816a23.737,23.737,0,0,0,4.055,2.924" transform="translate(1517.356 8757.725)" fill="#130d3c"/>
    <path id="Path_5464" data-name="Path 5464" d="M-577.677-8716.689a5.08,5.08,0,0,1-5.079,5.079,5.08,5.08,0,0,1-5.079-5.079,5.079,5.079,0,0,1,5.079-5.077A5.078,5.078,0,0,1-577.677-8716.689Z" transform="translate(1524.853 8776.971)" fill="#130d3c"/>
    <path id="Path_5465" data-name="Path 5465" d="M-604.136-8579.531a15.238,15.238,0,0,1-.548,16.228" transform="translate(1514.134 8867.465)" fill="#ff5da1"/>
    <path id="Path_5466" data-name="Path 5466" d="M-591.01-8582.519c2.3,2.664,2.9,6.463,2.407,9.945a37.237,37.237,0,0,1-3.407,9.948" transform="translate(1522.196 8865.565)" fill="#ff5da1"/>
    <path id="Path_5467" data-name="Path 5467" d="M-598.576-8580.666a9.644,9.644,0,0,1,4.153,7.653,9.648,9.648,0,0,1-3.845,7.813" transform="translate(1518.019 8866.744)" fill="#ff5da1"/>
    <path id="Path_5468" data-name="Path 5468" d="M-583.379-8579.263a92.8,92.8,0,0,0,27.8-15.374c3.428-2.759,6.756-5.9,8.454-9.954" transform="translate(1527.688 8851.523)" fill="none" stroke="#000" stroke-width="0.5"/>
    <path id="Path_5469" data-name="Path 5469" d="M-565.412-8641.765a110.494,110.494,0,0,0,5.542-19.714" transform="translate(1539.119 8815.33)" fill="none" stroke="#000" stroke-width="0.5"/>
    <path id="Path_5470" data-name="Path 5470" d="M-622.138-8660.832a73.89,73.89,0,0,0,7.059-16.134" transform="translate(1503.029 8805.477)" fill="none" stroke="#000" stroke-width="0.5"/>
    <path id="Path_5473" data-name="Path 5473" d="M-578.485-8673.82c-5.247.938-10.734.3-15.328.3H-723.762c-8.312,0-16.017-9.944-19.255-24.862-2.782-12.817-1.333-35.377,3.6-46.32,2.685-5.959,7.127-7.243,11.18-7.967a299.044,299.044,0,0,1,62.467-4.538l49.976,1.6c12.5.4,25,.8,37.467,2.54,4.691.652,9.74,1.8,13.211,7.978,2.556,4.556,3.843,11.187,4.719,17.716,1.468,10.938,1.981,22.91-.335,33.277C-563.94-8679.75-570.966-8675.167-578.485-8673.82Z" transform="translate(1385.129 8777.291)" fill="#c4e0ff"/>
    <path id="Path_5474" data-name="Path 5474" d="M-711.38-8720.2c2.346,9.711-1.013,20.059,1,29.843,1.913,9.313,8.755,17.248,17.293,21.427-2.374-1.1-5-1.576-7.4-2.616-3.654-1.576-6.633-4.38-9.3-7.336-7.487-8.293-13.3-18.9-12.79-30.062.049-1.043-.491-2.583-1.44-2.146" transform="translate(1398.105 8800.938)" fill="#c4e0ff"/>
    <path id="Path_5475" data-name="Path 5475" d="M-730.427-8734.293c1.163-6.806,10.11-8.893,16.909-7.7s13.949,4.063,20.318,1.4c3.713-1.55,6.866-4.913,10.891-4.866,5.414.06,8.9,6.183,14.168,7.437,6.558,1.563,12.628-4.88,19.366-4.655,4.914.161,8.981,3.8,13.7,5.2s8.791.139,12.99-1.988c3.209-1.626,8.229-6.959,11.908-2.527a17.233,17.233,0,0,1,1.46,2.726c1.36,2.422,4.2,3.718,6.965,3.945a25.7,25.7,0,0,0,8.222-1.117" transform="translate(1394.028 8784.867)" fill="none" stroke="#09222f" stroke-width="0.5"/>
    <path id="Path_5476" data-name="Path 5476" d="M-730.609-8726.477c2.086-4.719,8.952-4.638,13.651-2.509s9.248,5.591,14.384,5.09c6.993-.681,12.4-8.6,19.32-7.365,4.374.774,7.481,5.083,11.856,5.843,5.956,1.034,10.917-4.758,16.864-5.839,9.241-1.682,18.2,8.271,27.1,5.246,3.771-1.282,7.307-4.835,11.072-3.535,1.834.632,3.079,2.287,4.465,3.645a10.437,10.437,0,0,0,7.157,3.32c2.7-.027,5.467-1.914,5.856-4.584" transform="translate(1393.913 8793.776)" fill="none" stroke="#09222f" stroke-width="0.5"/>
    <g id="Group_3461" data-name="Group 3461" transform="translate(1129.833)">
      <path id="Path_5480" data-name="Path 5480" d="M-532.111-8692.113c3.482,15.309,11.821,27.344,28.926,27.52l99.509,1.033c11.3.115,22.981.164,33.383-4.258,24.672-10.49,21.571-45.615,21.258-67.82-.143-10.088-1.421-22.037-10.246-26.93-4.209-2.33-9.252-2.43-14.064-2.471-34.6-.3-69.21-.492-103.812-.887-15.587-.178-54.07-1.678-54.07,23.066C-533.92-8729.506-535.919-8708.852-532.111-8692.113Z" transform="translate(534.221 8766.003)" fill="#ffc0dd"/>
      <path id="Path_5481" data-name="Path 5481" d="M-503.81-8715.08c1.567-.5,2.872,1.234,3.6,2.712,4.06,8.253,7.974,16.895,8.307,26.085s-3.742,19.125-12.023,23.125c11.194-5.63,21.46-13.835,27.408-24.862s6.985-25.13.7-35.972" transform="translate(555.408 8795.384)" fill="#ffc0dd"/>
      <path id="Path_5482" data-name="Path 5482" d="M-522.739-8744.066q66.224-2.962,132.541-2.475" transform="translate(542.251 8779.565)" fill="none" stroke="#09222f" stroke-width="0.5"/>
      <path id="Path_5483" data-name="Path 5483" d="M-522.747-8734.689q72.326-1.046,144.661-1.314" transform="translate(542.245 8786.979)" fill="none" stroke="#09222f" stroke-width="0.5"/>
      <path id="Path_5484" data-name="Path 5484" d="M-519.893-8725.887l144.039,1.67" transform="translate(544.241 8794.056)" fill="none" stroke="#09222f" stroke-width="0.5"/>
      <path id="Path_5485" data-name="Path 5485" d="M-518.419-8711.687c3.574-3.639,8.268-7.2,13.271-6.217,3.589.705,6.363,3.617,9.845,4.736,6.708,2.152,13.422-2.742,20.265-4.41a7.058,7.058,0,0,1,3.9-.082,11.419,11.419,0,0,1,2.773,1.721,15.794,15.794,0,0,0,19.032-1.07" transform="translate(545.272 8799.522)" fill="none" stroke="#09222f" stroke-width="0.5"/>
    </g>
    <path id="Path_5486" data-name="Path 5486" d="M-546.924-8790.785c-2.76.832-4.787,4.729-4.787,4.729s-2.044-3.861-4.808-4.648c-8-2.277-11.578,4.938-8.514,11.6,2.955,6.424,13.368,14.152,13.368,14.152s10.378-7.9,13.3-14.375C-535.325-8786.041-538.933-8793.2-546.924-8790.785Z" transform="translate(1788.691 8934.523)" fill="#ff5da1"/>
    <path id="Path_5487" data-name="Path 5487" d="M-655.9-8690.79c-2.657.8-4.609,4.555-4.609,4.555s-1.968-3.721-4.629-4.478c-7.7-2.192-11.147,4.755-8.2,11.167,2.845,6.187,12.87,13.628,12.87,13.628s9.992-7.608,12.81-13.842C-644.737-8686.222-648.21-8693.111-655.9-8690.79Z" transform="translate(1429.681 8819.354)" fill="#ff5da1"/>
    <path id="Path_5488" data-name="Path 5488" d="M-516.474-8798.8c-2.76.834-4.787,4.73-4.787,4.73s-2.046-3.863-4.809-4.65c-8-2.277-11.576,4.939-8.512,11.6,2.955,6.424,13.366,14.152,13.366,14.152s10.378-7.9,13.307-14.375C-504.877-8794.053-508.483-8801.209-516.474-8798.8Z" transform="translate(1832.732 8902.199)" fill="#ff5da1"/>
    <path id="Path_5489" data-name="Path 5489" d="M-495.7-8813.371c-2.293.691-3.978,3.93-3.978,3.93s-1.7-3.211-4-3.863c-6.648-1.895-9.619,4.1-7.073,9.637,2.456,5.338,11.106,11.76,11.106,11.76s8.625-6.564,11.056-11.945C-486.064-8809.43-489.061-8815.375-495.7-8813.371Z" transform="translate(1866.284 8874.299)" fill="#ff5da1"/>
    <path id="Path_5490" data-name="Path 5490" d="M-472.886-8632.877c-13.6,0-24.772-11.972-24.883-12.095l-.2-.218.2-.219c.11-.121,11.286-12.094,24.883-12.094s24.771,11.973,24.883,12.094l.2.219-.2.218C-448.115-8644.849-459.291-8632.877-472.886-8632.877Zm-24.2-12.312c1.582,1.62,11.9,11.667,24.2,11.667s22.614-10.047,24.2-11.667c-1.584-1.621-11.9-11.668-24.2-11.668S-495.5-8646.811-497.084-8645.189Z" transform="translate(1662.614 8880.634)"/>
    <path id="Path_5491" data-name="Path 5491" d="M-469.107-8645.322c0,6.619-4.473,11.988-9.991,11.988s-9.991-5.369-9.991-11.988,4.473-11.988,9.991-11.988S-469.107-8651.945-469.107-8645.322Z" transform="translate(1668.826 8880.766)" fill="#130d3c"/>
    <g id="Group_3460" data-name="Group 3460" transform="translate(596.339 160.696)">
      <circle id="Ellipse_102" data-name="Ellipse 102" cx="22.292" cy="22.292" r="22.292" fill="#ff771b"/>
      <g id="Group_3457" data-name="Group 3457" transform="translate(10.228 9.725)">
        <path id="Path_5492" data-name="Path 5492" d="M-664.753-8802.038a5.9,5.9,0,0,1-5.9,5.9,5.9,5.9,0,0,1-5.9-5.9,5.9,5.9,0,0,1,5.9-5.9A5.9,5.9,0,0,1-664.753-8802.038Z" transform="translate(682.717 8807.939)" fill="#fff"/>
        <path id="Path_5493" data-name="Path 5493" d="M-656.193-8790.524a12.449,12.449,0,0,0-12.064-9.4,12.449,12.449,0,0,0-12.064,9.4Z" transform="translate(680.321 8813.038)" fill="#fff"/>
      </g>
    </g>
    <path id="Path_5494" data-name="Path 5494" d="M-455.869-8503.511c2.608,5.651-3.915,10.722-11.758,11.457a1244.211,1244.211,0,0,1-170.373,4.2c-11.4-.5-22.864-1.169-33.95-3.877-16.936-4.142-7.949-17.111,4.181-19.147,44.915-7.536,90.883,1.778,136.394.076,19.507-.729,39.068-3.483,58.473-1.362,4.068.446,8.238,1.148,11.71,3.317C-458.375-8507.085-456.68-8505.272-455.869-8503.511Z" transform="translate(1465.397 8909.246)" opacity="0.11"/>
  </g>
</svg>
