<svg xmlns="http://www.w3.org/2000/svg" xmlns:xlink="http://www.w3.org/1999/xlink" width="251.387" height="244.293" viewBox="0 0 251.387 244.293">
  <defs>
    <linearGradient id="linear-gradient" x1="1.137" y1="1.112" x2="0.365" y2="0.402" gradientUnits="objectBoundingBox">
      <stop offset="0" stop-color="#dae3fe"/>
      <stop offset="1" stop-color="#e9effd"/>
    </linearGradient>
    <linearGradient id="linear-gradient-2" x1="0" y1="0.5" x2="1" y2="0.5" xlink:href="#linear-gradient"/>
    <linearGradient id="linear-gradient-3" x1="-0.597" y1="0.932" x2="-0.374" y2="-0.163" gradientUnits="objectBoundingBox">
      <stop offset="0" stop-color="#09005d"/>
      <stop offset="1" stop-color="#1a0f91"/>
    </linearGradient>
    <linearGradient id="linear-gradient-4" x1="-0.013" y1="-1.659" x2="-0.905" y2="3.409" xlink:href="#linear-gradient-3"/>
    <linearGradient id="linear-gradient-5" x1="1.45" y1="-0.48" x2="3.545" y2="-2.705" gradientUnits="objectBoundingBox">
      <stop offset="0" stop-color="#4f52ff"/>
      <stop offset="1" stop-color="#4042e2"/>
    </linearGradient>
    <linearGradient id="linear-gradient-6" x1="-30.049" y1="0.5" x2="-29.049" y2="0.5" xlink:href="#linear-gradient-5"/>
    <linearGradient id="linear-gradient-7" x1="-30.949" y1="0.5" x2="-29.949" y2="0.5" xlink:href="#linear-gradient-3"/>
    <linearGradient id="linear-gradient-8" x1="1.469" y1="-0.169" x2="7.998" y2="-4.236" gradientUnits="objectBoundingBox">
      <stop offset="0" stop-color="#febbba"/>
      <stop offset="1" stop-color="#ff928e"/>
    </linearGradient>
    <linearGradient id="linear-gradient-9" x1="-90.426" y1="0.5" x2="-89.426" y2="0.5" xlink:href="#linear-gradient-5"/>
    <linearGradient id="linear-gradient-10" x1="-61.278" y1="0.5" x2="-60.278" y2="0.5" xlink:href="#linear-gradient-3"/>
    <linearGradient id="linear-gradient-11" x1="0.936" y1="0.228" x2="5.843" y2="-2.821" xlink:href="#linear-gradient-8"/>
    <linearGradient id="linear-gradient-12" x1="1.675" y1="-0.919" x2="0.702" y2="0.261" xlink:href="#linear-gradient-5"/>
    <linearGradient id="linear-gradient-13" x1="-12.458" y1="-0.062" x2="-16.066" y2="2.028" xlink:href="#linear-gradient-5"/>
    <linearGradient id="linear-gradient-14" x1="-68.899" y1="5.021" x2="-68.541" y2="4.213" gradientUnits="objectBoundingBox">
      <stop offset="0" stop-color="#53d8ff"/>
      <stop offset="1" stop-color="#3840f7"/>
    </linearGradient>
    <linearGradient id="linear-gradient-15" x1="-65.038" y1="1.033" x2="-67.427" y2="2.075" xlink:href="#linear-gradient-8"/>
    <linearGradient id="linear-gradient-16" x1="-29.971" y1="-0.503" x2="-37.897" y2="3.117" xlink:href="#linear-gradient-5"/>
    <linearGradient id="linear-gradient-17" x1="-35.547" y1="-0.121" x2="-46.159" y2="4.13" xlink:href="#linear-gradient-5"/>
    <linearGradient id="linear-gradient-18" x1="-27.469" y1="0.5" x2="-26.469" y2="0.5" xlink:href="#linear-gradient-8"/>
    <linearGradient id="linear-gradient-19" x1="-40.53" y1="-0.004" x2="-40.544" y2="1.888" xlink:href="#linear-gradient-8"/>
    <linearGradient id="linear-gradient-20" x1="-50.86" y1="8.188" x2="-52.38" y2="9.525" xlink:href="#linear-gradient-8"/>
    <linearGradient id="linear-gradient-21" x1="-29.119" y1="5.575" x2="-28.097" y2="5.575" xlink:href="#linear-gradient-3"/>
    <linearGradient id="linear-gradient-22" x1="-146.238" y1="25.266" x2="-142.947" y2="22.91" xlink:href="#linear-gradient-8"/>
    <linearGradient id="linear-gradient-23" x1="-73.508" y1="0.5" x2="-72.508" y2="0.5" xlink:href="#linear-gradient-8"/>
    <linearGradient id="linear-gradient-24" x1="-1.636" y1="-0.218" x2="-2.98" y2="1.835" xlink:href="#linear-gradient-3"/>
    <linearGradient id="linear-gradient-25" x1="-9.944" y1="1.815" x2="-8.634" y2="-0.054" xlink:href="#linear-gradient-3"/>
    <linearGradient id="linear-gradient-26" x1="-7.043" y1="-0.592" x2="-10.595" y2="3.735" gradientUnits="objectBoundingBox">
      <stop offset="0" stop-color="#ff928e"/>
      <stop offset="1" stop-color="#fe7062"/>
    </linearGradient>
    <linearGradient id="linear-gradient-27" x1="-2.141" y1="-0.454" x2="-2.804" y2="1.454" xlink:href="#linear-gradient-5"/>
    <linearGradient id="linear-gradient-28" x1="-2.106" y1="-0.454" x2="-2.77" y2="1.454" xlink:href="#linear-gradient-5"/>
    <linearGradient id="linear-gradient-29" x1="-43.085" y1="-1.222" x2="-44.778" y2="3.818" xlink:href="#linear-gradient-8"/>
  </defs>
  <g id="Group_3084" data-name="Group 3084" transform="translate(-425.045 -475.796)">
    <g id="Illustration" transform="translate(425.045 475.796)">
      <g id="Group_3083" data-name="Group 3083" transform="translate(0 0)">
        <path id="Path_5085" data-name="Path 5085" d="M650.782,687.373c-6.518,6.719-7.885,7.687-12.35,10.668-43.55,29.079-106.564,22.05-121.955,19.185-24.832-4.622-37.027-6.253-55.037-22.525-40.924-36.973-38.933-114.1-7.663-161.88,3.708-5.665,34.386-49.621,84.275-56.143,1.22-.159,59.018-7.792,98.015,24.88a116.337,116.337,0,0,1,22.9,25.979C689.424,574.582,689.521,647.443,650.782,687.373Z" transform="translate(-430.015 -475.796)" fill="url(#linear-gradient)"/>
        <g id="Group_3056" data-name="Group 3056" transform="translate(183.817 24.343)">
          <path id="Path_5086" data-name="Path 5086" d="M2563.882,753.567a1.162,1.162,0,0,1,2.211-.052c3.785,10.792,10.742,40.832-12.587,74.878-29.269,42.716-28.422,64.3-21.874,80.6a57.46,57.46,0,0,1-15.2-35.416C2512.906,819.071,2558.361,772.815,2563.882,753.567Z" transform="translate(-2516.241 -752.736)" fill="#91b3fa"/>
          <path id="Path_5087" data-name="Path 5087" d="M2608.924,955.328c-1.714,5.558-3.537,11.08-5.56,16.526q-2.99,8.185-6.474,16.169c-2.344,5.309-4.786,10.573-7.448,15.726-2.639,5.165-5.5,10.21-8.384,15.266-2.857,5.069-5.765,10.159-8.16,15.562a58.987,58.987,0,0,0-4.869,17.07c-.169,1.476-.312,2.96-.366,4.438-.082,1.478-.1,2.96-.087,4.441a61.182,61.182,0,0,0,5.946,25.806,1.125,1.125,0,0,0,2.052-.921l0,0c-.57-1.317-1.125-2.64-1.618-3.982-.258-.667-.485-1.345-.725-2.018-.215-.681-.455-1.354-.648-2.041a59.3,59.3,0,0,1-1.86-8.344,64.975,64.975,0,0,1-.237-17.076,56.7,56.7,0,0,1,1.69-8.359,64.249,64.249,0,0,1,2.907-8.057c2.286-5.265,5.122-10.327,7.943-15.416s5.608-10.232,8.186-15.477q1.943-3.928,3.745-7.923c.608-1.328,1.19-2.667,1.775-4.005s1.136-2.69,1.689-4.041q3.3-8.113,6.1-16.411c1.834-5.539,3.52-11.124,4.989-16.765a.3.3,0,0,0-.581-.165Z" transform="translate(-2563.061 -937.326)" fill="#bdd0fb"/>
        </g>
        <g id="Group_3058" data-name="Group 3058" transform="translate(166.659 6.807)">
          <g id="Group_3057" data-name="Group 3057">
            <path id="Path_5088" data-name="Path 5088" d="M2332.972,687.36a2.922,2.922,0,0,1-4.773-.868,89.106,89.106,0,0,1,3.1-76.46c15.243-29.694,20.686-47.245,22.605-55.383a1.832,1.832,0,0,1,3.468-.3C2365.044,572.285,2385.154,633.222,2332.972,687.36Z" transform="translate(-2321.049 -553.238)" fill="#bdd0fb"/>
            <path id="Path_5089" data-name="Path 5089" d="M2417.625,1083.289a.811.811,0,0,1-.944-.821c.013-.507,1.568-51.188,20.9-93.434a.81.81,0,0,1,1.474.674c-19.188,41.938-20.737,92.3-20.751,92.8A.81.81,0,0,1,2417.625,1083.289Z" transform="translate(-2408.275 -950.297)" fill="url(#linear-gradient-2)"/>
          </g>
        </g>
        <g id="Group_3060" data-name="Group 3060" transform="translate(0 83.246)">
          <path id="Path_5090" data-name="Path 5090" d="M591.422,1556.852a3.953,3.953,0,0,0,3.943,3.939H808.592a3.953,3.953,0,0,0,3.943-3.939l1.774-122.536a6.867,6.867,0,0,0-7.231-6.078l-208.39-5.392a9.936,9.936,0,0,0-10.2,10.163Z" transform="translate(-574.124 -1422.842)" fill="url(#linear-gradient-3)"/>
          <path id="Path_5091" data-name="Path 5091" d="M635.28,1601.559a3.741,3.741,0,0,0,3.731,3.73H843.415a3.742,3.742,0,0,0,3.731-3.73l1.674-111.239c-.2-6.694-6.066-9.1-9.624-8.958L639.474,1476a6.984,6.984,0,0,0-7.165,7.146Z" transform="translate(-614.089 -1471.328)" fill="#ff771b"/>
          <g id="Group_3059" data-name="Group 3059" transform="translate(158.872 10.443)" opacity="0.6">
            <path id="Path_5092" data-name="Path 5092" d="M3045.622,2198.25h-.008a.548.548,0,0,1-.539-.556l.133-9.021a.546.546,0,0,1,.546-.539h.008a.546.546,0,0,1,.539.555l-.132,9.021A.547.547,0,0,1,3045.622,2198.25Z" transform="translate(-2973.646 -2131.307)" fill="#fff"/>
            <path id="Path_5093" data-name="Path 5093" d="M2304.759,1586.478h-.009a.547.547,0,0,1-.538-.555l.507-34.552a6.49,6.49,0,0,0-1.852-4.859c-2.276-2.181-5.889-2.069-6.042-2.062l-63.835-1.712a.546.546,0,0,1-.532-.561.524.524,0,0,1,.561-.531l63.8,1.712a10.038,10.038,0,0,1,6.807,2.365,7.546,7.546,0,0,1,2.188,5.654l-.507,34.563A.547.547,0,0,1,2304.759,1586.478Z" transform="translate(-2232.458 -1541.644)" fill="#fff"/>
          </g>
          <rect id="Rectangle_734" data-name="Rectangle 734" width="251.387" height="10.766" rx="5.383" transform="translate(251.387 148.121) rotate(180)" fill="url(#linear-gradient-4)"/>
        </g>
        <g id="Group_3071" data-name="Group 3071" transform="translate(23.541 29.399)">
          <path id="Path_5094" data-name="Path 5094" d="M826.668,811.024l-126.523-.775a7.242,7.242,0,0,0-7.278,7.6l8.7,179.759h140.8L850.186,837Z" transform="translate(-692.858 -810.249)" fill="#91b3fa"/>
          <path id="Path_5095" data-name="Path 5095" d="M2202.493,846.731a7.242,7.242,0,0,1-6.965-7.808l1.356-17.165,23.89,25.638Z" transform="translate(-2063.422 -820.746)" fill="url(#linear-gradient-5)"/>
          <g id="Group_3069" data-name="Group 3069" transform="translate(21.798 34.895)">
            <g id="Group_3061" data-name="Group 3061" transform="translate(42.488)">
              <path id="Path_5096" data-name="Path 5096" d="M1426.694,1207.428c11.358-.018,54.96-.157,65.971-.192a2.653,2.653,0,0,1,2.436,2.926h0a2.688,2.688,0,0,1-2.462,2.756l-65.941.562a2.593,2.593,0,0,1-2.442-2.56l-.029-.37A2.74,2.74,0,0,1,1426.694,1207.428Z" transform="translate(-1424.217 -1207.236)" fill="#fff" opacity="0.78"/>
            </g>
            <g id="Group_3062" data-name="Group 3062" transform="translate(41.97 12.609)">
              <path id="Path_5097" data-name="Path 5097" d="M1420.8,1350.873c11.358-.018,54.96-.157,65.971-.192a2.653,2.653,0,0,1,2.436,2.926h0a2.689,2.689,0,0,1-2.463,2.757l-65.941.562a2.593,2.593,0,0,1-2.442-2.56l-.029-.37A2.74,2.74,0,0,1,1420.8,1350.873Z" transform="translate(-1418.325 -1350.681)" fill="#fff" opacity="0.78"/>
            </g>
            <g id="Group_3063" data-name="Group 3063" transform="translate(1.317 30.752)">
              <path id="Path_5098" data-name="Path 5098" d="M959.573,1557.108c17.541.012,84.879-.011,101.883-.018,2.145,0,3.886,1.328,3.847,2.933h0c-.037,1.528-1.682,2.743-3.723,2.751l-101.826.388c-1.961.008-3.628-1.105-3.846-2.567l-.055-.37C955.605,1558.554,957.33,1557.106,959.573,1557.108Z" transform="translate(-955.83 -1557.09)" fill="#fff" opacity="0.78"/>
            </g>
            <g id="Group_3064" data-name="Group 3064" transform="translate(1.317 43.569)">
              <path id="Path_5099" data-name="Path 5099" d="M958.76,1703.339c13.654-.059,66.07-.358,79.306-.434a2.9,2.9,0,0,1,2.974,2.917h0a2.894,2.894,0,0,1-2.917,2.766l-79.264.8a2.923,2.923,0,0,1-2.976-2.551l-.04-.369A2.877,2.877,0,0,1,958.76,1703.339Z" transform="translate(-955.827 -1702.906)" fill="#fff" opacity="0.78"/>
            </g>
            <g id="Group_3065" data-name="Group 3065" transform="translate(1.145 61.312)">
              <path id="Path_5100" data-name="Path 5100" d="M957.611,1904.769c17.541.012,84.879-.011,101.883-.018,2.145,0,3.886,1.328,3.847,2.933h0c-.037,1.528-1.682,2.743-3.723,2.751l-101.827.388c-1.961.008-3.628-1.1-3.846-2.567l-.055-.37C953.643,1906.214,955.368,1904.767,957.611,1904.769Z" transform="translate(-953.868 -1904.751)" fill="#fff" opacity="0.78"/>
            </g>
            <g id="Group_3066" data-name="Group 3066" transform="translate(0.398 74.783)">
              <path id="Path_5101" data-name="Path 5101" d="M948.339,2058.008c13.718.025,66.383.05,79.681.055a2.91,2.91,0,0,1,2.971,2.935h0a2.9,2.9,0,0,1-2.947,2.748l-79.642.314a2.934,2.934,0,0,1-2.975-2.57l-.038-.37A2.881,2.881,0,0,1,948.339,2058.008Z" transform="translate(-945.375 -2058.008)" fill="#fff" opacity="0.78"/>
            </g>
            <g id="Group_3067" data-name="Group 3067" transform="translate(0.28 92.495)">
              <path id="Path_5102" data-name="Path 5102" d="M947.772,2259.524c17.541.012,84.879-.012,101.884-.018,2.145,0,3.886,1.328,3.847,2.933h0c-.037,1.528-1.681,2.743-3.723,2.751l-101.827.388c-1.961.007-3.628-1.105-3.846-2.567l-.055-.37C943.8,2260.969,945.529,2259.522,947.772,2259.524Z" transform="translate(-944.029 -2259.506)" fill="#fff" opacity="0.78"/>
            </g>
            <g id="Group_3068" data-name="Group 3068" transform="translate(0 105.807)">
              <path id="Path_5103" data-name="Path 5103" d="M943.811,2410.953c13.719.025,66.383.05,79.681.056a2.91,2.91,0,0,1,2.971,2.935h0a2.9,2.9,0,0,1-2.947,2.748l-79.642.314a2.933,2.933,0,0,1-2.975-2.569l-.038-.37A2.881,2.881,0,0,1,943.811,2410.953Z" transform="translate(-940.847 -2410.953)" fill="#fff" opacity="0.78"/>
            </g>
            <path id="Path_5104" data-name="Path 5104" d="M959.573,2610.158c17.541.012,84.879-.012,101.883-.018,2.145,0,3.886,1.328,3.847,2.933h0c-.037,1.528-1.682,2.743-3.723,2.751l-101.826.388c-1.961.007-3.628-1.105-3.846-2.567l-.055-.37C955.605,2611.6,957.33,2610.156,959.573,2610.158Z" transform="translate(-954.513 -2486.825)" fill="#fff" opacity="0.78"/>
            <path id="Path_5105" data-name="Path 5105" d="M956.791,2777.083c13.545,0,65.544-.068,78.675-.085a2.889,2.889,0,0,1,2.937,2.93h0a2.884,2.884,0,0,1-2.907,2.753l-78.635.455a2.905,2.905,0,0,1-2.94-2.564l-.038-.37A2.869,2.869,0,0,1,956.791,2777.083Z" transform="translate(-952.723 -2639.016)" fill="#fff" opacity="0.78"/>
          </g>
          <g id="Group_3070" data-name="Group 3070" transform="translate(11.195 17.29)" opacity="0.78">
            <path id="Path_5106" data-name="Path 5106" d="M848.5,1016.74l-7.13,26.247-1.929-.032-12.579-32.2q-.863-2.28-1.757-2.724a16.506,16.506,0,0,0-4.887-.588v-.495l19.565.707v.49a21.591,21.591,0,0,0-4.809.183q-1.342.308-1.342,1.347a3.4,3.4,0,0,0,.343,1.325l8.925,23.108,5.149-18.734-1.2-3.916q-.683-2.209-1.65-2.68a16.437,16.437,0,0,0-4.966-.616v-.489l19.234.7v.484a20.74,20.74,0,0,0-4.688.183q-1.308.305-1.308,1.441a3.42,3.42,0,0,0,.224,1.2l7.183,22.877,6.088-16.57a13.337,13.337,0,0,0,.928-4.265q0-4.562-6.628-4.8v-.484l14.19.513v.48q-3.881-.139-5.748,3.706-.275.58-2.034,5.189l-9.072,24.957-1.837-.031Z" transform="translate(-820.217 -1006.947)" fill="#fff"/>
          </g>
        </g>
        <g id="Group_3082" data-name="Group 3082" transform="translate(53.238 89.312)">
          <g id="Group_3077" data-name="Group 3077" transform="translate(95.958 9.916)">
            <g id="Group_3072" data-name="Group 3072" transform="translate(29.787 108.194)">
              <path id="Path_5107" data-name="Path 5107" d="M2461.672,2934.232c2.509.217,6.863.569,10.3.72a9.917,9.917,0,0,0,3.935-.385c0,.077,0,.15-.006.218a.71.71,0,0,1-.675.671,120.545,120.545,0,0,1-13.48.013.505.505,0,0,1-.412-.759A4.147,4.147,0,0,1,2461.672,2934.232Z" transform="translate(-2461.259 -2925.557)" fill="url(#linear-gradient-6)"/>
              <path id="Path_5108" data-name="Path 5108" d="M2476.259,2882.388c-3.432-.151-7.787-.5-10.3-.72,2.467-3.026,10.3-5.066,10.3-5.066h2.211a9.273,9.273,0,0,1,1.724,5.4A9.916,9.916,0,0,1,2476.259,2882.388Z" transform="translate(-2465.549 -2872.993)" fill="url(#linear-gradient-7)"/>
              <path id="Path_5109" data-name="Path 5109" d="M2569.675,2835.536l-.207,4.094a.935.935,0,0,1-.8.879,3.638,3.638,0,0,1-1.661-.137,1.107,1.107,0,0,1-.743-.85l-.715-3.986Z" transform="translate(-2556.382 -2835.536)" fill="url(#linear-gradient-8)"/>
            </g>
            <g id="Group_3074" data-name="Group 3074" transform="translate(64.374 104.368)">
              <g id="Group_3073" data-name="Group 3073" transform="translate(0.974 3.8)">
                <path id="Path_5110" data-name="Path 5110" d="M2899.928,2928.367a1.985,1.985,0,0,0,1.786-1.321l0,.016a1.414,1.414,0,0,1-.953,1.612,6.227,6.227,0,0,1-2.638.413,2.622,2.622,0,0,1-1.978-.913l-.006-.008A6.641,6.641,0,0,0,2899.928,2928.367Z" transform="translate(-2893.477 -2918.975)" fill="url(#linear-gradient-9)"/>
                <path id="Path_5111" data-name="Path 5111" d="M2867.134,2835.233h1.824c2.777-.057,4.521,5.8,5.093,8.07a1.986,1.986,0,0,1-1.787,1.321,6.642,6.642,0,0,1-3.784-.2,17.417,17.417,0,0,1-2.6-6.554A2.3,2.3,0,0,1,2867.134,2835.233Z" transform="translate(-2865.813 -2835.232)" fill="url(#linear-gradient-10)"/>
              </g>
              <path id="Path_5112" data-name="Path 5112" d="M2858.615,2792l1.013,4.027a1.094,1.094,0,0,1-.569,1.239,3.882,3.882,0,0,1-2.1.508.914.914,0,0,1-.745-.609l-1.487-4.237Z" transform="translate(-2854.73 -2792.002)" fill="url(#linear-gradient-11)"/>
            </g>
            <path id="Path_5113" data-name="Path 5113" d="M2508.765,2211.1c-1.26,1.117-5.357,1.265-5.357,1.265-14.76-35.425-20.8-40.458-20.8-40.458,2.131,13.371.344,42.973.344,42.973-2.436,1.074-5.576,0-5.576,0a228.179,228.179,0,0,0-7.537-56.031c9.976-.224,15.281-3.637,17.013-5.008C2495.17,2167.248,2508.765,2211.1,2508.765,2211.1Z" transform="translate(-2439.3 -2105.569)" fill="url(#linear-gradient-12)"/>
            <path id="Path_5114" data-name="Path 5114" d="M2345.425,1687.858c1.888,9.419,1.211,26.276.767,33.965-.125,2.161,1.384,5.157,2.6,7.2a.642.642,0,0,1-.259.9,44.471,44.471,0,0,1-16.974,4.706,1.144,1.144,0,0,1-1.15-.854c-5.946-22.2-12.852-36.389-12.852-36.389C2325.185,1685.212,2345.425,1687.858,2345.425,1687.858Z" transform="translate(-2300.404 -1680.323)" fill="url(#linear-gradient-13)"/>
            <path id="Path_5115" data-name="Path 5115" d="M2540.076,2289.172a.473.473,0,0,0,.4-.718,14.822,14.822,0,0,0-5.852-5.081.473.473,0,1,0-.411.852,14.135,14.135,0,0,1,5.456,4.721A.473.473,0,0,0,2540.076,2289.172Z" transform="translate(-2497.772 -2223.671)" fill="url(#linear-gradient-14)"/>
            <g id="Group_3075" data-name="Group 3075" transform="translate(42.912 7.534)">
              <path id="Path_5116" data-name="Path 5116" d="M2693.084,1991.1a32.4,32.4,0,0,1-5.983,14.257l-1.363-1.111a42.076,42.076,0,0,0,.679-13.625A16.308,16.308,0,0,1,2693.084,1991.1Z" transform="translate(-2679.131 -1964.066)" fill="url(#linear-gradient-15)"/>
              <path id="Path_5117" data-name="Path 5117" d="M2610.575,1702l2.109-11.621s14.091,10.771,11.843,27.031a16.31,16.31,0,0,0-6.667-.479C2617.216,1711.71,2615.292,1706.046,2610.575,1702Z" transform="translate(-2610.575 -1690.377)" fill="url(#linear-gradient-16)"/>
            </g>
            <g id="Group_3076" data-name="Group 3076" transform="translate(0 17.065)">
              <path id="Path_5118" data-name="Path 5118" d="M2263.993,1798.8l5.439,11.714c-.88,7.072-4.679,10.13-8.775,11.3a24.851,24.851,0,0,0-1.827-7.629C2264.064,1808.786,2263.993,1798.8,2263.993,1798.8Z" transform="translate(-2246.836 -1798.801)" fill="url(#linear-gradient-17)"/>
              <path id="Path_5119" data-name="Path 5119" d="M2134.375,1973.87a24.856,24.856,0,0,1,1.827,7.628c-10.929,4.24-13.821-3.983-13.821-3.983l2.02-.356C2128.962,1977.64,2132.149,1976.169,2134.375,1973.87Z" transform="translate(-2122.381 -1958.481)" fill="url(#linear-gradient-18)"/>
            </g>
            <path id="Path_5120" data-name="Path 5120" d="M2374.572,1607.264l2.625,9.653a1.878,1.878,0,0,0,2.512,1.25,38.176,38.176,0,0,0,3.785-1.729,2.531,2.531,0,0,0,.893-3.637l-5.459-8.14Z" transform="translate(-2352.405 -1604.661)" fill="url(#linear-gradient-19)"/>
          </g>
          <g id="Group_3078" data-name="Group 3078" transform="translate(109.653)">
            <path id="Path_5121" data-name="Path 5121" d="M2309.213,1534.764c-.024.166,2.19,11.016,2.19,11.016l6.168-1.4-.571-10.6S2309.614,1531.988,2309.213,1534.764Z" transform="translate(-2306.485 -1529.579)" fill="url(#linear-gradient-20)"/>
            <path id="Path_5122" data-name="Path 5122" d="M2287.3,1498.423l.737,5.554a.758.758,0,0,1,0,.213c-.062.435-.386,1.917-1.882,1.494a7.041,7.041,0,0,0-3.462-.453.782.782,0,0,0-.539.9,33.842,33.842,0,0,0,1.42,5.055.781.781,0,0,0,.948.462,25.221,25.221,0,0,0,5.437-2.225.782.782,0,0,0,.381-.7c-.059-1.4-.223-5.664-.085-6.859.13-1.121,1.506-1.793,2.1-2.034a.768.768,0,0,0,.428-.43,2.028,2.028,0,0,0-1.365-2.957.784.784,0,0,1-.5-1.013,2.033,2.033,0,0,0-1.139-2.809,2.867,2.867,0,0,0-3.421.824.783.783,0,0,1-1,.118.62.62,0,0,0-.7.024.771.771,0,0,1-1.092-.331,2.338,2.338,0,0,0-2.715-1.353c-2.764.474-3.077,3.536-2.348,5.331s3.7,1.111,5.186.206c1.132-.688,2.6.033,3.239.418A.778.778,0,0,1,2287.3,1498.423Z" transform="translate(-2278.175 -1491.852)" fill="url(#linear-gradient-21)"/>
            <path id="Path_5123" data-name="Path 5123" d="M2413.323,1583.929s-1.136-3.182.031-3.961,2.9-.375,2.516,1.93C2415.4,1584.765,2413.323,1583.929,2413.323,1583.929Z" transform="translate(-2400.992 -1571.892)" fill="url(#linear-gradient-22)"/>
          </g>
          <path id="Path_5124" data-name="Path 5124" d="M2087.071,1982.491c-.55.43-2.435-.468-3.588-1.088a1.327,1.327,0,0,1-.641-1.568c.278-.875.74-2,1.31-2.147C2085.1,1977.452,2089.338,1980.72,2087.071,1982.491Z" transform="translate(-1990.303 -1934.972)" fill="url(#linear-gradient-23)"/>
          <g id="Group_3081" data-name="Group 3081" transform="translate(0 17.44)">
            <g id="Group_3080" data-name="Group 3080">
              <path id="Path_5125" data-name="Path 5125" d="M1614.935,1803.727l-143.919-51.185-7.614,21.151,143.869,52.615a6.71,6.71,0,0,0,8.1-2.933c1.682-2.888,3.289-7.4,3.386-14.159A5.746,5.746,0,0,0,1614.935,1803.727Z" transform="translate(-1425.368 -1747.067)" fill="url(#linear-gradient-24)"/>
              <g id="Group_3079" data-name="Group 3079">
                <path id="Path_5126" data-name="Path 5126" d="M1031.831,1690.263l19.88,2.441c-.021,2.736-.917,6.276-3.95,10.337l-16.6-10.952A1,1,0,0,1,1031.831,1690.263Z" transform="translate(-1030.707 -1690.255)" fill="url(#linear-gradient-25)"/>
                <path id="Path_5127" data-name="Path 5127" d="M1253.321,1721.145a27.7,27.7,0,0,1-7.614,21.151l-20.98-13.839c3.033-4.061,3.929-7.6,3.95-10.337Z" transform="translate(-1207.673 -1715.67)" fill="url(#linear-gradient-26)"/>
              </g>
            </g>
            <path id="Path_5128" data-name="Path 5128" d="M1733.859,1894.926a.423.423,0,0,0,.141-.822l-137.692-48.661a.423.423,0,0,0-.282.8l137.692,48.661A.421.421,0,0,0,1733.859,1894.926Z" transform="translate(-1546.077 -1831.779)" fill="url(#linear-gradient-27)"/>
            <path id="Path_5129" data-name="Path 5129" d="M1706.835,1989.322a.423.423,0,0,0,.141-.822l-137.692-48.662a.423.423,0,1,0-.282.8l137.692,48.662A.418.418,0,0,0,1706.835,1989.322Z" transform="translate(-1521.429 -1917.878)" fill="url(#linear-gradient-28)"/>
          </g>
          <path id="Path_5130" data-name="Path 5130" d="M2597.542,2139.868l-6.361-.519-2.755,2.539s.651.9,2.689.383a29.155,29.155,0,0,1,4.828-.645s2.813,1.268,2.847-1.1Z" transform="translate(-2451.503 -2082.434)" fill="url(#linear-gradient-29)"/>
        </g>
      </g>
    </g>
  </g>
</svg>
