<svg xmlns="http://www.w3.org/2000/svg" xmlns:xlink="http://www.w3.org/1999/xlink" width="230" height="226" viewBox="0 0 230 226">
  <defs>
    <linearGradient id="linear-gradient" x1="1.085" y1="1.015" x2="0.335" y2="0.362" gradientUnits="objectBoundingBox">
      <stop offset="0" stop-color="#dae3fe"/>
      <stop offset="1" stop-color="#e9effd"/>
    </linearGradient>
    <linearGradient id="linear-gradient-2" x1="23.348" y1="-37.643" x2="22.407" y2="-38.791" gradientUnits="objectBoundingBox">
      <stop offset="0" stop-color="#4f52ff"/>
      <stop offset="1" stop-color="#4042e2"/>
    </linearGradient>
    <linearGradient id="linear-gradient-3" x1="16.633" y1="-68.206" x2="17.676" y2="-68.206" gradientUnits="objectBoundingBox">
      <stop offset="0" stop-color="#febbba"/>
      <stop offset="1" stop-color="#ff928e"/>
    </linearGradient>
    <linearGradient id="linear-gradient-4" x1="-0.703" y1="2" x2="0.712" y2="0.25" xlink:href="#linear-gradient-3"/>
    <linearGradient id="linear-gradient-5" x1="-2.725" y1="12.334" x2="-3.966" y2="18.578" xlink:href="#linear-gradient-3"/>
    <linearGradient id="linear-gradient-6" x1="12.149" y1="-4.305" x2="10.975" y2="-3.537" xlink:href="#linear-gradient-3"/>
    <linearGradient id="linear-gradient-7" x1="7.727" y1="-3.906" x2="8.428" y2="-2.887" gradientUnits="objectBoundingBox">
      <stop offset="0" stop-color="#09005d"/>
      <stop offset="1" stop-color="#1a0f91"/>
    </linearGradient>
    <linearGradient id="linear-gradient-8" x1="49.54" y1="-14.935" x2="44.701" y2="-12.545" xlink:href="#linear-gradient-3"/>
    <linearGradient id="linear-gradient-9" x1="102.876" y1="94.695" x2="102.174" y2="96.79" xlink:href="#linear-gradient-7"/>
    <linearGradient id="linear-gradient-10" x1="0.493" y1="2.483" x2="0.507" y2="-2.071" xlink:href="#linear-gradient-7"/>
    <linearGradient id="linear-gradient-11" x1="0.414" y1="0.16" x2="0.62" y2="0.975" xlink:href="#linear-gradient-7"/>
    <linearGradient id="linear-gradient-12" x1="0.346" y1="-0.247" x2="0.728" y2="1.667" xlink:href="#linear-gradient-7"/>
    <linearGradient id="linear-gradient-13" x1="0.356" y1="-0.425" x2="1.091" y2="4.297" xlink:href="#linear-gradient-7"/>
  </defs>
  <g id="Group_7988" data-name="Group 7988" transform="translate(-4130.087 1056.208)">
    <path id="Path_7481" data-name="Path 7481" d="M4350.195-903.743c-21.776,51.074-79.78,79.686-130.081,71.968-8.185-1.256-30.625-5-50.492-22.646-38.245-33.975-46.424-101.251-15.573-148.662,22.455-34.507,62.707-54.068,100.954-53.09,8.238.211,39.811,1.51,67.559,24.3a103.781,103.781,0,0,1,21.165,23.922C4362.751-978.315,4364.386-937.029,4350.195-903.743Z" fill="url(#linear-gradient)"/>
    <g id="Group_7983" data-name="Group 7983">
      <g id="Group_7978" data-name="Group 7978">
        <path id="Path_7482" data-name="Path 7482" d="M4224.706-875.081c-16.221-3.563-4-27.533-3.425-28.461l-29.07,10.168s-2.6,13.935,15.494,26.759a26.071,26.071,0,0,0,13.573,4.929A22.728,22.728,0,0,1,4224.706-875.081Z" fill="url(#linear-gradient-2)"/>
        <path id="Path_7483" data-name="Path 7483" d="M4257.723-873.978c-4.766-5.8-12.675-3.593-12.675-3.593-9.424,2.924-15.931,3.459-20.342,2.49a22.728,22.728,0,0,0-3.428,13.4c9.445.617,17.647-4,21.355-6.5a3,3,0,0,1,4.1.694c.96,1.324,1.781,3,1.162,4.339-1.22,2.644,1.751,4.437,2.281,3.5s.883-7.263.883-7.263,4.6,8.283,6.408,11.476,5.679,1.611,5.679,1.611S4262.489-868.176,4257.723-873.978Z" fill="url(#linear-gradient-3)"/>
        <path id="Path_7484" data-name="Path 7484" d="M4160-935.971s20.411-16.017,73.943,6.765c0,0,5.79,6.361,3.817,14.114s-29.851,50.886-29.717,70.231c0,0-20.143,13.744-48.232,3.405C4159.814-841.456,4147.17-891.7,4160-935.971Z" fill="#ff771b"/>
        <path id="Path_7485" data-name="Path 7485" d="M4203.312-957.626l-7.324,17.1a4.694,4.694,0,0,0,.837,5.031c2.531,2.749,7.665,6.325,15.794,3.238a7.267,7.267,0,0,0,4.593-5.592l3.116-18.738Z" fill="url(#linear-gradient-4)"/>
        <path id="Path_7486" data-name="Path 7486" d="M4159.5-871.8c-5.907-10.109,14.119-42.386,14.119-42.386L4160-935.971s-47.233,56.2-23,83.135a23.883,23.883,0,0,0,11.182,7.306C4149.167-859.6,4154.987-867.632,4159.5-871.8Z" fill="#ff771b"/>
        <path id="Path_7487" data-name="Path 7487" d="M4159.017-871.815a.673.673,0,0,1-.768-.3c-6.04-10.336,13.3-41.741,14.128-43.073a.673.673,0,0,1,.923-.217.668.668,0,0,1,.218.919c-.2.319-19.749,32.05-14.11,41.7a.666.666,0,0,1-.242.913A.671.671,0,0,1,4159.017-871.815Z" fill="#cc5b0e"/>
        <path id="Path_7488" data-name="Path 7488" d="M4206.994-872.916c-3.624,1-7,2.8-10.637,3.719-4.044,1.025-8.041,2.23-12.112,3.143-6.335,1.421-14.669,3.049-20.232-1.288-.469-.365-4.242-4.614-4.508-4.461-10.1,5.813-12.065,19.4-12.065,25.988,18.416,10.031,47.379-9.5,55.181-15.21a6.119,6.119,0,0,1,4.45-1.13c3.19.435,8.69,1.021,11.589.372,4.243-.95,11.434,13.7,18.064,8.576C4236.724-853.207,4228.978-878.988,4206.994-872.916Z" fill="url(#linear-gradient-5)"/>
        <g id="Group_7977" data-name="Group 7977">
          <path id="Path_7489" data-name="Path 7489" d="M4227.047-981.791s4.625,14.92,4.207,22.436.654,12.541-8.184,13.082-15.659-4.573-18.783-12.453c0,0-4.915-12.152-3-16.693S4227.047-981.791,4227.047-981.791Z" fill="url(#linear-gradient-6)"/>
          <path id="Path_7490" data-name="Path 7490" d="M4207.849-963.746l1.1.122s-3.483-9.728.666-10.908,20.224-2.627,24.237-7.806c3.869-4.992,1.728-12.234-2.417-14.654a.589.589,0,0,0-.773.19l-.438.641a.593.593,0,0,1-1.074-.232h0a.59.59,0,0,0-1.037-.278c-1.224,1.546-4.337,3.935-12.031,4.484-10.917.778-18.472,4.3-19.47,11.649a.594.594,0,0,1-.966.38c-.736-.567-1.974-.933-3.822.294-3.212,2.134-2.725,8.65,3.126,14.615a.585.585,0,0,1-.133.937c-1.252.627-3.194,2.235,1.046,5.137,4.337,2.968,7.1,3,8.156,2.855a.589.589,0,0,0,.514-.557l.326-6.571a.592.592,0,0,1,.658-.557Z" fill="url(#linear-gradient-7)"/>
          <path id="Path_7491" data-name="Path 7491" d="M4207.965-962.35s-1.354-9.354-5.731-7.26.983,10.421,4.234,11.127Z" fill="url(#linear-gradient-8)"/>
        </g>
        <path id="Path_7492" data-name="Path 7492" d="M4193.6-844.575c.057,0,.114,0,.171,0l74.319-1.146a3.219,3.219,0,0,0,3.262-3.2,3.245,3.245,0,0,0-3.393-3.094l-74.319,1.145a3.22,3.22,0,0,0-3.261,3.2A3.251,3.251,0,0,0,4193.6-844.575Z" fill="url(#linear-gradient-9)"/>
      </g>
      <g id="Group_7982" data-name="Group 7982">
        <g id="Group_7980" data-name="Group 7980">
          <g id="Group_7979" data-name="Group 7979">
            <path id="Path_7493" data-name="Path 7493" d="M4222.529-952.961c-13.242,1.119-24.075-9.209-24.152-9.364v-2.328c.074.148,11.489,11.627,24.075,10.563Z" fill="#344cb6"/>
          </g>
          <path id="Path_7494" data-name="Path 7494" d="M4227.926-953.533a1.512,1.512,0,0,1-1.421,1.59h-3.789a1.513,1.513,0,0,1-1.42-1.59h0a1.512,1.512,0,0,1,1.42-1.589h3.789a1.511,1.511,0,0,1,1.421,1.589Z" fill="#344cb6"/>
        </g>
        <g id="Group_7981" data-name="Group 7981">
          <path id="Path_7495" data-name="Path 7495" d="M4205.143-976.366s-3.025-16.072,15.628-16.163a.216.216,0,0,0,.05-.427c-5.11-1.173-19.941-2.91-20.165,16.377C4203.5-975.559,4205.143-976.366,4205.143-976.366Z" fill="#415eda"/>
          <path id="Path_7496" data-name="Path 7496" d="M4201.724-978.327c-7.279,1.472-6.384,10.642-6.384,10.642-.524,6.654,1.425,9.953,3.924,11.525a5.769,5.769,0,0,0,5.658.268,5.728,5.728,0,0,0,3.144-4.693c.134-1.811.288-3.532.423-4.144C4208.816-966.21,4209-979.8,4201.724-978.327Z" fill="#344cb6"/>
        </g>
        <path id="Path_7497" data-name="Path 7497" d="M4202.393-976.008a3.31,3.31,0,0,0-3.609,1.941c-4.351,10.039.991,16.57,3.613,16.706,2.764.143,2.708-13.1,2.121-16.5A2.425,2.425,0,0,0,4202.393-976.008Z" fill="#415eda"/>
      </g>
    </g>
    <g id="Group_7984" data-name="Group 7984">
      <path id="Path_7498" data-name="Path 7498" d="M4133.976-842.043a4.145,4.145,0,0,1,.461-2.579,2.018,2.018,0,0,1,1.687-1.134h221.171a2.466,2.466,0,0,1,2.121,1.656,4.946,4.946,0,0,1,.164,3.441l-2.4,7.4c-.549,1.694-1.738,2.779-3.047,2.779h-216.5c-1.218,0-2.264-1.231-2.5-2.936Z" fill="url(#linear-gradient-10)"/>
      <path id="Path_7499" data-name="Path 7499" d="M4354.137-830.208h-216.5c-1.353,0-2.516-1.334-2.766-3.172l-1.17-8.627a4.414,4.414,0,0,1,.494-2.751,2.276,2.276,0,0,1,1.925-1.271h221.171a2.718,2.718,0,0,1,2.371,1.817,5.2,5.2,0,0,1,.175,3.636l-2.4,7.4C4356.86-831.373,4355.562-830.208,4354.137-830.208ZM4134.248-842.08l1.17,8.627c.212,1.564,1.147,2.7,2.223,2.7h216.5c1.183,0,2.276-1.016,2.786-2.59l2.4-7.4a4.647,4.647,0,0,0-.154-3.246,2.194,2.194,0,0,0-1.871-1.494H4136.124a1.748,1.748,0,0,0-1.45,1,3.859,3.859,0,0,0-.426,2.4Z" fill="#91b3fa"/>
    </g>
    <g id="Group_7987" data-name="Group 7987">
      <path id="Path_7500" data-name="Path 7500" d="M4250.93-929.834c-1.249,10.169-6.869,51.484-8.478,63.289a2.714,2.714,0,0,0,2.779,3.072l95.337-2.718a2.721,2.721,0,0,0,2.582-2.124l14.831-66.532a2.718,2.718,0,0,0-2.819-3.3l-101.687,5.933A2.717,2.717,0,0,0,4250.93-929.834Z" fill="url(#linear-gradient-11)"/>
      <g id="Group_7985" data-name="Group 7985">
        <path id="Path_7501" data-name="Path 7501" d="M4289.252-888.111l-14.09,39.838,32.764.692,2.728-40.291a3.138,3.138,0,0,0-3.345-3.335l-15.3,1.012A3.143,3.143,0,0,0,4289.252-888.111Z" fill="url(#linear-gradient-12)"/>
        <path id="Path_7502" data-name="Path 7502" d="M4308.181-847.3l-.261-.005-33.143-.7,14.217-40.194a3.411,3.411,0,0,1,3-2.265l15.3-1.012a3.432,3.432,0,0,1,2.644.99,3.4,3.4,0,0,1,.992,2.636Zm-32.635-1.235,32.124.679,2.71-40.031a2.852,2.852,0,0,0-.833-2.213,2.877,2.877,0,0,0-2.22-.831l-15.3,1.012a2.861,2.861,0,0,0-2.516,1.9Z" fill="#91b3fa"/>
      </g>
      <g id="Group_7986" data-name="Group 7986">
        <path id="Path_7503" data-name="Path 7503" d="M4261.879-847.705h0a1.7,1.7,0,0,0,1.617,2.223h51.31a1.7,1.7,0,0,0,1.7-1.7v-2.192a1.7,1.7,0,0,0-1.774-1.693l-51.31,2.192A1.7,1.7,0,0,0,4261.879-847.705Z" fill="url(#linear-gradient-13)"/>
        <path id="Path_7504" data-name="Path 7504" d="M4314.806-845.209H4263.5a1.957,1.957,0,0,1-1.6-.813,1.941,1.941,0,0,1-.277-1.768,1.983,1.983,0,0,1,1.792-1.353l51.31-2.192a1.955,1.955,0,0,1,1.451.545,1.947,1.947,0,0,1,.609,1.421v2.192A1.973,1.973,0,0,1,4314.806-845.209Zm0-5.582h-.064l-51.309,2.192a1.437,1.437,0,0,0-1.3.978h0a1.4,1.4,0,0,0,.2,1.277,1.413,1.413,0,0,0,1.156.588h51.31a1.425,1.425,0,0,0,1.427-1.422v-2.192a1.407,1.407,0,0,0-.44-1.027A1.416,1.416,0,0,0,4314.808-850.791Z" fill="#91b3fa"/>
      </g>
      <path id="Path_7505" data-name="Path 7505" d="M4249.49-887.8l-.677-.085,4.685-36.8a4.8,4.8,0,0,1,4.479-4.178l87.874-5.287.041.678-87.874,5.286a4.122,4.122,0,0,0-3.844,3.586Z" fill="#91b3fa"/>
      <path id="Path_7506" data-name="Path 7506" d="M4247.142-869.355l-.676-.085,1.014-7.967.677.085Z" fill="#91b3fa"/>
    </g>
  </g>
</svg>
