<svg xmlns="http://www.w3.org/2000/svg" width="37" height="37.001" viewBox="0 0 37 37.001">
  <path id="Union_3" data-name="Union 3" d="M306.725,234A10.737,10.737,0,0,1,296,223.277V208.725A10.737,10.737,0,0,1,306.725,198h14.551A10.737,10.737,0,0,1,332,208.725v14.551A10.737,10.737,0,0,1,321.276,234Zm-7.1-25.276v14.551a7.1,7.1,0,0,0,7.1,7.1h14.551a7.1,7.1,0,0,0,7.1-7.1V208.725a7.1,7.1,0,0,0-7.1-7.1H306.725A7.1,7.1,0,0,0,299.622,208.725ZM304.69,216A9.311,9.311,0,1,1,314,225.311,9.321,9.321,0,0,1,304.69,216Zm3.622,0A5.689,5.689,0,1,0,314,210.31,5.689,5.689,0,0,0,308.311,216Zm12.787-9.24a2.231,2.231,0,1,1,2.231,2.231A2.231,2.231,0,0,1,321.1,206.76Z" transform="translate(-295.5 -197.5)" fill="#b6bdda" stroke="rgba(0,0,0,0)" stroke-width="1"/>
</svg>
