<svg id="Group_3667" data-name="Group 3667" xmlns="http://www.w3.org/2000/svg" width="36" height="36.001" viewBox="0 0 36 36.001">
  <path id="Path_6097" data-name="Path 6097" d="M5226.708-2960.919v-.043c-.009.015-.021.029-.029.043Z" transform="translate(-5206.783 2976.725)" fill="#b6bdda"/>
  <path id="Path_6098" data-name="Path 6098" d="M5204.247-2993a18,18,0,0,0-18,18,18,18,0,0,0,18,18,18,18,0,0,0,18-18A18,18,0,0,0,5204.247-2993Zm-4.758,26.87h-4.3v-12.941h4.3Zm-2.151-14.707h-.028a2.228,2.228,0,0,1-2.378-2.236,2.245,2.245,0,0,1,2.435-2.235,2.235,2.235,0,0,1,2.405,2.235A2.244,2.244,0,0,1,5197.338-2980.832ZM5215-2966.125h-4.3v-6.924c0-1.739-.621-2.926-2.179-2.926a2.354,2.354,0,0,0-2.207,1.573,2.946,2.946,0,0,0-.143,1.049v7.227h-4.3s.058-11.726,0-12.94h4.3v1.833a4.272,4.272,0,0,1,3.877-2.137c2.831,0,4.953,1.85,4.953,5.824Z" transform="translate(-5186.247 2992.995)" fill="#b6bdda"/>
</svg>
