<svg xmlns="http://www.w3.org/2000/svg" xmlns:xlink="http://www.w3.org/1999/xlink" width="850" height="556" viewBox="0 0 850 556">
  <defs>
    <clipPath id="clip-path">
      <rect id="Rectangle_760" data-name="Rectangle 760" width="850" height="556" rx="18" transform="translate(86 730)" fill="#f3f6ff"/>
    </clipPath>
  </defs>
  <g id="Mask_Group_4" data-name="Mask Group 4" transform="translate(-86 -730)" clip-path="url(#clip-path)">
    <g id="Group_3468" data-name="Group 3468" transform="translate(1807.796 9486.036)">
      <path id="Path_5594" data-name="Path 5594" d="M-1487.83-8738.309a5.639,5.639,0,0,1-5.639-5.639,5.639,5.639,0,0,1,5.639-5.643,5.639,5.639,0,0,1,5.639,5.643A5.639,5.639,0,0,1-1487.83-8738.309Z" transform="translate(473.763 16.581)" fill="#fda92f"/>
      <path id="Path_5595" data-name="Path 5595" d="M-826.088-8727.878v526.913c-29,0-59.583,0-91.182-.01h-.12c-.742,0-1.479,0-2.22,0-184.481-.03-403.4-.133-548.183-.387q-17.333-.026-33.19-.067-15-.032-28.526-.062-8.337-.025-16.064-.049c-50.328-.15-80.687-.338-80.787-.567l-.1-.166s-.024-.04-.048-.088a.537.537,0,0,1-.048-.16c-.379-.666-150.581-186.942,82.932-316.62,91.361-50.734-5.722-84.227,66.931-140.714,83.5-64.911,174.624,6.9,267.465-22.534a156.724,156.724,0,0,0,49.347-26.4,181.608,181.608,0,0,1,30.323-18.976q2.507-1.26,5.056-2.454,9.779-4.567,20.235-8.275,7.01-2.492,14.286-4.612h0q11.549-3.36,23.685-5.809a345.75,345.75,0,0,1,35.319-5.224q7.878-.776,15.882-1.221,8.122-.46,16.34-.6,6.011-.116,12.061-.058c11.608.105,23.294.657,34.973,1.626q4.754.387,9.51.875A511.95,511.95,0,0,1-826.088-8727.878Z" transform="translate(-47.356 0.673)" fill="#f2f5fd"/>
      <path id="Path_5596" data-name="Path 5596" d="M-1298.763-8204.748h-274.1l53.921-479.148c14.7-5.186,29.451-13.533,44.22-26.344a161.62,161.62,0,0,1,27.175-18.937q2.246-1.263,4.535-2.453a193.852,193.852,0,0,1,18.131-8.26q6.282-2.487,12.8-4.6h0q10.35-3.354,21.226-5.8a280.347,280.347,0,0,1,31.652-5.213l2.091,19.053Z" transform="translate(269.462 1.361)" fill="#fddbbd"/>
      <path id="Path_5597" data-name="Path 5597" d="M-1517.5-8590.785h-27.618s-.665-4.209.779-7.4c1.383-3.061,3.534-4.955,3.73-7.3,1.755,1.8,3.913,2.969,7.908,2.432.489.793,3.159,5.035,4.792,6.213C-1526.1-8595.549-1518.053-8596.012-1517.5-8590.785Z" transform="translate(340.471 387.399)" fill="#130d3c"/>
      <path id="Path_5598" data-name="Path 5598" d="M-1504.681-8590.785H-1532.3s-.665-4.209.779-7.4c1.383-3.061,3.534-4.955,3.73-7.3,1.755,1.8,3.913,2.969,7.908,2.432.486.793,3.155,5.035,4.789,6.213C-1513.282-8595.549-1505.235-8596.012-1504.681-8590.785Z" transform="translate(373.456 387.399)" fill="#130d3c"/>
      <path id="Path_5599" data-name="Path 5599" d="M-1505.107-8623.811c.69,12.979-5.86,143.791-5.86,143.791a10.136,10.136,0,0,1-5.553,2.656,22.154,22.154,0,0,1-7.729-.3s-21.015-143.934-5.349-163.279c.35-.439.722-.863,1.111-1.264.514-.533,1.7-.852,1.511-1.508-4.459-15.455,15.1-7.705,15.169-7.492C-1509.416-8643.463-1506.029-8641.137-1505.107-8623.811Z" transform="translate(365.859 264.281)" fill="#e84b92"/>
      <path id="Path_5600" data-name="Path 5600" d="M-1491.348-8655.373l-35.8,8.492s-9.509,6.125-12.239,40.029c-2.647,32.906-5.321,131.941-5.321,131.941a9.344,9.344,0,0,0,5.8,3.07,17.948,17.948,0,0,0,7.029-.961c7.589-45.842,39.17-151.852,39.17-151.852Z" transform="translate(341.898 259.035)" fill="#ff5da1"/>
      <path id="Path_5601" data-name="Path 5601" d="M-1501.454-8682.992s-19.35-.781-22.112,23.846c-2.337,20.8-34.668,19.217-24.295,41.322s39.035,9.559,43.948,5.734,32.756-12.557,35.758-18.561-4.846-11.793-7.3-19.682S-1469.93-8689.031-1501.454-8682.992Z" transform="translate(328.531 185.963)" fill="#5e0a0a"/>
      <path id="Path_5602" data-name="Path 5602" d="M-1516.7-8672.461s-.668-3.322-1.415-5.855c-.333-1.117,1.979-8.484,3.577-9.387s5.768,4.051,4.588,7.857c-.6,1.955-1.6,8.32-1.6,8.32Z" transform="translate(410.261 175.558)" fill="#fc8961"/>
      <path id="Path_5603" data-name="Path 5603" d="M-1514.961-8678.3s-.872-1.924-1.658-2.236-1.626-3.463-2.2-4.709c0,0,.554-.816,1.53.238.6.639,1.919,2.512,1.919,2.512Z" transform="translate(408.524 181.397)" fill="#fc8961"/>
      <path id="Path_5604" data-name="Path 5604" d="M-1544.108-8680.553c-.168.35-.4.975-.615,1.563,0-.16,0-.32-.007-.477-.011-1.166-4.377-7.531-6.171-7.93s-4.328,5.561-2.087,8.857c1.154,1.691,4.7,9.281,4.7,9.281l3.92-4.2s.268-2.094.929-2.623.543-3.783.729-5.145C-1542.711-8681.223-1543.483-8681.844-1544.108-8680.553Z" transform="translate(318.337 176.578)" fill="#fc8961"/>
      <path id="Path_5605" data-name="Path 5605" d="M-1528.989-8652.766s-5.682-4.5-8.29-9.129c-1.862-3.309-4.646-17.012,9.155-19.736a18.909,18.909,0,0,1,8.383.209c3.527.926,9.1,3.643,8.5,16.666l.154,4.275Z" transform="translate(357.01 190.516)" fill="#5e0a0a"/>
      <path id="Path_5606" data-name="Path 5606" d="M-1541.525-8642.641l7.79,31.789,36.905,1.6s7.475-26.586,4.381-38.691a92.94,92.94,0,0,0-7.818-20.508s-11.467-2.754-31.771-1.145Z" transform="translate(350.099 221.137)" fill="#344cb6"/>
      <path id="Path_5607" data-name="Path 5607" d="M-1532.612-8636.217c13.257-1.229,32.878-8.625,35.333-13.238s16.541-27.135,18.842-34.066a16.108,16.108,0,0,1,2.751.031,12.978,12.978,0,0,1,3.084,1.045s-8.211,33.922-13.075,42.4-24.945,23.475-27.679,32.066S-1536.6-8635.846-1532.612-8636.217Z" transform="translate(371.714 186.476)" fill="#344cb6"/>
      <path id="Path_5608" data-name="Path 5608" d="M-1493.094-8636.156c-13.257-1.229-32.878-8.625-35.333-13.238s-15.49-27.248-18.531-33.9a5.253,5.253,0,0,0-3.038-.139,6.178,6.178,0,0,0-2.866,1.93s7.472,33.039,12.335,41.518,25.442,23.475,28.175,32.066S-1489.1-8635.785-1493.094-8636.156Z" transform="translate(320.926 186.417)" fill="#344cb6"/>
      <path id="Path_5609" data-name="Path 5609" d="M-1536.406-8659.863c.718-1.637,2.395-9.732,1.916-13.779l.775.027,13.018.506s.061,3.148.386,6.082l.007.07a32.855,32.855,0,0,1,.268,7.023c-.089,1.453-4.767,2.514-10.205,2.389C-1532.182-8657.592-1536.881-8658.781-1536.406-8659.863Z" transform="translate(363.186 212.021)" fill="#fc8961"/>
      <path id="Path_5610" data-name="Path 5610" d="M-1522.659-8673.129s.061,3.148.386,6.082c-7.175.656-11.535-3.967-13.4-6.588Z" transform="translate(365.148 212.041)" fill="#f16d48"/>
      <path id="Path_5611" data-name="Path 5611" d="M-1513.424-8653.875s-16.412,6.053-20.028-4.227-8.168-16.422,2.162-20.725,13.754-1.1,15.794,2.041S-1509.246-8655.719-1513.424-8653.875Z" transform="translate(360.101 193.318)" fill="#fc8961"/>
      <path id="Path_5612" data-name="Path 5612" d="M-1521.845-8680.395s-.293,13.648-6.6,17.867-9.973,3.41-9.973,3.41a20.837,20.837,0,0,0,2.358-13.857S-1527.266-8684.941-1521.845-8680.395Z" transform="translate(358.084 192.003)" fill="#5e0a0a"/>
      <path id="Path_5613" data-name="Path 5613" d="M-1534-8678.479s2.412-.9,6.1,2.275c1.686,1.451,5.471,8.426,5.471,8.426s.532-9.393-4.921-12.691C-1533.135-8683.969-1534-8678.479-1534-8678.479Z" transform="translate(369.463 191.459)" fill="#5e0a0a"/>
      <path id="Path_5614" data-name="Path 5614" d="M-1532.7-8672.605a7.723,7.723,0,0,0,4.652-.016c1.619-.568,1.619-2.619,1.619-2.619a6.654,6.654,0,0,0-3,.582A13.089,13.089,0,0,0-1532.7-8672.605Z" transform="translate(372.817 207.88)" fill="#fff"/>
      <path id="Path_5615" data-name="Path 5615" d="M-1521.771-8664.455s-7.922-1.588-10.642-6.631c0,0-3.741.537-5.124,2.053,0,0,4.338,8.262,12.635,9.393C-1524.9-8659.641-1522.032-8662.3-1521.771-8664.455Z" transform="translate(360.362 218.604)" fill="#fff"/>
      <path id="Path_5616" data-name="Path 5616" d="M-1528.54-8670.949a10.132,10.132,0,0,1,3.97.957,9.837,9.837,0,0,1-3.334,9.484s-2.562-4.041-5.221-4.3C-1533.125-8664.807-1528.176-8667.312-1528.54-8670.949Z" transform="translate(371.715 218.956)" fill="#fff"/>
      <path id="Path_5617" data-name="Path 5617" d="M-1533.355-8668.545a.821.821,0,0,1,.822-.82.82.82,0,0,1,.818.82.817.817,0,0,1-.818.816A.818.818,0,0,1-1533.355-8668.545Z" transform="translate(371.123 223.032)" fill="#0b3563"/>
      <path id="Path_5618" data-name="Path 5618" d="M-1532.055-8665.4a.82.82,0,0,1,.818-.816.82.82,0,0,1,.822.816.82.82,0,0,1-.822.82A.819.819,0,0,1-1532.055-8665.4Z" transform="translate(374.469 231.12)" fill="#0b3563"/>
      <path id="Path_5619" data-name="Path 5619" d="M-1531.384-8661.7a.821.821,0,0,1,.818-.824.821.821,0,0,1,.818.824.817.817,0,0,1-.818.816A.817.817,0,0,1-1531.384-8661.7Z" transform="translate(376.195 240.628)" fill="#0b3563"/>
      <circle id="Ellipse_104" data-name="Ellipse 104" cx="0.819" cy="0.819" r="0.819" transform="translate(-1154.37 -8406.95)" fill="#0b3563"/>
      <path id="Path_5620" data-name="Path 5620" d="M-1499.98-8654.67s-3.466,2.738-10.348,2.879c-8.223.164-28.6-2.1-28.6-2.1a16.9,16.9,0,0,0-.868,5.2s24.888,6.277,39.307.918A9.109,9.109,0,0,0-1499.98-8654.67Z" transform="translate(354.543 260.844)" fill="#081a3d"/>
      <path id="Path_5621" data-name="Path 5621" d="M-1524.549-8650.16l0-.059a4.426,4.426,0,0,0-1.386-3.1,3.5,3.5,0,0,0-2.358-.941,3.562,3.562,0,0,0-2.794,1.42,4.417,4.417,0,0,0-.9,2.074c-.015.094-.029.191-.036.285-.015.15-.025.307-.025.467a4.5,4.5,0,0,0,1.283,3.2,3.509,3.509,0,0,0,2.469,1.051,3.634,3.634,0,0,0,3.034-1.75,4.58,4.58,0,0,0,.722-2.5A.982.982,0,0,0-1524.549-8650.16Zm-3.749,3.152a1.855,1.855,0,0,1-.21-.012,2.851,2.851,0,0,1-2.3-2.994,2.72,2.72,0,0,1,.033-.418,2.779,2.779,0,0,1,.089-.5,2.768,2.768,0,0,1,1.743-1.975,1.912,1.912,0,0,1,.647-.105,1.817,1.817,0,0,1,.272.018,2.743,2.743,0,0,1,2.2,2.488,1.367,1.367,0,0,1,.028.3,1.129,1.129,0,0,1,.011.2,2.977,2.977,0,0,1-1.8,2.883A1.973,1.973,0,0,1-1528.3-8647.008Z" transform="translate(374.484 261.903)" fill="#fff"/>
      <path id="Path_5622" data-name="Path 5622" d="M-1614.289-8643.6s1.937,8.588,1.383,10.943-6.579,6.1-8.83,5.4-.314-12.465,3.566-14.4Z" transform="translate(141.229 289.335)" fill="#fc8961"/>
      <path id="Path_5623" data-name="Path 5623" d="M-1575.155-8634.875c-7.744-9.041-6.947-16.512-6.714-23.471s-4.824-27.172-22.162-25.135a12.9,12.9,0,0,0-10.206,1.092c-9.619,4.986-28.14,42.266-23.584,57.658,1.079,3.65,3.452,6.068,7.55,6.533a18.408,18.408,0,0,0,6.336-.553c-.4-.781,2.726-2.3,6.864-2.875,7.107-.984,17.188.828,17.438,14.012a79.829,79.829,0,0,0,8.608-.811,61.453,61.453,0,0,0,9.73-2.205,32.82,32.82,0,0,0,5.121-2.129C-1568.952-8616.59-1565.21-8623.268-1575.155-8634.875Z" transform="translate(100.476 185.235)" fill="#5e0a0a"/>
      <path id="Path_5624" data-name="Path 5624" d="M-1623.228-8669.947s8.655,1.979,11.224,9.918,5.732,36.465,6.011,49.111c.246,11.23.275,38.445.275,38.445s-3.6,1.8-8.83,0l-10.938-55.693Z" transform="translate(134.041 221.534)" fill="#ff5da1"/>
      <path id="Path_5625" data-name="Path 5625" d="M-1612.84-8612.312s-1.884-31.035-.314-46.293c1.254-12.2-14.029,23.457-12.986,29.941S-1612.84-8612.312-1612.84-8612.312Z" transform="translate(132.226 244.226)" fill="#f78d00"/>
      <path id="Path_5626" data-name="Path 5626" d="M-1640.281-8605.98s-5.249,4.791-4.224,8.193,5.76,5.67,6.4,9.83,3.2,6.428,5.5,6.428h10.988s1.694-2.924-2.4-3.807-5.643-5.77-5.385-10.3a79.873,79.873,0,0,0-.382-10.588l-8.705-2.02Z" transform="translate(84.756 380.302)" fill="#211572"/>
      <path id="Path_5627" data-name="Path 5627" d="M-1630.463-8607.045s-1.886,20.293.415,21.428l29.49-.064s0-3.4-4.738-4.158-13.057-3.525-14.465-9.705S-1630.463-8607.045-1630.463-8607.045Z" transform="translate(119.361 383.402)" fill="#211572"/>
      <path id="Path_5628" data-name="Path 5628" d="M-1637.194-8645.365a117.4,117.4,0,0,0,0,13.635c.289,4.926,5.277,11.525,5.981,13.158,1.776,4.1,3.777,4.764,3.777,4.764l15.483,3.8,5.446,1.332,17.166-5.129s7.822-21.824,4.681-34.115a94.59,94.59,0,0,0-7.936-20.818s-11.638-2.791-32.249-1.162Z" transform="translate(103.409 220.33)" fill="#ff5da1"/>
      <path id="Path_5629" data-name="Path 5629" d="M-1636.066-8655.436c.293,4.926.747,9.516,1.451,11.148,1.776,4.1,3.777,4.764,3.777,4.764l15.483,3.8,6.725-1.982s-22.447-3.4-19.96-22.715Z" transform="translate(106.812 246.044)" fill="#f6c8a2"/>
      <path id="Path_5630" data-name="Path 5630" d="M-1603.733-8653.646s8.5,26.465,9.048,35.477-16.252,127.99-16.931,132.143c-.636,3.914-5.5,6.406-5.5,6.406a7.351,7.351,0,0,1-5.424.418c-4.424-1.248-5.825-2.742-5.825-2.742s-6.618-84.859-2.522-115.174a480.227,480.227,0,0,0,4.145-56.527Z" transform="translate(116.712 263.478)" fill="#203bb3"/>
      <path id="Path_5631" data-name="Path 5631" d="M-1612.229-8653.867s-12.968,17.4-14.179,29.162-1.894,53.082-4.47,64.549-12.039,33.535-12.039,69.3a7.122,7.122,0,0,0,4.02,3.141,33.933,33.933,0,0,0,3.534.98,5.568,5.568,0,0,0,6.221-2.953c6.4-12.883,26.778-54.43,27.822-63.057.74-6.1,7.175-46.5,21.211-70.2,3.37-5.687-2.069-28.318-2.069-28.318Z" transform="translate(89.186 262.91)" fill="#344cb6"/>
      <path id="Path_5632" data-name="Path 5632" d="M-1595.625-8654.791s-3.416,2.7-10.194,2.838c-8.1.164-28.168-2.066-28.168-2.066a16.676,16.676,0,0,0-.854,5.127s24.509,6.18,38.71.9A8.978,8.978,0,0,0-1595.625-8654.791Z" transform="translate(109.962 260.536)" fill="#130d3c"/>
      <path id="Path_5633" data-name="Path 5633" d="M-1620.089-8651.752a4.146,4.146,0,0,0-1.036-1.637l-.075-.07a3.56,3.56,0,0,0-.882-.6,3.294,3.294,0,0,0-1.433-.326,3.477,3.477,0,0,0-2.741,1.393,4.06,4.06,0,0,0-.686,1.24.675.675,0,0,0-.036.107,4.357,4.357,0,0,0-.225,1.313.75.75,0,0,0-.007.129,4.42,4.42,0,0,0,1.265,3.15,3.422,3.422,0,0,0,2.43,1.033,3.259,3.259,0,0,0,1.683-.465,3.692,3.692,0,0,0,1.3-1.256,4.458,4.458,0,0,0,.715-2.463A4.421,4.421,0,0,0-1620.089-8651.752Zm-3.427,4.508h-.036c-.05,0-.1,0-.146-.008a2.8,2.8,0,0,1-2.287-2.951v-.025a3.355,3.355,0,0,1,.368-1.523,2.738,2.738,0,0,1,.222-.367,2.438,2.438,0,0,1,1.25-.939,1.954,1.954,0,0,1,.629-.1,1.7,1.7,0,0,1,.268.02,2.024,2.024,0,0,1,.646.193l.176.094a2.713,2.713,0,0,1,1.011,1.1,3.393,3.393,0,0,1,.368,1.549,3.129,3.129,0,0,1-1.061,2.426,2.468,2.468,0,0,1-.718.418A2.159,2.159,0,0,1-1623.516-8647.244Z" transform="translate(129.602 261.581)" fill="#fff"/>
      <rect id="Rectangle_763" data-name="Rectangle 763" width="33.297" height="45.578" transform="matrix(-0.754, -0.657, 0.657, -0.754, -1525.298, -8367.602)" fill="#5ea9cc"/>
      <path id="Path_5634" data-name="Path 5634" d="M-1631.763-8653.428s9.831.865,9.8,3.047-3.12,5.992-4.574,5.992c-3.323,0-6.972-4.98-6.972-4.98Z" transform="translate(113.401 264.044)" fill="#fc8961"/>
      <path id="Path_5635" data-name="Path 5635" d="M-1611.815-8670.271s-12.285.863-16.995,12.309-13.643,30.666-13.643,33.9,4.992,13.2,31.792,18.928c0,0,2.773-2.918,2.6-5.221,0,0-16.73-14.373-16.684-16.051.082-3.176,2.741-7.367,17.431-22.062C-1603.317-8652.463-1611.815-8670.271-1611.815-8670.271Z" transform="translate(90.38 220.696)" fill="#ff5da1"/>
      <path id="Path_5636" data-name="Path 5636" d="M-1632.606-8652.939a22.012,22.012,0,0,1,3.684-.506c1.455-.012,3.2-.3,3.212.2.021.906-2.909,1.221-2.909,1.637S-1632.606-8652.939-1632.606-8652.939Z" transform="translate(115.719 263.763)" fill="#fc8961"/>
      <path id="Path_5637" data-name="Path 5637" d="M-1631.866-8659.531c.915-1.717,3.534-10.451,3.516-14.984l.775.133,13.071,2.188s-.3,3.486-.307,6.77v.082a39.78,39.78,0,0,1-.533,7.787c-.257,1.592-5.1,2.178-10.57,1.357C-1627.864-8656.492-1632.47-8658.4-1631.866-8659.531Z" transform="translate(117.484 209.778)" fill="#fc8961"/>
      <path id="Path_5638" data-name="Path 5638" d="M-1617.632-8672.291s-.3,3.486-.307,6.77c-7.315-.178-11.178-5.826-12.764-8.957Z" transform="translate(120.613 209.874)" fill="#f16d48"/>
      <path id="Path_5639" data-name="Path 5639" d="M-1613.753-8651.693s-17.3.287-17.316-10.492-2.251-18,8.8-18.641,13.2,3.471,14.079,7.068S-1609.25-8652.045-1613.753-8651.693Z" transform="translate(119.174 193.364)" fill="#fc8961"/>
      <path id="Path_5640" data-name="Path 5640" d="M-1610.387-8679.369s-4.738,12.646-12.01,14.52-10.423-.084-10.423-.084a20.579,20.579,0,0,0,6.735-12.164S-1613.96-8685.385-1610.387-8679.369Z" transform="translate(115.169 191.64)" fill="#5e0a0a"/>
      <path id="Path_5641" data-name="Path 5641" d="M-1626.87-8679.174s3.513,1.313,4.959,3.873a17.455,17.455,0,0,1,2.337,9.9s3.57-8.6-.443-13.463C-1624.268-8684.018-1626.87-8679.174-1626.87-8679.174Z" transform="translate(130.48 192.478)" fill="#5e0a0a"/>
      <path id="Path_5643" data-name="Path 5643" d="M-1583.185-8588.6c-2.495-1.525-1.076-12.885-1.076-12.885s11.624-9.295,13.221-2.178,11.042,10.316,16.416,11.189c3.712.6,4.859,2.654,5.217,3.873Z" transform="translate(239.093 385.19)" fill="#211572"/>
      <path id="Path_5644" data-name="Path 5644" d="M-1597.321-8588.6c-2.494-1.525-1.076-12.885-1.076-12.885s11.621-9.295,13.222-2.178,11.038,10.316,16.416,11.189c3.708.6,4.859,2.654,5.213,3.873Z" transform="translate(202.717 385.19)" fill="#211572"/>
      <path id="Path_5645" data-name="Path 5645" d="M-1596.117-8642.762c0,11.188,4.342,26.953,4.342,26.953,3.313,16.037,32.038,125.359,34.807,126.4,4.613,1.742,16.377-1.912,16.194-3.553-8.955-80.357-12.109-147.043-12.628-149.629C-1554.874-8643.721-1590.561-8655.23-1596.117-8642.762Z" transform="translate(209.617 276.677)" fill="#0e0d59"/>
      <path id="Path_5646" data-name="Path 5646" d="M-1570.117-8678.951s-7.851-8.564-10.277-8.848-12.414,4.5-12.985,6.387,10.988-1.889,11.631,0,1.354,3.176,4.639,3.318a13.862,13.862,0,0,1,6.135,2Z" transform="translate(216.609 175.557)" fill="#fc8961"/>
      <path id="Path_5647" data-name="Path 5647" d="M-1578.959-8666.648l-.007,2.018s.451,6.3-5.921,7.227-11.2-2.461-11.027-7.328c.572-3.766,1.2-6.352,1.244-9.471a26.089,26.089,0,0,0-.226-3.779l12.35-.3,3.634.727Z" transform="translate(210.126 200.083)" fill="#fc8961"/>
      <path id="Path_5648" data-name="Path 5648" d="M-1579.649-8677.557l-.032,8.119c-13.982-1.047-15.772-7.152-15.952-8.545l12.35-.3Z" transform="translate(210.863 200.083)" fill="#f16d48"/>
      <path id="Path_5649" data-name="Path 5649" d="M-1573.129-8653.684s-19.274,3.895-21.515-8.148-6.236-19.646,5.975-22.641,15.465,1.156,17.191,4.986S-1568.173-8655.006-1573.129-8653.684Z" transform="translate(207.083 181.509)" fill="#fc8961"/>
      <path id="Path_5650" data-name="Path 5650" d="M-1552.044-8642.971c-20.979,95.533-23.666,162.135-23.666,162.135s-6.293,1.836-18.832.273c0,0-2.87-42.322-4.331-74.027-.429-9.293-4.81-64.17,1.226-90.775C-1595.213-8656.088-1549.661-8653.816-1552.044-8642.971Z" transform="translate(197.543 266.808)" fill="#211572"/>
      <path id="Path_5651" data-name="Path 5651" d="M-1536.693-8573.594s-6.229,5.67-22.684,5.564c-10.345-.062-24.331-2.473-30.588-3.768-8.415-1.744-7.075-4.787-6.393-11.02.875-7.988,1.226-22.467-3.27-47.016q-.991-5.429-2.319-11.533c-3.78-17.322,18-27.357,20.808-31.447,16,14.674,20.464,1.061,20.464,1.061l0,0a24.134,24.134,0,0,0,14.361-2.977c6.482-3.877,5.932,20.91,5.942,28.91.011,8.592,1.794,29.785,2.044,39.119C-1538-8594.584-1536.693-8573.594-1536.693-8573.594Z" transform="translate(193.488 208.166)" fill="#fda92f"/>
      <path id="Path_5652" data-name="Path 5652" d="M-1544.672-8659.318a20.753,20.753,0,0,1-.561,2.18l0,.008c-4.741,15.037-24.5,32.246-27.128,37.861-1.54,3.295-2.18,13.01-2.126,12.705l-14.486-32.684s20.854-15.668,21.729-17.891c1.326-3.367-19.074-21.869-19.074-21.869s-1.015-1.6.232-4.535a5.468,5.468,0,0,1,2.6-2.957S-1543.236-8666.721-1544.672-8659.318Z" transform="translate(227.988 178.939)" fill="#fda92f"/>
      <path id="Path_5653" data-name="Path 5653" d="M-1596.869-8627.512c-1.479-10.113-1.547-12.41-5.188-36.949,1.372.277,6.135-2.033,8.451,1.9C-1586.882-8651.123-1584.685-8642.371-1596.869-8627.512Z" transform="translate(194.329 234.559)" fill="#f78d00"/>
      <path id="Path_5654" data-name="Path 5654" d="M-1601.586-8649.207s10.005-6.047,13.1-5.283,9.83,3.691,9.412,5.479-8.233,3.008-9.591,2.8-3.555.035-4.445.807-7.983,1.053-8.848-1.023S-1601.586-8649.207-1601.586-8649.207Z" transform="translate(193.804 261.135)" fill="#fc8961"/>
      <path id="Path_5655" data-name="Path 5655" d="M-1561.663-8674.49s-15.294,2.986-21.247,7.91c-6.082,5.029-28.39,34.777-26.979,45.086,1.43,10.457,26.235,26.646,26.235,26.646s4.871,1.619,5.046-6.139c0,0-13.089-19.346-12.4-21.586.436-1.41,19.725-16.883,19.725-16.883Z" transform="translate(174.012 209.84)" fill="#fda92f"/>
      <path id="Path_5656" data-name="Path 5656" d="M-1574.586-8598.781a10.5,10.5,0,0,1-2.991,6.957l-2.87,2.936a1.767,1.767,0,0,1-2.594-.07l-3.988-4.555a6.306,6.306,0,0,1-1.554-4.424c.165-3.607.454-10.559.625-17.264.143-5.432.207-10.705.064-13.9-.45-10.211-4.177-42.66-4.177-42.66h2.455a131.223,131.223,0,0,1,10.82,29.346,113.471,113.471,0,0,1,2.39,13.314S-1574.157-8610.576-1574.586-8598.781Z" transform="translate(220.031 216.851)" fill="#344cb6"/>
      <path id="Path_5657" data-name="Path 5657" d="M-1592.82-8671.3l6.822-1.633a1.03,1.03,0,0,1,.865,1.186c-.025,1.109-1.919,4.359-2.759,4.617S-1594.432-8669.053-1592.82-8671.3Z" transform="translate(217.365 213.847)" fill="#344cb6"/>
      <path id="Path_5658" data-name="Path 5658" d="M-1597.226-8672.42c-.05-1.061,5.074-2.76,5.074-2.76s3.855,8.639,13.35,8.779c0,0-2.706,5.262-5.893,6.623C-1584.694-8659.777-1596.911-8666.107-1597.226-8672.42Z" transform="translate(206.763 208.066)" fill="#f78d00"/>
      <path id="Path_5659" data-name="Path 5659" d="M-1592.07-8666.795s3.187-5,3.205-8.232a22.215,22.215,0,0,1,6.511,3.186s-.394,6.209-2.827,9.332A26.211,26.211,0,0,0-1592.07-8666.795Z" transform="translate(220.031 208.461)" fill="#f78d00"/>
      <path id="Path_5660" data-name="Path 5660" d="M-1598.16-8664.857c2.934,9.865,9.716,11.236,9.716,11.236a13.393,13.393,0,0,1-.894-4.139,4.06,4.06,0,0,1,.222-1.455,6.278,6.278,0,0,0-.082-3.854c-.29-.848-.286-1.66.418-2.064,1.129-.643,2.5.537,3.355,1.486a2.139,2.139,0,0,0,2.248.611l.014-.008c3.327-1.1.3-8.662,3.931-8.5,12.006.52,13.075-1.344,15.026-3.352,1.407-1.443.822-6.381-1.123-6.918A36.787,36.787,0,0,1-1573.4-8685a17.293,17.293,0,0,0-16.988.018C-1598.292-8681.859-1600.168-8671.6-1598.16-8664.857Z" transform="translate(202.441 177.078)" fill="#5e0a0a"/>
      <path id="Path_5661" data-name="Path 5661" d="M-1549.577-8691.437s15.708,5.951,18.882,10.752,3.859,18.635,8.8,22.289c1.54,1.137,20.836,10.416,24.806,9.467,2.687-.643,3.076-8.383-3.327-12.455-6.479-4.117-13.157-15.473-15.233-20.906-3.544-9.271-7.786-32.9-4.687-29.641l17.816-13.012-22.212,1.889Z" transform="translate(329.379 80.008)" fill="#f16d48"/>
      <path id="Path_5662" data-name="Path 5662" d="M-1547.362-8674.426s9.681,23.145,15.733,30.768c2.43,3.059,11.334,12.336,15.194,11.852,6.372-.8,4.474-11.738-3.109-20.791-2.072-2.479-6.521-22.033-7.625-31.447-2.751-23.408-4.4-37.5-4.4-37.5Z" transform="translate(335.079 88.743)" fill="#f16d48"/>
      <path id="Path_5663" data-name="Path 5663" d="M-1407.514-8744.2c-3.33,5.23-6.421,10.15-9.087,14.475-1.479,2.414-2.837,4.641-4.016,6.633-1.9,3.211-3.363,5.8-4.228,7.545-2.215,4.463-6.425,10.689-8.476,17.322v.008l-.014.031c-5.374,10.266-2.154,17.479-.275,21.932,4.652,11.045,2.78,31.744-2.626,54.27-2.948,12.287-3.023,28.09-2.719,34.174.1,2,.661,6.461,1.125,11.254.65,6.672,1.111,13.971-.136,16.1a3.352,3.352,0,0,1-2.555,1.107c-3.151.365-8.215-.621-10.395-2.271-6.528-4.928-9.187-16.209-11.242-35.15-1.947-18.045-6.686-25.23-12.367-30.824-3.695-3.629-7.958-6.756-15.73-5.992a55.107,55.107,0,0,0-7.479.926,30.789,30.789,0,0,0-11.6,4.777,21.809,21.809,0,0,0-3.67,3.26,22.413,22.413,0,0,0-5.381,11.729c-.028.16-.057.32-.086.477v.014a38.026,38.026,0,0,1-1.576,5.783c-1.34,3.8-3.141,7.527-4.681,11.152a37.152,37.152,0,0,0-3.13,10.43v.008a14.54,14.54,0,0,0,.532,5.908c1.976,6.281,1.951,13.494,2.259,21.328v0a92.018,92.018,0,0,0,2.069,17.852c3.495,14.908-3.284,20.139-9.255,18.164-.075-.025-.154-.049-.229-.08-1.865-.682-5.546-7.834-8.526-14.443-2.23-4.945-4.07-9.582-4.463-10.969-1.243-4.316-2.608-23.08-7.636-40.625-3.749-13.094,5.742-40.371,6.832-70.527.547-15.006,23.98-31.068,42.4-59.7.994-1.537,2.251-2.887,3.348-4.352l0,0q4.7-6.281,8.9-12.908a193.852,193.852,0,0,1,18.131-8.26q6.282-2.487,12.8-4.6h0q10.35-3.354,21.226-5.8A232.832,232.832,0,0,1-1407.514-8744.2Z" transform="translate(318.067 5.116)" fill="#fc8961"/>
      <path id="Path_5664" data-name="Path 5664" d="M-1452.5-8732.826l-3.831,6.623-14.079,24.338-1.372-.492-67.257-24.121.071-.17,0,0,4.366-10.455q2.246-1.263,4.535-2.453a193.852,193.852,0,0,1,18.131-8.26q6.282-2.487,12.8-4.6h0l44.077,18.527Z" transform="translate(356.509 9.292)" fill="#fff"/>
      <path id="Path_5665" data-name="Path 5665" d="M-1451.527-8755.848l-12.146,20.271-11.138,18.588-1.036-.408-.293-.111-2.437-.949h0l-52.868-20.557q6.282-2.487,12.8-4.6h0q10.35-3.354,21.226-5.8a280.347,280.347,0,0,1,31.652-5.213C-1461.057-8755.146-1456.308-8755.543-1451.527-8755.848Z" transform="translate(376.031 0.485)" fill="#344cb6"/>
      <path id="Path_5666" data-name="Path 5666" d="M-1520.462-8740.684a2.762,2.762,0,0,1,2.966-2.531,2.757,2.757,0,0,1,2.53,2.967,2.759,2.759,0,0,1-2.966,2.529A2.759,2.759,0,0,1-1520.462-8740.684Z" transform="translate(404.28 32.978)" fill="#344cb6"/>
      <path id="Path_5667" data-name="Path 5667" d="M-1492.388-8644.047s-2.044,7.439-.486,10.455,4.556,5.611,6,3.9-1.365-12.611-1.365-12.611Z" transform="translate(473.786 288.18)" fill="#fc8961"/>
      <path id="Path_5668" data-name="Path 5668" d="M-1469.75-8685.488a25.085,25.085,0,0,1,14.8,3.713c6.961,4.539,6.207,16.24,12.242,19.012s15.848,11.762,14.894,20.1-3.827,10.988.01,15.969-2.912,17.357-14.05,13.578-45.852-15.365-49.329-21.926-1.69-14.209,1.826-20.486S-1493.53-8684.145-1469.75-8685.488Z" transform="translate(474.821 181.384)" fill="#5e0a0a"/>
      <path id="Path_5669" data-name="Path 5669" d="M-1483.113-8571.656c5.563,35.832,10.1,74.438,7.947,94.738-1.719,5.678-6.953,7.545-11.578,8.26l3.156,3.48,8.937.555,11.953-4.639a48.291,48.291,0,0,1-1.2-6.469c-.608-4.781,1.661-15.686,1.661-15.686s6.014-37.67,2.748-46.152a34.412,34.412,0,0,1-1.9-8.156v0c-.937-7.621-.343-16.773.343-25.668.747-9.664,1.6-19.021.726-25.785a487.844,487.844,0,0,1-3.917-57.547l-23.409-.117s-6.732,18.8-3.723,34.979C-1488.82-8606.119-1485.84-8589.223-1483.113-8571.656Z" transform="translate(477.168 260.388)" fill="#f48a5b"/>
      <path id="Path_5670" data-name="Path 5670" d="M-1481.937-8671.381a12.263,12.263,0,0,0-7.572,7.3c-2.469,6-3.566,51.838-4.023,56.777s1.069,35.748,1.069,35.748,3.612,1.273,6.306-.793c9.788-7.484,5.307-49,5.307-49Z" transform="translate(473.383 217.838)" fill="#ff771b"/>
      <path id="Path_5671" data-name="Path 5671" d="M-1491.077-8616.373s-2.641-36.041-1.194-45.379c.511-3.309,6.432,2.432,7.1,10.889S-1491.077-8616.373-1491.077-8616.373Z" transform="translate(475.73 240.181)" fill="#f78d00"/>
      <path id="Path_5672" data-name="Path 5672" d="M-1471.317-8596.963c-5.207-.674-3.838.662-11.138.67s-9.784-2.443-10.124-3.49c-.3-.928,3.224-1.66,7-2.527l.132.1a20.114,20.114,0,0,0,10.6,2.031c4.906-.424,9.934-2.4,13.317-2.727a12.836,12.836,0,0,1,.3,3.393C-1461.519-8596.266-1466.111-8596.291-1471.317-8596.963Z" transform="translate(476.006 394.042)" fill="#d60f41"/>
      <path id="Path_5673" data-name="Path 5673" d="M-1482.492-8575.488c5.567,35.83,14.372,78.344,12.214,98.65-1.719,5.678-6.958,7.541-11.578,8.256l3.155,3.479,8.937.559,11.953-4.637a47.657,47.657,0,0,1-1.2-6.477c-.611-4.777,1.662-15.684,1.662-15.684s6.014-37.67,2.748-46.152a34.548,34.548,0,0,1-1.9-8.158v0c-.933-7.617-.339-16.768.346-25.662.747-9.662,1.6-19.021.726-25.785a488.319,488.319,0,0,1-3.92-57.545l-23.405-.123s-6.732,18.809-3.723,34.98C-1483.932-8606.039-1485.219-8593.055-1482.492-8575.488Z" transform="translate(489.746 260.583)" fill="#ff9e6e"/>
      <path id="Path_5674" data-name="Path 5674" d="M-1466.429-8596.889c-5.207-.674-3.838.664-11.138.67s-9.784-2.439-10.123-3.486c-.3-.928,3.223-1.66,7-2.529l.132.1a20.09,20.09,0,0,0,10.595,2.031c4.906-.43,9.934-2.408,13.318-2.729a12.856,12.856,0,0,1,.3,3.391C-1456.632-8596.189-1461.223-8596.215-1466.429-8596.889Z" transform="translate(488.585 394.234)" fill="#d60f41"/>
      <path id="Path_5675" data-name="Path 5675" d="M-1438.618-8645.607a119.475,119.475,0,0,1-.071,13.871c-.325,5.014-5.431,11.7-6.161,13.361-1.829,4.16-3.87,4.83-3.87,4.83l-15.776,3.779-5.546,1.326-17.445-5.312s-7.84-22.248-4.581-34.738a96.064,96.064,0,0,1,8.187-21.143s20.114-5.119,35.651-.5Z" transform="translate(475.328 216.091)" fill="#ff771b"/>
      <path id="Path_5676" data-name="Path 5676" d="M-1492.079-8615.012c1.819,23.656,4,43.586,4,43.586a58.311,58.311,0,0,0,26.585,8.51v0h0a51.658,51.658,0,0,0,23.652-3.967s3.509-57.084,1.515-66.191-10.981-21.67-10.981-21.67l-40.722,1.361S-1493.894-8638.67-1492.079-8615.012Z" transform="translate(476.443 260.666)" fill="#211572"/>
      <path id="Path_5677" data-name="Path 5677" d="M-1491.069-8655.963s3.459,2.764,10.359,2.943c8.244.205,28.676-1.951,28.676-1.951a16.9,16.9,0,0,1,.843,5.213s-24.974,6.162-39.4.713A9.142,9.142,0,0,1-1491.069-8655.963Z" transform="translate(478.642 257.517)" fill="#130d3c"/>
      <path id="Path_5678" data-name="Path 5678" d="M-1482.642-8651.7a4.449,4.449,0,0,0-.2-1.029c-.032-.1-.068-.2-.1-.293a4.591,4.591,0,0,0-.622-1.09,3.561,3.561,0,0,0-2.787-1.43,3.484,3.484,0,0,0-2.366.924l-.075.074a4.331,4.331,0,0,0-.357.387,4.249,4.249,0,0,0-.647,1.1,4.575,4.575,0,0,0-.336,1.607,1.023,1.023,0,0,0-.007.146,4.663,4.663,0,0,0,.711,2.51,4.458,4.458,0,0,0,.561.7,3.512,3.512,0,0,0,2.469,1.066,3.464,3.464,0,0,0,2.48-1.043,4.5,4.5,0,0,0,1.3-3.189C-1482.621-8651.4-1482.628-8651.549-1482.642-8651.7Zm-3.538,3.416c-.075.006-.146.01-.218.01a1.962,1.962,0,0,1-.711-.133,2.991,2.991,0,0,1-1.787-2.889,1.707,1.707,0,0,1,.007-.2,3.339,3.339,0,0,1,.475-1.557,2.569,2.569,0,0,1,1.126-1.037,1.928,1.928,0,0,1,.65-.191,1.778,1.778,0,0,1,.271-.018,2.1,2.1,0,0,1,.643.105,2.489,2.489,0,0,1,1.265.967.994.994,0,0,1,.122.2,3.234,3.234,0,0,1,.45,1.367,3.4,3.4,0,0,1,.018.387A2.855,2.855,0,0,1-1486.18-8648.279Z" transform="translate(482.322 258.609)" fill="#fff"/>
      <rect id="Rectangle_764" data-name="Rectangle 764" width="33.885" height="46.383" transform="translate(-1002.508 -8406.252) rotate(-40.749)" fill="#344cb6"/>
      <path id="Path_5679" data-name="Path 5679" d="M-1475.393-8654.529s-9.369,1.047-9.352,3.27,2.3,6.8,3.456,7.012,7.65-6.135,7.65-6.135Z" transform="translate(496.215 261.206)" fill="#ff9e6e"/>
      <path id="Path_5680" data-name="Path 5680" d="M-1477.005-8671.664s12.5.938,17.227,12.613,13.718,31.281,13.7,34.572-5.149,13.4-32.457,19.094c0,0-2.805-2.982-2.623-5.328,0,0,17.105-14.533,17.066-16.246-.067-3.232-2.751-7.514-17.62-22.543C-1485.752-8653.592-1477.005-8671.664-1477.005-8671.664Z" transform="translate(501.28 217.109)" fill="#ff771b"/>
      <path id="Path_5681" data-name="Path 5681" d="M-1462.36-8659.191a7.528,7.528,0,0,1-5.474-4.812,38.316,38.316,0,0,1-1.8-12.746l-.793.15-13.314,2.564s.279,4.188.268,8.135v.094a7.649,7.649,0,0,1-5.561,7.369c-1.683.475,7.944,13.285,9.055,13.045C-1477.671-8645.906-1461.555-8659.01-1462.36-8659.191Z" transform="translate(484.669 204.021)" fill="#ff9e6e"/>
      <path id="Path_5682" data-name="Path 5682" d="M-1487.695-8674.145s.279,4.188.268,8.135c7.446-.172,11.413-6.945,13.046-10.7Z" transform="translate(488.621 204.13)" fill="#f16d48"/>
      <path id="Path_5683" data-name="Path 5683" d="M-1484.244-8653.576s17.609.385,17.677-10.584,2.387-18.309-8.852-19.018-13.45,3.465-14.365,7.123S-1488.825-8653.955-1484.244-8653.576Z" transform="translate(482.666 187.281)" fill="#ff9e6e"/>
      <path id="Path_5684" data-name="Path 5684" d="M-1488.17-8681.734s4.753,12.9,12.143,14.838,10.609-.023,10.609-.023a20.968,20.968,0,0,1-6.786-12.416S-1484.5-8687.842-1488.17-8681.734Z" transform="translate(487.399 185.53)" fill="#5e0a0a"/>
      <path id="Path_5685" data-name="Path 5685" d="M-1481.39-8681.5s-3.583,1.318-5.067,3.922a17.693,17.693,0,0,0-2.434,10.053s-3.587-8.766.519-13.691C-1484.017-8686.445-1481.39-8681.5-1481.39-8681.5Z" transform="translate(481.809 186.347)" fill="#5e0a0a"/>
      <path id="Path_5686" data-name="Path 5686" d="M-1486.642-8655.113s11.978-12.668,12.449-17.859a17.234,17.234,0,0,1,6.586,4.352s-2.9,7.156-6.329,9.5a21.915,21.915,0,0,1-4.441-1.178,37.869,37.869,0,0,0,2.212,3.3S-1481.578-8653.959-1486.642-8655.113Z" transform="translate(491.331 213.742)" fill="#e56c1a"/>
      <path id="Path_5687" data-name="Path 5687" d="M-1483.714-8672.863s-4.746,8.564,4.084,17.463c0,0-5.564-1.1-8.4-5.035a8.08,8.08,0,0,1,1.655-2.59,2.84,2.84,0,0,0-2.723.3s-.614-4.609.032-6.006S-1485.094-8672.916-1483.714-8672.863Z" transform="translate(484.319 214.031)" fill="#e56c1a"/>
      <path id="Path_5688" data-name="Path 5688" d="M-1485.115-8667.332a.888.888,0,0,0-.882-.893.89.89,0,0,0-.894.883.9.9,0,0,0,.883.895A.891.891,0,0,0-1485.115-8667.332Z" transform="translate(490.69 225.963)" fill="#d60f41"/>
      <path id="Path_5689" data-name="Path 5689" d="M-1486.46-8663.818a.888.888,0,0,0-.882-.893.887.887,0,0,0-.89.883.887.887,0,0,0,.883.893A.884.884,0,0,0-1486.46-8663.818Z" transform="translate(487.237 235.002)" fill="#d60f41"/>
      <path id="Path_5690" data-name="Path 5690" d="M-1486.73-8659.691a.887.887,0,0,0-.879-.895.888.888,0,0,0-.894.883.892.892,0,0,0,.883.895A.887.887,0,0,0-1486.73-8659.691Z" transform="translate(486.542 245.624)" fill="#d60f41"/>
    </g>
  </g>
</svg>
