<svg xmlns="http://www.w3.org/2000/svg" width="27.153" height="24.775" viewBox="0 0 27.153 24.775">
  <path id="Path_3615" data-name="Path 3615" d="M1946.877,1069.337a5.539,5.539,0,0,0-4.885-4.787l-.144-.015a58.605,58.605,0,0,0-15.98,0l-.143.015a5.54,5.54,0,0,0-4.885,4.787,44.7,44.7,0,0,0,0,14.077,5.54,5.54,0,0,0,4.885,4.787l.129.014a58.756,58.756,0,0,0,16.01,0l.129-.014a5.539,5.539,0,0,0,4.885-4.787,44.71,44.71,0,0,0,0-14.077Zm-20.85-1.894.143-.015a55.993,55.993,0,0,1,15.376,0l.144.015a2.6,2.6,0,0,1,1.878,1.147l-8.208,6.472a2.42,2.42,0,0,1-3,0l-8.209-6.473A2.6,2.6,0,0,1,1926.027,1067.443Zm17.963,15.613a2.609,2.609,0,0,1-2.3,2.252l-.129.014a56.08,56.08,0,0,1-15.405,0l-.129-.014a2.608,2.608,0,0,1-2.3-2.252,53.81,53.81,0,0,1-.535-6.68,42.32,42.32,0,0,1,.293-4.605l7.072,5.577a5.319,5.319,0,0,0,6.6,0l7.072-5.576a42.154,42.154,0,0,1,.293,4.605A53.806,53.806,0,0,1,1943.991,1083.055Z" transform="translate(-1920.282 -1063.987)" fill="#fff"/>
</svg>
