<svg xmlns="http://www.w3.org/2000/svg" width="36.001" height="36.001" viewBox="0 0 36.001 36.001">
  <path id="Path_6105" data-name="Path 6105" d="M5368.725-2993a18,18,0,0,0-18,18,18,18,0,0,0,18,18,18,18,0,0,0,18-18A18,18,0,0,0,5368.725-2993Zm10.063,12.839q.015.335.015.672a14.672,14.672,0,0,1-14.773,14.774,14.7,14.7,0,0,1-7.959-2.333,10.58,10.58,0,0,0,1.238.073,10.416,10.416,0,0,0,6.449-2.223,5.2,5.2,0,0,1-4.851-3.605,5.194,5.194,0,0,0,.977.093,5.2,5.2,0,0,0,1.368-.182,5.2,5.2,0,0,1-4.165-5.092c0-.022,0-.043,0-.065a5.171,5.171,0,0,0,2.352.649,5.189,5.189,0,0,1-2.31-4.322,5.164,5.164,0,0,1,.7-2.611,14.741,14.741,0,0,0,10.7,5.425,5.249,5.249,0,0,1-.134-1.184,5.192,5.192,0,0,1,5.192-5.192,5.185,5.185,0,0,1,3.791,1.64,10.384,10.384,0,0,0,3.3-1.26,5.207,5.207,0,0,1-2.283,2.873,10.378,10.378,0,0,0,2.982-.817h0A10.553,10.553,0,0,1,5378.788-2980.156Z" transform="translate(-5350.724 2992.995)" fill="#b6bdda"/>
</svg>
